<svg id="Warstwa_1" data-name="Warstwa 1" xmlns="http://www.w3.org/2000/svg" viewBox="0 0 229.57 389.57"><defs><style>.cls-1,.cls-3,.cls-4{fill:#fff;}.cls-1,.cls-2,.cls-4{fill-rule:evenodd;}.cls-2{fill:none;stroke-width:0.5px;}.cls-2,.cls-4{stroke:#fff;stroke-miterlimit:22.93;}.cls-4{stroke-width:0.22px;}</style></defs><path class="cls-1" d="M114.79,286.64l2.33-3.09,3.4-2.26,58.53-22.57c19.24-6,47.87-28.39,50.52-69.15V0H114.79V7.31H222.26V187C219.78,225.65,193,246.9,175,252.56l-53.33,18.95L114.79,276Zm-.51.68.51-.68V276l-7.26-4.93L54.62,252.56C36.61,246.9,9.8,225.65,7.31,187V7.31H114.79V0H0V189.57c2.65,40.76,31.28,63.17,50.52,69.15l58,22.49,3.79,2.65Z"/><path class="cls-2" d="M146,115.33l.24-.16v.08c-2.17.3.26,1.75-5.28,4.35-1.77-.39-1.71-.46-2.21-.08a3.8,3.8,0,0,0-1.13,1.16c-.93,1.51-1.31,1.77-1.59,3.51-.22,1.36-.34,2.11-1.85,1.85-2.44-.42-2.1,3.51-5.91,3.33s-1.12-.14-2.4-.11-2.85,2.09-4.4,2c-1-.06-2.73-.66-4.23-.45-.78.1-1.28,1.09-2,1.06a9.27,9.27,0,0,1-3.91-1.36c-1.22-.6-3.57.43-5.15.32-3.48-.23-6.39-1.27-7.59-4.18-2.49-6-1.62-4.24-5.76-4.1-1.93.07-4.86-4.37-4.86-6.06l-.19-.18h0l.11.07a52.08,52.08,0,1,1,80.41-43.68C168.26,90.64,159.89,106,146,115.33Z"/><path class="cls-1" d="M126.72,104.14h0c1.22,1.38,2.14,3.48,3,4.16.61.46,2.09.54,2.75,1.07s1.09,1.55,1.77,2c3.06,2.27,3.44,6.18,2.46,7.2-.44.46-.55.12-.8-.21-.73-1-1.58-2.78-2-3.38-1.11-1.67-4.5-3.39-7.24-5.29v-5.6Zm0,20.8v-5a10.73,10.73,0,0,1,1,1.23c.59.82,2,1.39,2.41,2.16,1.08,2-.39,3.33-1,3.33a7.81,7.81,0,0,0-2.32-1.69Zm-3.42-21.32c1-.44.5-2.78,3.42.52v5.6c-2.66-1.84-4.7-3.84-3.42-6.12ZM126.72,120a41.21,41.21,0,0,1-3.32-3.56,12.79,12.79,0,0,1-1.76-4.42,25.07,25.07,0,0,1-.09-3.57c0-1-.6-2.88-1.65-3.27a2.63,2.63,0,0,0-1.93.16c-.77.34-1.57.92-1.58,1.57-.09,7.5,6.8,16.18,10.33,18.06Z"/><path class="cls-1" d="M112.74,105.55c.85-.06.13,1.43-.43,2.54-4.71,9.29-.18,5.78-2.62,11.51a25.29,25.29,0,0,1-3.64,5,8.23,8.23,0,0,0-.78,1v-9.08c.41-.88.81-1.69,1.11-2.37.37-.84.39-1.53.63-2.16.75-2,3.29-6.19,5.73-6.36Zm-7.47,23.75.06,0a5.44,5.44,0,0,0,3.51-.31,11.64,11.64,0,0,0,5.31-6.55c.09-.52,1.26-.91,1.5-2.27.47-2.63-1.11-5.31-.83-8.06a34,34,0,0,0,.32-5.2c-.17-4.32-2.85,7.38-3,8.73-.29,2-.54,4.69-1.86,5.91a19.35,19.35,0,0,0-2.76,4.46,8.4,8.4,0,0,1-2.21,2.05v1.22Zm0-17.06a3.74,3.74,0,0,1,.85-1.85c.25-.3,4.26-5.46,2.08-4.91a5.61,5.61,0,0,0-2.93,1.51Zm0,13.28c-.74,1-1.44,2.08-2.63,2.18-.86.07-1.11,0-.85-.83.47-1.5,1.93-2,1.9-4.5a14.22,14.22,0,0,1,1.58-5.93v9.08Zm0-18.53c-.87.93-1.26,2.23-2.23,4.1-.35.67-1.71,1.4-2,2.1a60.32,60.32,0,0,0-2.57,7.34A19.18,19.18,0,0,0,99.79,125c.36.91.53,1.59,1.21.36.5-.92.58-2.42,1.09-4.45.11-.43,1.53-3.29,2.72-6.3a12,12,0,0,0,.46-2.36V107Zm0,21.09v1.22c-.74-.26-1-.39-.1-1.13Z"/><path class="cls-1" d="M133.2,123.79a.7.7,0,0,1-.22-.15c-.68-.67-1.19-.66-1.79-1.53-1.54-2.25-.11-4.42-1.56-7.06a13,13,0,0,1-.69-1.15c-.45-1.15,1.78,0,3.33,1.8.91,1,1.25,2.75,1.56,3.09a4.37,4.37,0,0,1,.48,4.6C134,124.18,134.31,124.25,133.2,123.79Z"/><path class="cls-1" d="M93.3,118.66a28.42,28.42,0,0,0,1-6.08,2.07,2.07,0,0,1,1.55-2,14.65,14.65,0,0,0,3.45-1.16c2.54-1.28,4.93-2.28,1.81.85-1.15,1.15-2.86,2.36-3.46,4.87-.66,2.76-.78,4.78-3.66,5.63a1.8,1.8,0,0,1-.74.07v-2.18Zm0-12.49v-5.69a5.49,5.49,0,0,1,.59,2.44A7.91,7.91,0,0,1,93.3,106.17Zm-.43,13.47a4.78,4.78,0,0,0,.43-1v2.18c-.57-.09-.8-.58-.43-1.2Zm.43-19.16a1,1,0,0,0-.53-.36c-.56-.18-1.83,2.56-3.2,5.73a9.58,9.58,0,0,0-.35,8.19,13.14,13.14,0,0,0,1.87,4.44c.6.82.71,1.21,1,0,.65-2.58.59-9.09.81-10.66a11.64,11.64,0,0,1,.39-1.65Z"/><path class="cls-1" d="M135.13,106.7h.79c3.83,2.45,2.74.48,1.85-1.72-.61-1.5-.8-3.25-.54-3.25a8,8,0,0,1,2.51,2.14c1.11,1.64,1.09,6.14,1.5,7.8a11.72,11.72,0,0,1,.5,4.16c-.28,1.18-2.09,2-2.41,1.24a35.69,35.69,0,0,0-2.22-5C135.44,109.46,133.88,106.7,135.13,106.7Z"/><path class="cls-1" d="M129,119.9c-1.27,0-3.58-3.46-5-6.61a15.63,15.63,0,0,1-1.19-3.93c.59-.22,2.83.84,4.21,3.2C128,114.31,129.38,117.35,129,119.9Z"/><path class="cls-1" d="M144,114.77c-.55-.52-1.09-2-1.34-4.22-.06-.62.28-1.9.17-2.49s-1.1-5.51-1.64-6.06v-.56c1.24-1.24,1.73-3.41,2.39-3.86.45-.31,2.36,4.62,2.54,12.23C146.12,111.36,145.83,114.77,144,114.77Z"/><path class="cls-1" d="M108,102.06c-.33-.7-1.47-.51-2.43-.3-2.41.53-4,.57-5.32,1.1-3.86,1.54-7,5.21-5,6.46.47.29,1.29-1.24,2.36-1.06,1.7.28,3.65-1.21,5.23-2.68C105.75,102.91,109.1,104.38,108,102.06Z"/><path class="cls-1" d="M134,107.92c-3.88.08-4.85-3.86-6.5-5-.6-.41-.93-1.2-1.53-1.63-1.53-1.08-3-1.5-3-2,.7-.7,2.12-.28,3-.12a10.08,10.08,0,0,1,5.93,4.35A24.59,24.59,0,0,1,134,107.92Z"/><path class="cls-1" d="M95.3,104c0-3.57.74-4.43,4.51-7.12a10.13,10.13,0,0,1,5.65-1.9c3.24-.07-.66,1.56-1.54,2.26-1.81,1.46-3.81,3.9-5.53,5.28C98.21,102.69,95.79,104.51,95.3,104Z"/><path class="cls-1" d="M119,94.42c.22-.29,1.42-.06,1.86,0,1.31.08,2.81,0,4,.16A10.28,10.28,0,0,1,126,95c2.72.6,5.38,1.29,6.7,3.13a8.46,8.46,0,0,1,1.55,2.12,14.13,14.13,0,0,1,.92,3.41c.12.83.46,2-.67.88-1.87-1.8-2.2-3.93-5-5.08-2.54-1-2.14-2.2-3.86-1.47C125,98.26,116.74,97.42,119,94.42Z"/><path class="cls-1" d="M83.78,103c.09-.84,2.22-2.06,3.78-3.39.7-.6,1.56-2.65,2.54-3.54,1.22-1.11.48.56,1.06,1.15,1.71,1.75-.29,1.54-2,4.15-1.1,1.73-1.63,2.94-3.1,2.7-.45-.08-.75.12-1.13,0C84.35,103.86,83.75,103.29,83.78,103Z"/><path class="cls-1" d="M102.1,101.25c.93-1.47,3.26-3,4.88-4.48a13,13,0,0,1,1.6-1.11c1-.64,3.77-.82,4.57,0C113,98.36,103,101.56,102.1,101.25Z"/><path class="cls-1" d="M81.94,100.88a3.64,3.64,0,0,1-.68-.28.87.87,0,0,1-.12-1.31A19.22,19.22,0,0,0,83,96.82c1.23-1.75,5.21-5.4,6.33-4.11a3.35,3.35,0,0,1,.15,2.07c-1.53,1.51-3,4.44-4.52,5.33C83.94,100.73,83.38,100.53,81.94,100.88Z"/><path class="cls-1" d="M138.7,100.6c-1.58-.07-1.2-4.33-1-5,.68-2.38,1.15-2.66,3.15-5.51,1.7,0,1.33,3.87,1.24,5.36a9.24,9.24,0,0,1-1,3.42C140.46,100,139.65,100.8,138.7,100.6Z"/><path class="cls-1" d="M113.88,98.38a2.51,2.51,0,0,1,2-1.76c.61-.17,1.73.77,2.17,1.61.35.67.25.68-.36.86a4.42,4.42,0,0,1-3.53,0C113.56,98.86,113.63,98.92,113.88,98.38Z"/><path class="cls-1" d="M91.11,86.05c.19-.34-.94-1.57-1.49-3.08A12.92,12.92,0,0,1,89,79.1c.06-1.82,2.59.31,2.82.47,6.24,4.53,16,3.09,17.37,1.5.63-.71-.54,1.63-2.24,2.54a5.1,5.1,0,0,0-1.74,1.51c-.32.53-.09,1.1.3.85,1-.65,2.3-1.43,3.46-2.37.91-.73,1.1-1.6,1.91-1.87a3.46,3.46,0,0,1,1.78,0c.43.18-.15,5.46-.56,6.29-.07.12-.19.25-.29.18-.42-.27-4.49-.67-3.38,4.51.06.26-.83.58-1.22.56a21.45,21.45,0,0,0-5.54.6,5.93,5.93,0,0,0-2.82,1.37c-1.36,1-2.91,3.52-3.18,3.57s-.6.49-1.06.45c-.27,0-.63-.51-.74-.53-.27,0-2-4.12-2.18-4.69-.61-1.6-1.78-2.7-2.44-4.22A16.54,16.54,0,0,1,88,83.66c.07-.5.83-.54.91-.24C89.14,84.1,90.78,86.65,91.11,86.05Z"/><path class="cls-1" d="M137.37,79.08C133,81.63,130,82.67,123.65,80.3c.21,2.14,3.36,3.71,3.34,5.26h-.14c-1.19-.39-5.33-4.26-5.51-4.48s-.5.39-.51.53c-.14,3.73-.17,5.69.61,6.37.33.28,1.35.22,2.12.61a2.91,2.91,0,0,1,1.08,2.55c0,.75-.25,1.42-.12,1.44,2.6.31,7.24,2.29,9.09,4.09.7.69,1.16,1.58,1.35,1.65l.11-.14a1.34,1.34,0,0,1,.11-.14c-.25-.39.47-3,.58-3.28.33-1,3.35-4.45,3.93-6.84,1.11-4.56.13-6.9-1.57-3.27-.14.19-.23.48-.37.64-.58.63-1,.39-.67-.72S139.64,77.75,137.37,79.08Z"/><path class="cls-1" d="M148.35,94.32c.67,5.23-.39,6.44-2.45,3.61-2.76-3.78-1.82-3.83-.72-4.79,1.95-1.71,1-3.79,1.83-3.57S148,91.16,148.35,94.32Z"/><path class="cls-1" d="M76.94,93.27a3.23,3.23,0,0,1,1.17-2.14,13.62,13.62,0,0,1,4.75-2.23c2-.38,3.44-2.16,3.7-2,.1.06.08,1.6.37,2.78a2.26,2.26,0,0,0,1,1.52c-1.94.19-3.9,2.53-5.7,3.44C80.59,95.46,78.91,95.24,76.94,93.27Z"/><path class="cls-1" d="M120.25,92.85a6,6,0,0,0,.18-3.38,4,4,0,0,1,2.36.38C124.54,91.22,122.76,93.37,120.25,92.85Z"/><path class="cls-1" d="M113,93.34c.07-.06-.34-.84-.44-1.61a8.4,8.4,0,0,1,0-2.12c-1,0-2-.11-2.36.38C109.37,91.25,109.79,93.34,113,93.34Z"/><path class="cls-1" d="M143.21,90.64c-1.31-1.31-2.57-2.51-1-4.26s1.53-3.69,3.35-5.51c.19,0,2.16-.91,2.44-.91,0,4.12-1.79,8.75-3.73,10.68Z"/><path class="cls-1" d="M148,88.69a23.12,23.12,0,0,0,.84-2.83c.38-3,1.36-8.31,2.15-9.1.84,0,1.83,5.75,1.76,6.36a17.31,17.31,0,0,1-.5,3.67c-.27.86-.72,1.06-1,1.94-.78,2.79-.59,3.86-1.07,3-.16-.3-.4-.81-.77-1.55S148.27,89,148,88.69Z"/><path class="cls-1" d="M83.5,62.07c.71-2,1.62-4.58,1.8-4.21s-.46,3.76-.63,7.42a24.88,24.88,0,0,0,.35,5,6.11,6.11,0,0,1-1.52,5V62.07Zm0,24.8a5,5,0,0,0,2-2.15,16.27,16.27,0,0,0,.9-9.06,4.21,4.21,0,0,0-.16-.74c-.63-2.13-.41-1.69-1.31-.23a9.93,9.93,0,0,0-1,2.64,4,4,0,0,1-.42,1ZM83,76c-1.07,1.35-.94-5.91-1.1-6.67-.32-1.62-.28-3.79.82-5,.07-.08.42-1.07.83-2.26v13.2c-.17.24-.35.47-.55.72Zm.55,2.35v8.53a5.13,5.13,0,0,1-3.46.58c0-2.32,2.4-3.58,2.83-6,0-.19.06-.41.09-.64s-.39-1.09-.38-1.36S83.08,79.05,83.5,78.34Z"/><path class="cls-1" d="M76.38,84.82c2.85-2.85-.67-13.13,2.81-16.61,2.19-2.59,1.5.4,1.56,2.19.06,2,.49,4.67.74,7.29.06.69-.58,1.56-.37,2.15C82.11,82.64,76.59,88.51,76.38,84.82Z"/><path class="cls-1" d="M142.24,81.3s-1.44.5-2.07-.2a39.75,39.75,0,0,0,2.08-12.29c2.78.12,3,7,1.89,10.72C143.64,81.22,142.47,81.3,142.24,81.3Z"/><path class="cls-1" d="M98.56,80.63a8.55,8.55,0,0,1-3-.81,4.52,4.52,0,0,1-1.79-1.06,14,14,0,0,1,3.83-2.28A4.36,4.36,0,0,0,98.56,80.63Z"/><path class="cls-1" d="M105.87,76.89a4.42,4.42,0,0,1,3.07,2.32c-.71,1.34-3.32,1.9-4,1.23A4.65,4.65,0,0,0,105.87,76.89Z"/><path class="cls-1" d="M98.59,76.2a3.42,3.42,0,0,1,1.51-.44c-1.5,4.41,3.48,4.93,2.72.38l1.84.5C104,83,98,81.6,98.59,76.2Z"/><path class="cls-1" d="M132.41,79.82c1.29-.35,4.6-1.4,4.69-2.63a7.3,7.3,0,0,0-3.85-2C134.22,76.36,132.84,79.69,132.41,79.82Z"/><path class="cls-1" d="M126.3,79.8c-2.3,0-4-2.13-4-2.16-.27-.16,1.55-2.17,3.16-2.53,0,.69-.07,1.4-.07,2A6.48,6.48,0,0,0,126.3,79.8Z"/><path class="cls-1" d="M145.84,78.91c-1.17-2,2.73-9-1.83-11.43-1.11-.59-2.42-6.41-2.36-8,0-.65,1.06-.3,2.53,1.37a57.49,57.49,0,0,1,3.92,5c3.37,4.81,1.32,10.27-1.51,13.09Z"/><path class="cls-1" d="M105,74.82c-7.43-2.53-9.47,1.13-13,2.8-4.52-4.51,6.52-7.73,10.36-6.68,1,.28,3.62,1,6,1.48a18,18,0,0,0,1.88.23c.69.07,1.21,1.26,1.27,1.78a22.9,22.9,0,0,1,.24,3.92A5.29,5.29,0,0,1,109.07,77,17.53,17.53,0,0,0,105,74.82Z"/><path class="cls-1" d="M132.27,75c-.27,0-.33-.14-1.75-.38,2.36,4.92-4.13,5.33-2.41,0l-1.73.36C125.21,81.08,133.53,82.07,132.27,75Z"/><path class="cls-1" d="M135.41,71.75c5.53.92,4.44,1.4,3.48,4.16l-.19.18c-7.4-3.14-9.55-5.3-18.21.57l-.18-.19C120.31,68,129.77,71,135.41,71.75Z"/><path class="cls-1" d="M90.43,51.83c2.08-3.41,4.94-6.09,8.35-7.11a30.24,30.24,0,0,1,13.27,1.08,45.83,45.83,0,0,1,6.37,2.69c5.48,2.74,6,2.69,12,3.39,5.18.59,7.05,2.18,8.71,8.39,1.2,4.5,1.86,9.23-1.4,4.16-.57-.9-1.46-.72-1,0,1.68,2.46,3.63,6.74,0,6.57-4.53-.22-11.34-4.48-16.52.14-4.3,3.83-1,19-1.23,20.78-.45,1.61-4.47,2-5.26.11,0-2.83.29-7.76.13-12.2-.15-3.92-.9-7.49.32-8.67.38-.37.65-.47.55-1.05-.28-1.47-1.3-.51-2.36.15-1.38.87-3.49,1-6.09.32-5.65-1.45-7.25-2.84-13,0-.22.11-2.38,1.12-3,1V69c.11-1.55,1.64-3.29.75-3.34a2,2,0,0,0-.76.08V51.83Zm0,14.1Zm-2.27,5.83c-2.67-5.48-1.44-13.86,2.27-19.93V65.71c-2.42.79-1.5,6.28-2.27,6.05Zm2.27-.19V69.16c-.06.84-.12,1.48-.12,2.35a.23.23,0,0,0,.12.06Zm0-5.64h0Z"/><path class="cls-1" d="M127,41.06a15.25,15.25,0,0,0-3.21-.78c-1.29-.13-1.38-.17-.6.75a2.22,2.22,0,0,1,.39.57,22.76,22.76,0,0,0,2.13,1.87,17,17,0,0,0,2.5,1.5c.68.39,2.57,1,3,1.18,2.82,1.62,2.16,1,3.92,3.15a17,17,0,0,0,1.52,1.58c1.43,1.28,1.88,1.5,1.06-.23A17,17,0,0,0,127,41.06Z"/><path class="cls-1" d="M116.37,42.68c1.18.48,2.62,1.24,3.95,1.83,3,1.34,4.91,3.13,7.7,4.12a26.22,26.22,0,0,0,3.71,1c.58.11,1.5.4,2.23.57,1.85.45.09-.72.1-1-1.69-1.93-4.51-2.23-6.92-3.32a21.71,21.71,0,0,1-5.86-4.4c-2.41-2.27-9.12-4.27-11.7-3C106.74,39.81,115.89,42.48,116.37,42.68Z"/><path class="cls-1" d="M105.58,43a28.5,28.5,0,0,0-3.71-.52l-.57,0c-1.09-.06-1.5-.12.23-.93s5.28-1.52,9.74.08A58.78,58.78,0,0,1,117,44.47c1.18.61,2.9,1,4,1.65,10.53,5.85,4,3.34-.07,1.69A71.55,71.55,0,0,0,105.58,43Z"/><path class="cls-3" d="M164.85,72.33h-.38l-.06-2.48-.19-2.45L163.91,65l-.42-2.37-.55-2.33L162.29,58l-.76-2.24-.86-2.19-1-2.13-1.07-2.08-1.16-2-1.26-2-1.35-1.9-1.43-1.82-1.52-1.75-1.6-1.68-1.68-1.6-1.75-1.52-1.83-1.43-1.89-1.35-2-1.26-2-1.16-2.08-1.07-2.13-1L132.78,27l-2.24-.76-2.29-.66-2.33-.54-2.37-.42-2.41-.31-2.45-.19-2.48-.06v-.38l2.5.06,2.46.19,2.43.31,2.39.43,2.35.55,2.31.65,2.26.77,2.2.87,2.16,1,2.09,1.08,2,1.17,2,1.27,1.91,1.35,1.84,1.45,1.76,1.53,1.7,1.61,1.61,1.69,1.53,1.77,1.44,1.84,1.36,1.9,1.27,2,1.17,2L160,51.27l1,2.15.88,2.21.76,2.26.66,2.3.55,2.35.42,2.4.32,2.42.18,2.47.07,2.5Zm-17.5,36.88.37,0-.31-.13.9-.76.88-.8.87-.83.85-.86.83-.89.82-.93.8-1,.78-1,.76-1,.73-1,.72-1.07.69-1.08.67-1.12.64-1.13.61-1.16.59-1.18.56-1.2.53-1.21.5-1.24.47-1.25.44-1.27.4-1.29.37-1.3.34-1.31.3-1.32.26-1.34.22-1.35.19-1.35.15-1.37.1-1.37.07-1.38,0-1.38h.38l0,1.39-.07,1.39-.11,1.39-.14,1.37-.19,1.37-.23,1.36L163.83,82l-.3,1.33-.34,1.32-.37,1.31-.41,1.3L162,88.49l-.48,1.26L161,91l-.53,1.23-.57,1.21-.59,1.18-.62,1.17L158,96.92,157.36,98l-.69,1.1-.72,1.07-.75,1.05-.76,1-.79,1-.8,1-.83.93-.84.9-.86.87-.87.84-.89.8-.91.77-.3-.13Zm.3.13-.28.23,0-.36.3.13Zm-.23-4.5.3,4.34-.37,0-.3-4.34v0Zm-.37,0v0Zm.71-2.43-.34,2.44-.37,0,.34-2.44,0-.1.33.15Zm-.37,0v-.06l0,0,0,.1Zm1.45-1.13-1.12,1.28-.29-.25,1.13-1.28.32.19,0,.06Zm0-.06v0l0,0,0-.06Zm2.58-6.72-2.58,6.72-.36-.14,2.58-6.71.36.13Zm0,0Zm2.36-15.57.33-.19h0l.19.4.17.41.13.44.1.46.07.47.05.49v1l0,.52-.05.54-.07.54-.09.54-.1.55-.12.56-.13.56-.14.55-.16.56-.16.55-.17.55-.17.54-.18.54-.18.53-.19.51-.18.51-.19.49-.17.48-.18.46-.17.44-.16.42-.15.41-.14.37-.13.36-.36-.13.13-.36.15-.38.15-.4.16-.42.17-.45.17-.46.18-.47.18-.49.18-.5.19-.52.18-.52.18-.53.17-.54.17-.55.16-.55.15-.55.14-.54.13-.55.12-.55.1-.54.09-.54.06-.53.05-.51,0-.51v-.5l0-.48,0-.47-.07-.44-.1-.43-.12-.41-.15-.39-.18-.36Zm-2.59-8.84.37-.1v1.12l0,.33,0,.33,0,.31,0,.3,0,.3,0,.28,0,.28.05.27.06.27.06.26.07.25.07.25.08.25.08.24.08.24.09.24.1.24.1.24.1.23.11.24.12.24.11.24.13.25.13.24.13.25.14.26.14.26.15.27.16.27-.33.19-.16-.28-.15-.27-.14-.26-.14-.26-.14-.25-.13-.25-.12-.25-.12-.24-.12-.25-.11-.24-.11-.24-.1-.25-.1-.24-.09-.25-.09-.25-.08-.25-.08-.25-.08-.26-.07-.26-.06-.27-.06-.27,0-.28-.05-.28-.05-.3,0-.3,0-.31,0-.32,0-.33,0-.34,0-.35v-.69Zm.37-.1v0ZM145.16,59.9l.27-.28h0l.29.28.28.27.28.27.26.25.25.25.25.25.24.24.23.24.22.24.21.24.21.24.2.24.2.25.19.25.19.26.18.27.17.28.17.28.17.3.16.31.16.32.16.34.15.36.16.37.15.39.15.41.15.43.14.46.15.47.15.51.15.52.15.56-.37.1-.14-.56-.15-.52-.15-.5-.15-.47-.14-.45-.15-.42-.15-.41-.15-.38-.14-.36-.16-.35-.15-.33-.16-.32-.15-.3-.17-.29-.16-.28-.17-.26-.18-.26-.17-.25-.19-.25-.19-.24-.2-.24-.2-.23-.21-.24-.22-.23-.22-.24-.24-.24-.24-.24-.26-.25-.26-.25-.27-.26-.28-.27-.3-.28Zm-4.79-6.52.32-.21h0l.1.16.1.16.12.18.12.18.13.2.14.2.14.21.14.22.15.22.16.23.16.23.16.24.16.23.17.24.17.24.17.24.17.24.17.23.17.24.17.22.17.23.16.22.16.21.16.2.16.2.15.19.15.18.15.17.13.15.14.15.12.13.12.11-.27.28-.12-.13-.13-.13-.14-.15-.14-.16-.15-.18-.15-.18-.15-.19-.16-.2-.17-.21-.16-.21-.17-.22-.17-.23-.17-.23-.17-.23-.17-.24-.17-.24-.17-.24-.17-.24-.17-.24-.16-.24-.16-.23-.16-.24-.16-.22-.15-.23-.15-.22-.14-.21-.13-.2-.13-.2-.13-.18-.11-.18-.11-.17-.1-.15Zm-4.52-8.26.3-.22h0l.23.31.21.3.2.3.2.3.18.29.18.29.17.28.16.28.15.28.15.28.14.27.14.26.13.27.12.26.13.26.12.25.12.26.11.25.12.25.11.24.11.24.11.25.12.23.11.24.12.23.12.24L140,52l.12.23.13.23.13.22.13.23.15.22-.32.21-.15-.23-.14-.23-.13-.24-.13-.23-.13-.23-.12-.24-.12-.24-.12-.23-.11-.24L139.1,51l-.11-.25-.11-.24-.12-.25-.11-.24-.12-.25-.11-.25-.12-.26-.13-.26-.12-.25-.13-.27-.14-.26-.14-.27-.14-.27-.15-.27-.16-.28-.17-.28-.17-.28-.18-.29-.19-.29-.2-.29-.21-.3-.22-.31Zm-1.76-2.23.27-.26h0l.06.06.06.06.05.06.06.06.06.06,0,.07.06.06.06.07.05.06.06.07,0,.07.06.07.05.07.06.07,0,.07.05.07.06.07.05.07.06.07.05.08.06.07.05.08.06.07.05.08.06.08.06.07.05.08.06.08.06.08.06.08.05.08.06.08-.3.22-.06-.08-.06-.08-.06-.08-.06-.08-.05-.08-.06-.07-.06-.08-.05-.08-.06-.07-.05-.08-.06-.07-.05-.08-.06-.07-.05-.07L135,44l-.06-.07,0-.07-.05-.07-.06-.07,0-.07-.05-.06-.06-.07,0-.06-.05-.07-.06-.06-.05-.06,0-.06-.06-.06-.05-.06L134.2,43l0-.06-.06-.06Zm-1.84-1.4.19-.33h0l.08.05.08,0,.08,0,.08.05.07,0,.07,0,.07,0,.06,0,.07,0,.06,0,.06,0,.06,0,.06,0,0,0,.06,0,.05,0,.06,0,.05,0,0,0,.06.05.05,0,0,0,.05,0,0,.05.06,0,.05,0,.05.05.06.06.05.05.06,0,.05.06.06.06-.27.26-.06,0-.05-.06,0-.05-.06,0-.05,0,0-.05-.05,0-.05,0,0-.05-.05,0,0,0-.05,0-.05,0,0,0-.05,0,0,0-.05,0-.05,0,0,0-.06,0L133,42l-.05,0-.06,0-.07,0-.06,0-.06,0-.07,0-.07,0-.08,0-.07-.05-.08,0-.08,0Zm-3.39-1.68.12-.36h0l.1,0,.1,0,.1,0,.11,0,.11,0,.11,0,.11,0,.12.05.11,0,.12.05.11.06.12.06.12,0,.12.06.11.06.12.06.12.06.11.06.12.06.11.06.11.07.11.06.11.06.11.06.11.06.1.06.1,0,.1.06.1.06.09.05.09,0,.08,0-.19.33-.09-.05-.08,0-.09-.06-.1,0-.1-.06-.1,0-.1-.06-.1-.06-.11-.06-.11-.06-.11-.06-.11-.06-.11-.06-.11-.06-.12-.06-.11-.06-.12-.06-.11-.06-.12-.06-.11,0-.12-.06-.11-.05-.11,0-.12,0-.11-.05-.1,0-.11,0-.1,0-.11,0-.1,0-.09,0-.1,0Zm-6.05-1.38.1-.37h0l.18,0,.18,0,.18.05.19,0,.19,0,.19,0,.19,0,.2,0,.2,0,.19,0,.2,0,.2,0,.2,0,.2,0,.2,0,.2,0,.2,0,.19,0,.2,0,.2,0L127,39l.2,0,.19,0,.19,0,.18,0,.19,0,.18.05.18,0,.18,0,.17.05.17,0,.17.05-.12.36-.16-.05-.16,0-.17,0-.17-.05-.18,0-.18,0-.18,0-.19-.05-.19,0-.19,0-.19,0-.19,0-.2,0-.19,0-.2,0-.2,0-.2,0-.2,0-.2,0-.2,0-.2,0-.19,0-.2,0-.2,0-.2,0-.19,0-.19-.05-.2,0-.19,0-.18,0-.19-.05-.18,0ZM107.33,38l-.17-.35h0l.43-.19.43-.17.43-.16.45-.14.45-.12.45-.1.46-.09.46-.08.47-.06.48,0,.47,0,.49,0h1l.49,0,.5,0,.5,0,.5.06.51.06.51.07.52.07.51.09.52.09.52.1.52.11.53.11.52.12.53.13.53.13.53.13.53.13.53.14-.1.37-.53-.14-.53-.14-.52-.13-.53-.12-.52-.13-.52-.12-.52-.11-.52-.1-.52-.1-.51-.1-.51-.08-.51-.08-.51-.07-.5-.06-.49-.05-.5,0-.49,0-.48,0h-1l-.48,0-.46,0-.47,0-.45.06-.46.07-.44.09-.44.1-.44.12-.43.13-.42.15-.41.17-.41.19Zm-2.6.53,0-.38H106l.08,0h.08l.08,0,.08,0,.08,0,.08,0,.08,0,.09,0,.08,0,.08,0,.08,0,.09,0,.08,0,.08,0,.17.35-.09,0-.1,0-.09,0-.09,0-.09,0-.09,0-.09,0-.09,0-.09,0-.08,0-.09,0-.09,0h-.08l-.09,0H106l-.09,0h-1.18Zm-6.37,2.15-.24-.3h0l.18-.14.17-.13.18-.13.17-.12.17-.11.17-.11.18-.1.17-.1.18-.09.17-.08.18-.08.18-.08.18-.07.18-.07.19-.07.19-.06.19,0,.2-.06.2-.05.2,0,.21,0,.22,0,.22,0,.22,0,.23,0,.24,0,.25,0,.25,0,.26,0,.27,0,.27,0,.29,0,0,.38-.29,0-.27,0-.27,0-.26,0-.25,0-.24,0-.23,0-.23,0-.22,0-.22,0-.21,0-.2,0-.2.05-.2,0-.19.05-.18.06-.18.05-.18.07-.18.06-.17.07-.17.07-.17.08-.16.08-.17.09-.16.09-.17.1-.16.1-.17.11-.16.11-.17.12-.17.13-.17.14Zm-4.68,4.18-.23-.3h0l.11-.07.12-.09.12-.1.13-.1.14-.11.14-.12.15-.13.15-.13.16-.14.15-.14.16-.15.17-.15.16-.15.17-.15.16-.16.17-.16.17-.15.16-.16.16-.16.17-.15.16-.15.15-.15.16-.15.15-.14.15-.13.14-.13.14-.13.13-.12.12-.11.12-.11.12-.09.1-.09.24.3-.1.08-.11.09-.12.1-.12.11-.13.12-.13.12-.15.13-.14.14-.15.14-.16.15L96.9,42l-.16.16-.17.15-.16.15-.16.16-.17.16-.17.16-.16.15-.17.16-.17.15-.16.15-.16.15-.16.14-.16.14-.15.14-.15.12-.15.13-.14.11-.13.11-.13.1-.13.09-.12.09Zm-.23-.3h0Zm-7.32,9.82-.31-.22h0l.43-.6.39-.55.34-.51.31-.47.27-.43.24-.4.22-.36.18-.34.17-.3.15-.29.13-.26.12-.24.11-.23L89,49l.1-.21.11-.19.11-.19.11-.19.13-.19.14-.19.15-.19.18-.2.19-.2.22-.22.25-.23.28-.24.31-.27.35-.29.39-.31.43-.33.48-.37.53-.4.23.3-.53.4-.48.37-.43.33-.38.31-.35.28-.3.26-.28.24-.24.23-.21.2-.18.2-.17.19L90,48l-.13.17-.12.17-.11.18-.1.18-.1.19-.1.2-.11.21-.11.23L89,49.8l-.14.27-.15.28-.17.32-.19.34-.21.37-.25.4-.27.43-.31.48L87,53.2l-.39.56-.43.6Zm-3.28,4.09-.33-.19h0l.07-.11.07-.12.09-.12.09-.13.09-.13.1-.13.11-.14.11-.14.11-.14.12-.15.12-.15.12-.15.12-.15.13-.15.13-.15.12-.15.13-.14.12-.15.13-.15.12-.14.12-.14L85,55.2l.11-.14.11-.12.11-.13.1-.11.09-.11.08-.11.08-.1.08-.09.06-.08,0-.07.31.22-.06.08-.07.09-.07.09-.08.1-.09.11-.09.11-.1.12-.11.12-.11.13-.11.13-.12.14-.11.14-.13.14-.12.14-.12.15-.13.15-.12.15-.13.15-.12.15-.13.14-.12.15-.12.15-.11.14-.11.14-.11.14-.11.14-.09.13-.1.12-.08.13-.08.11-.07.11-.06.1Zm-1.94,6-.3-.23h0l0,0,0-.07,0-.09.05-.12,0-.14,0-.15.06-.18.06-.18L81,63l.06-.22.07-.22.06-.23.07-.23.07-.25.07-.24.07-.25.07-.25.07-.25.07-.25.07-.24.07-.24.07-.23L82,59.7l.06-.22.07-.2.06-.19.06-.18.06-.16,0-.15.06-.13,0-.11,0-.1.33.19,0,.07,0,.1,0,.12-.06.14,0,.15-.06.17-.06.19-.06.2-.07.22-.07.22-.06.23-.07.23-.07.25L82,61l-.07.25-.07.25-.07.25-.07.25-.07.24-.07.24-.07.23-.07.22-.06.22-.06.2-.06.19-.06.18-.06.16,0,.15,0,.12,0,.11-.05.1,0,.08Zm-1,1.2-.18-.33h0l0,0,0,0,0,0,0,0,0,0,0,0,0,0,0,0,0,0,0,0,0,0,0,0,0,0,0,0,0,0,0,0,0,0,0,0,0,0,0,0,0,0,0,0,0,0,0,0,0,0,0,0,0,0,0,0,0,0,0,0,0,0,0,0,.3.23,0,0,0,.05,0,0,0,0,0,0,0,0,0,0,0,0,0,0,0,0,0,0,0,0,0,0,0,0,0,0,0,0,0,0,0,0,0,0,0,0,0,0,0,0,0,0,0,0,0,0,0,0-.05,0,0,0,0,0,0,0,0,0,0,0Zm-3.55,8.9-.37,0v-1l0-.5,0-.48L76,72l0-.45,0-.42.07-.4.07-.39.08-.36.09-.35.09-.34.11-.32.11-.3.12-.29L77,68.1l.13-.26.14-.25.14-.23.15-.22.15-.21.16-.2.17-.18.16-.18.18-.16.18-.16.18-.15.18-.13.19-.13.19-.13.19-.11.2-.11.18.33-.19.11-.18.11-.18.11-.18.12L79,66.2l-.17.14-.17.15-.16.15-.16.16-.15.18-.15.18-.14.2-.14.2-.14.22-.13.24-.12.24-.12.26-.11.28-.1.29-.1.3-.1.32-.08.34-.08.36-.07.37-.06.4-.06.41,0,.43,0,.45,0,.47v1.58Zm0,0h0v0Zm-.89,3.64L76,74.47l.37,0-.51,3.66-.37,0v0Zm0,0v0h0v0Zm.46,4.46-.38,0h0V78.16h.37v4.47Zm-.85,3.16-.38,0h0v-.51l0-.1,0-.1,0-.1,0-.09,0-.1,0-.1,0-.09,0-.1,0-.1,0-.09,0-.1,0-.1,0-.09,0-.1,0-.1,0-.1,0-.1,0-.1,0-.1,0-.11,0-.1,0-.11,0-.1,0-.11,0-.11,0-.11v-.11l.38,0,0,.13,0,.12,0,.12,0,.12,0,.12,0,.11,0,.12,0,.11,0,.1,0,.11,0,.11,0,.1,0,.1,0,.1,0,.1,0,.09,0,.1,0,.09,0,.1,0,.09,0,.09,0,.09,0,.08,0,.09,0,.09,0,.08v.5Zm1.38,2.14-.23.3h0l-.07,0-.07,0L76,88.06l-.06,0L75.86,88l-.07-.06-.06-.06-.07-.06-.06-.06-.06-.07-.06-.06-.06-.07-.06-.07,0-.07-.06-.08,0-.07,0-.08-.05-.07,0-.08,0-.08,0-.08,0-.09,0-.08,0-.09,0-.09,0-.09,0-.09,0-.09,0-.1,0-.09,0-.1v-.1l.38,0V86l0,.09,0,.08,0,.08,0,.08,0,.08,0,.07,0,.08,0,.07,0,.08,0,.07,0,.07,0,.07,0,.07,0,.07,0,.06,0,.07,0,.06,0,.06.05.06.06.06.05.06.06.06.06.06.06,0,.06.06.06,0,.06,0,.07,0,.06.05.07,0Zm2.57,1-.19-.33,0,.35-.08,0h-.07l-.08,0h-.08l-.09,0H77.7l-.08,0h-.18l-.08,0h-.09l-.08,0-.09,0-.08,0-.09,0-.08,0-.09,0-.08,0-.08,0-.08,0-.08,0-.08-.05-.08,0-.08-.06.23-.3.06,0,.06,0,.07,0,.06,0,.07,0,.07,0,.07,0,.07,0,.08,0,.07,0,.08,0,.08,0,.08,0h.16l.08,0h.76l.09,0h.17l.09,0h.08l.09,0,.08,0,0,.35Zm0-.35.46.12-.41.23,0-.35Zm-2.48,1.37,2.34-1.35.19.33-2.34,1.35-.22-.31,0,0Zm0,0h0l0,0ZM80.9,97.4l-.32-.2.07.27-.31-.15L80,97.17,79.7,97l-.33-.15L79,96.71l-.33-.16-.34-.17L78,96.21,77.7,96l-.33-.18-.31-.18-.3-.19-.29-.19-.28-.2-.25-.21-.24-.21-.22-.23-.2-.23L75.12,94,75,93.72l-.11-.27-.07-.28,0-.29v-.29l0-.31L74.9,92l.14-.32.18-.33.23-.34.28-.35.32-.35.39-.37.25.28-.37.35-.31.34-.26.33-.21.31-.16.29-.12.28-.08.27,0,.26v.25l0,.23.06.23.09.23.12.21.15.22.17.21.2.2.22.2.24.2.27.19.27.19.3.18.3.17.32.18.32.17.33.16.33.17.34.15.33.16.33.16.33.15.32.15.31.15.08.27Zm-.08-.27.19.1-.11.17-.08-.27Zm-1.72,3.11-.37-.08h0l0-.1,0-.09,0-.09,0-.09,0-.1,0-.09,0-.09,0-.09.06-.1,0-.09.06-.09.06-.09.06-.1.07-.09.06-.1.07-.09.07-.09.07-.1.06-.09.07-.09.07-.1.07-.09L80,98l.07-.09.07-.1.07-.09.06-.09.07-.09.06-.09.06-.09.06-.09.06-.09.32.2-.06.1-.06.09-.07.09-.06.1-.07.09-.07.09-.07.1-.06.09-.07.09-.07.1-.07.09-.07.09-.07.1-.07.09-.07.09-.06.09-.07.09-.06.09-.06.09-.06.09-.06.09,0,.09-.06.09,0,.08,0,.09,0,.08,0,.08,0,.08,0,.08,0,.08,0,.07,0,.08Zm.69,1.64-.23.3h0l-.06,0,0,0,0,0-.05,0,0,0,0,0,0,0,0,0,0,0,0-.06,0,0,0-.06,0,0,0-.06,0-.06,0-.06,0-.06,0-.07,0-.06,0-.07,0-.07V101l0-.07v-.65l0-.08.37.08v.07l0,.07V101l0,.05,0,0,0,0,0,0,0,0,0,.05,0,0,0,0,0,0,0,0,0,0,0,0,0,0,0,0,0,0,0,0,.05,0,0,0,0,0,.05,0Zm2.25.59-.27.27h0l0,0,0,0-.05,0,0,0-.06,0,0,0-.06,0-.06,0H80.07l-.08,0-.07,0-.08,0-.07,0-.08,0-.07,0-.06,0,.23-.3,0,0,0,0,0,0,0,0,.06,0,0,0h1.19l.08,0h.08l.08,0,.08,0,.08,0,.08,0,.08,0,.07,0,.07.06.07.06Zm1.32,2.36L83,105h0l0-.06,0-.06,0-.06,0-.07,0-.06,0-.07,0-.07,0-.07,0-.07,0-.07,0-.07,0-.07,0-.08,0-.07,0-.08,0-.07,0-.08,0-.08,0-.07,0-.08,0-.08,0-.07,0-.08-.05-.07,0-.08,0-.07-.06-.08,0-.07L82,103l-.06-.07-.06-.08-.06-.06.27-.27.07.08.07.08.07.08.06.08.06.08.06.08,0,.09.06.08,0,.08,0,.08.05.09,0,.08,0,.08,0,.08,0,.08,0,.08,0,.08,0,.08,0,.07,0,.08,0,.07,0,.08,0,.07,0,.06,0,.07,0,.07,0,.06,0,.06,0,.06,0,0,0,0,0,0Zm4.25.67-.36-.11.23.24-.26.07-.25.07-.23.06-.23.06-.21,0-.21,0-.2,0-.18,0-.18,0-.17,0-.17,0h-.71l-.12,0-.12,0-.12,0-.1,0-.11,0-.1-.06-.09-.06-.09-.06-.09-.07-.08-.08-.08-.08-.07-.09-.07-.09-.07-.09-.07-.1L83,105l.32-.2.06.1.06.09.06.08.06.08.06.07.07.07.06.06.07.06.07,0,.08.05.07,0,.08,0,.09,0,.09,0,.1,0,.1,0h.63l.15,0h.16l.17,0,.17,0,.19,0,.2,0,.21,0,.22,0,.24-.06.24-.07.25-.08.24.24Zm-.24-.24.34-.09-.1.33-.24-.24ZM86.49,108l.76-2.56.36.11-.76,2.56-.37-.06v0Zm0,0v0Zm0,1.51V108h.38v1.51l-.38,0v0Zm0,0h0v0Zm.23,1.32-.23-1.32.37-.06.23,1.32-.3.18-.07-.12Zm.37-.06.08.48-.38-.3.3-.18Zm-1.22-.53.24-.3h0l0,0,0,0,0,0,0,0,0,0,0,0,0,0,0,0,0,0,0,0,0,0,0,0,0,0,0,0,0,0,0,0,0,0,0,0,0,0,0,0,0,0,0,0,0,0,0,0,0,0,0,0,0,0,0,0,0,0,0,0,0,0,0,0-.23.3,0,0,0,0,0,0,0,0,0,0,0,0,0,0,0,0,0,0,0,0,0,0,0,0,0,0,0,0,0,0,0,0,0,0,0,0,0,0,0,0,0,0,0,0,0,0,0,0,0,0,0,0,0,0,0,0,0,0,0,0,0,0,0,0ZM67.58,72.33H68l0,1.42L68,75.16l.1,1.4.14,1.38.19,1.38.22,1.36L68.94,82l.3,1.33.33,1.33L69.94,86l.4,1.29.44,1.28.48,1.26.51,1.25.54,1.23.57,1.21.61,1.19.64,1.17L74.8,97l.7,1.14.73,1.11.76,1.09.79,1.07.82,1,.85,1,.87,1,.9,1,.92,1,1,.92,1,.9,1,.87,1,.84-.24.3-1-.85-1-.88-1-.91-1-.93-.93-1-.9-1-.88-1-.85-1-.83-1-.79-1.08-.77-1.1-.74-1.12-.7-1.14-.68-1.16-.64-1.18-.62-1.21L72,92.47l-.54-1.23L70.91,90l-.48-1.27L70,87.42l-.4-1.3-.37-1.32-.34-1.34-.3-1.35-.26-1.36-.22-1.38L67.91,78l-.14-1.4-.11-1.41-.06-1.42,0-1.43Zm48.63-48.64v.38h0l-2.47.06-2.45.19-2.41.31-2.37.42-2.33.54-2.29.66L99.65,27l-2.19.86-2.14,1-2.08,1.07-2,1.16-2,1.26-1.9,1.35-1.82,1.43L83.8,36.63l-1.68,1.6-1.6,1.68L79,41.66l-1.43,1.82-1.35,1.9-1.26,2-1.16,2-1.07,2.08-1,2.13-.87,2.19L70.13,58l-.65,2.29-.54,2.33L68.52,65l-.31,2.41L68,69.85,68,72.33h-.38l.06-2.5.19-2.47.31-2.42.43-2.4.54-2.35.66-2.3.77-2.26.87-2.21,1-2.15,1.07-2.09,1.18-2,1.26-2,1.36-1.9,1.45-1.84,1.53-1.77L81.85,38l1.69-1.61,1.77-1.53,1.84-1.45L89.05,32l2-1.27,2-1.17,2.1-1.08,2.15-1,2.21-.87,2.26-.77,2.3-.65,2.35-.55,2.39-.43,2.43-.31,2.47-.19,2.49-.06Z"/><path class="cls-1" d="M116.21,23.88a48.54,48.54,0,0,1,48.45,48.45c0,14.86-7.46,28.89-17.13,36.86l-.3-4.33.35-2.45,1.12-1.28,2.58-6.72c1.32-3.66,4.92-11.67,2.7-15.6-1.67-3-2.51-4.74-2.56-8.79-1.61-6.06-2.94-7.21-6.12-10.26a51,51,0,0,1-4.77-6.49c-1.56-2.42-2.1-5-4.53-8.26a20.81,20.81,0,0,0-1.77-2.25,8.17,8.17,0,0,0-1.88-1.44,19.87,19.87,0,0,0-3.43-1.69c-1.72-.53-4.15-.88-6.06-1.39-5.65-1.48-11.21-2.55-15.61-.44a7.41,7.41,0,0,1-2.55.52c-3.08.4-4.6.69-6.46,2.19-1.06.86-3.49,3.38-4.68,4.18-5.91,4.43-2.75,2.92-7.58,9.56-.57.77-2.64,3-3.3,4.11-.45.76-1.54,5.45-1.92,5.94s-.47.88-1,1.16c-2,1.1-3.7,3.15-3.64,9l-.52,3.66a42.38,42.38,0,0,1,.09,4.45c-.13,1.29-1,2.21-.85,3.2a3.27,3.27,0,0,0,1.45,2.27c.73.52,1.73.42,2.6.64l-2.35,1.34c-4.27,3.89.93,5.66,4.18,7.25-.61,1-1.63,2-1.82,2.9a1.67,1.67,0,0,0,.76,1.83c.55.45,1.65,0,2.22.57a9.22,9.22,0,0,1,1.3,2.33c.67,1.09,1.42,1.34,4.23.52L86.67,108v1.51l.22,1.32-.91-.71a48.41,48.41,0,0,1,30.24-86.24Z"/><path class="cls-2" d="M171.31,133.71l-2.37-2.47-7.07,6.32-5.61-5.89-31,29.63,10.3,8.95c3.87-4.64,17.75,0,9.78,10.39a19,19,0,0,0,7.77,2.69c6.3.85,14.34.23,15.87-.85v-.19c2.44-2.65,1.8-6.9,7.41-8.81,8.46-2.88,14.09,3.51,12.54,10.19-.65,2.81-3.79,6.57-7.18,8.38-.57,2.33-2.42,19-.19,21.22v.18c2.16,2.64,5.83,1.76,6.9,7.72,1.86,10.43-8.21,13.77-14.93,10.71a12.72,12.72,0,0,1-3.73-4.11,12,12,0,0,1-1.48-6,40.93,40.93,0,0,0-20,1.2c-3.89,13.05-19.28,12.56-20.49,0-.57-5.89,5-10.29,8.94-11.12,1.73-5,.28-17.12-.63-21.07a52.73,52.73,0,0,1-6.47.8c-4.28-.53-7.37-3.19-4-12l-10.17-8.83-9.59,9.52c1.83,7,1.5,11.48-8.58,9.88-3.41,2.36-2.78,18.85-1.7,21.31,2.33,2.33,5.64,1.61,7.37,6.1,2.78,7.2-.37,17-12.28,13-3.63-1.22-5-4.66-6.68-8.36-14.75-2.23-12.41-2.2-21.45.35-3.28,12.54-16.25,13-19.94,1.51-1.22-5.19,3.59-10.53,7.36-10.53.94-2.93,1-8.26.76-12.88-.3-6.88-.37-8.89-1-9-5.07-1-8-7.8-5.18-13.71,3.64-7.75,13.6-8.65,18,1.18v.19c1.46,2.3,10.18,4.87,23.46,1.4-5.25-6.94-.9-15.73,10.48-8.92l10.26-10.27L75.53,133.29,70,138.73c-2.25-2.25-4.68-4.4-7-6.64l-2.85,2.57,6.93,6.64-7.6,7.35L52.7,142.3l-3,3.11,6.88,6.38-7.79,7.73-15.24-14c5.84-5.84,11.39-11.71,17.26-17.64,3.63-3.37-.9-6.32-2.85-4.84L29.14,141.38,14.59,127.89,22.64,120l6.09,5.92,3-3.13c-2.11-2.11-4.17-3.43-6.14-5.4l7.59-7.76,6.23,5.79L42,112.9l-6.09-6c1.69-1.94,3.58-3.67,5.23-5.65-1.75-1.75-3.28-3.58-4.89-5.19-1.14-2,.33-4.23,1.71-6a7.49,7.49,0,0,1,4.75-3c1.76-.2,3.13,1.55,3.54,1.94l70,64.24c23.1-21.49,45.85-44.38,68.43-66.45,2.94-1,5.41,1.17,7.2,3.51,2.3,3,2.07,4.51.95,6L189,100.46l5.35,5.61-6.16,6.24,3.35,3.38,6.29-6.06c2.31,2.31,4.51,4.62,6.54,6.65l-6.17,6.34,3.36,3c.89-.89,6-5.79,6.16-5.79l6.84,6.62L201,140c-1.54-1.14-13.11-13.82-18-18.22-2.54-2.29-6.08,2.75-4.88,4.24l18.17,18.35L182,158.16l-7.43-7.6,6.75-6.45L179,141.47l-6.9,6.46-7.63-7.72,6.82-6.5ZM148.21,212c1.29-2.54,1.93-15.86.07-18.94,4.47,3.1,15.21,2.36,20.79.62A51.21,51.21,0,0,0,169.4,211c-8.18-2.07-14.83-1.59-21.19,1.08ZM63,211.11c.42-1,1.86-16.08,0-18,3,.58,16.56,2.09,20.65-.28-.33,1.76-1.87,14.07.47,17.65-.09.09-.28.19-.47.38A45.57,45.57,0,0,0,63,211.11Z"/><path class="cls-4" d="M52.43,217.08a5.6,5.6,0,1,1-5.6,5.6A5.6,5.6,0,0,1,52.43,217.08Z"/><path class="cls-4" d="M94.22,216.36a5.6,5.6,0,1,1-5.6,5.6A5.6,5.6,0,0,1,94.22,216.36Z"/><path class="cls-4" d="M137.74,216.88a5.6,5.6,0,1,1-5.6,5.6A5.6,5.6,0,0,1,137.74,216.88Z"/><path class="cls-4" d="M178.78,217.65a5.6,5.6,0,1,1-5.6,5.6A5.6,5.6,0,0,1,178.78,217.65Z"/><path class="cls-4" d="M119.47,155.49l3,3.07a1.19,1.19,0,0,0,1.69,0l65.75-63.91a1.2,1.2,0,0,0,0-1.7L187,89.92a1.2,1.2,0,0,0-1.69,0L119.51,153.8A1.21,1.21,0,0,0,119.47,155.49Z"/><path class="cls-4" d="M132.36,173.53l-2.85,3.15a1.2,1.2,0,0,1-1.69.09L39.05,95.16A1.2,1.2,0,0,1,39,93.47l2.85-3.16a1.2,1.2,0,0,1,1.69-.08l88.78,81.61A1.21,1.21,0,0,1,132.36,173.53Z"/><path class="cls-4" d="M43.18,103.14l-3.71,4,6.09,6-6.37,6.37-6.27-6.22-3.56,3.54,6.42,6.1L29,129.83l-6.5-6.14-3.72,3.81,10.57,9.86c3.44-3.08,13.89-14.23,18.27-17.33,3.9-2.75,10,4.62,6.17,8.68L37.64,145.06l11,10.43,3.82-3.73-7-6.8,6.93-6.63,6.83,6.81,3.5-3.89-7.13-6.53,6.8-6.59,7.26,6.74,3.44-3.54S43.37,102.93,43.18,103.14Z"/><path class="cls-4" d="M187.89,102.41l3.56,3.62-6.39,6.64,6.37,6.37,6.43-6.45,3.64,3.72-6.32,6.37,6.23,6,6.16-6.21,3.62,3.9-10,10.2-15.65-15.49c-1.19-.72-2.36-1.92-3.59-2.17a5.35,5.35,0,0,0-3.35.64,5.05,5.05,0,0,0-2.4,1.93c-1.56,3.53-.68,4.69.68,6.75l16.23,16.22-10.94,10.31-3.32-3.48,6.58-6.46-6.81-7.2-6.72,6.48-3.5-3.44,6.57-6.42-6.46-6.92-7.14,6.49-3.44-3.54S187.69,102.21,187.89,102.41Z"/><path class="cls-4" d="M99.16,174.71l3,3.07a1.21,1.21,0,0,0,1.7,0l8.32-8.42a1.43,1.43,0,0,0,0-2.15l-2.74-2.81a1.2,1.2,0,0,0-1.7,0L99.3,173A1.22,1.22,0,0,0,99.16,174.71Z"/><path class="cls-4" d="M53.2,176.5a5.6,5.6,0,1,1-5.6,5.6A5.6,5.6,0,0,1,53.2,176.5Z"/><path class="cls-4" d="M179.25,176.86a5.6,5.6,0,1,1-5.6,5.6A5.6,5.6,0,0,1,179.25,176.86Z"/><path class="cls-4" d="M129.79,181.64l7.14-7.55c1.61-1.7,4.11-2,5.55-.61h0c1.44,1.36,1.31,3.87-.3,5.57L135,186.6c-1.61,1.7-4.11,2-5.55.62h0C128.05,185.85,128.18,183.35,129.79,181.64Z"/><path class="cls-4" d="M101.14,180.88,93.37,174c-1.76-1.55-4.27-1.61-5.59-.12h0c-1.31,1.48-1,4,.8,5.52l7.77,6.9c1.76,1.55,4.27,1.61,5.58.12h0C103.25,184.92,102.89,182.43,101.14,180.88Z"/><path class="cls-4" d="M54.68,202.3a26.47,26.47,0,0,0-.58-6.41c-.66-2.82-1.56-4.65-.7-5.09s2.58-.38,3.94,1.33c2.82,3.56,3.55,16-.13,20.56-1,1.21-1.37,2.09-3.37,1.44-1.17-.38-.25-2.66.3-5.62A42.38,42.38,0,0,0,54.68,202.3Z"/><path class="cls-4" d="M140.86,201.92a28.59,28.59,0,0,0-.58-6.66c-.66-2.93-1.56-4.83-.7-5.28s2.58-.4,3.94,1.38c2.82,3.7,3.55,16.64-.13,21.36-1,1.25-1.37,2.17-3.37,1.49-1.17-.39-.25-2.75.3-5.83A45.77,45.77,0,0,0,140.86,201.92Z"/><path class="cls-4" d="M91,201.58a28.59,28.59,0,0,1,.58-6.66c.66-2.93,1.56-4.83.71-5.28s-2.59-.4-3.95,1.38c-2.82,3.7-3.55,16.64.13,21.36,1,1.25,1.37,2.17,3.37,1.49,1.17-.39.25-2.75-.29-5.83A44.25,44.25,0,0,1,91,201.58Z"/><path class="cls-4" d="M176.32,202.49a28.54,28.54,0,0,1,.58-6.66c.66-2.93,1.56-4.83.71-5.29s-2.59-.39-4,1.39c-2.82,3.69-3.55,16.63.13,21.35,1,1.26,1.37,2.17,3.38,1.5,1.16-.4.24-2.76-.3-5.84A44.23,44.23,0,0,1,176.32,202.49Z"/><path class="cls-4" d="M74.15,185.9a28.54,28.54,0,0,1-6.66-.58c-2.93-.66-4.83-1.56-5.29-.71s-.39,2.59,1.39,3.95c3.69,2.82,16.63,3.55,21.35-.13,1.26-1,2.17-1.37,1.5-3.37-.4-1.17-2.76-.25-5.84.29A44.23,44.23,0,0,1,74.15,185.9Z"/><path class="cls-4" d="M157.38,186.59a28.64,28.64,0,0,1-6.65-.7c-2.92-.7-4.81-1.64-5.28-.79s-.43,2.58,1.33,4c3.64,2.88,16.57,3.82,21.35.22,1.27-1,2.19-1.33,1.55-3.35-.38-1.17-2.75-.29-5.84.2A45.27,45.27,0,0,1,157.38,186.59Z"/><path class="cls-4" d="M73,217.75a28.59,28.59,0,0,0-6.66.58c-2.93.66-4.83,1.56-5.29.7s-.39-2.58,1.39-3.94c3.7-2.82,16.63-3.55,21.36.13,1.25,1,2.17,1.37,1.49,3.37-.39,1.17-2.76.25-5.84-.3A45.49,45.49,0,0,0,73,217.75Z"/><path class="cls-4" d="M159.13,217.84a28.59,28.59,0,0,0-6.66.58c-2.93.66-4.83,1.56-5.29.71s-.39-2.59,1.39-3.95c3.7-2.82,16.64-3.55,21.36.13,1.25,1,2.17,1.37,1.49,3.38-.39,1.17-2.76.24-5.84-.3A45.41,45.41,0,0,0,159.13,217.84Z"/><path class="cls-1" d="M113.53,100.58c1,.36,1.25.8,2.57.8.84,0,1.38-.87,2-1a14.22,14.22,0,0,1,4.06,0c.91.3.72.29.23.76a9.43,9.43,0,0,1-6.49,2.52,10.67,10.67,0,0,1-6.25-2.29c-.54-.49-.48-.56.14-.79A6.87,6.87,0,0,1,113.53,100.58Z"/><path class="cls-1" d="M115.06,123.8l-1.24,2-.47.7c-1.53,1.3.73,4.51,1.43,3.58l.82-1.1c.77-1.13,1.1-1.44.47-2.63C115.85,125.92,115.91,122.44,115.06,123.8Z"/><path class="cls-1" d="M116.86,117.5c-.16,2.88.3,4.13.71,6.74.24,1.53.12,3.47,1.11,4.69.47.58,1.1.74,1.39-.36a10.13,10.13,0,0,0,.17-2.61c.6-.3,1.52,2.84,3.39,1.51.21-.15.56-.15.68-.37.36-.63.22-.5-.27-1.12-.65-.81-1.81-1.62-1.93-1.82-1.31-1.44-1.16-.74-2-2.41-.49-1-1.2-2.37-1.55-3.25S117,115.71,116.86,117.5Z"/><path class="cls-3" d="M215.92,381.93v-3.36h5l-4.75-14.75-.22.62V355h1l12.6,34H224.5l-2.31-7.07Zm0-26.89v9.4l-5,14.13h5v3.36h-6.18L207.28,389h-5.12l13.59-34Zm-46.11,34V355.5h.06V389Zm0-61.45v-3.36h5L170,309.44l-.22.62v-9.4h1l12.6,34h-5.06l-2.31-7.07Zm29.06,29.18-1.53,3.91q-2.19-1.61-6.89-1.6a8.25,8.25,0,0,0-7.07,3.79,16.67,16.67,0,0,0-2.66,9.79,14.7,14.7,0,0,0,2.73,9.27,8.45,8.45,0,0,0,7,3.56,8.53,8.53,0,0,0,7.24-3.34l2.52,3.5a13.9,13.9,0,0,1-10.24,4,12.48,12.48,0,0,1-10.32-4.73q-3.76-4.74-3.77-12.49a19.14,19.14,0,0,1,4-12.46,12.75,12.75,0,0,1,10.39-5Q195.79,354.93,198.87,356.73Zm-29.06-56.07v9.4l-5,14.13h5v3.36h-6.18l-2.46,7.07h-5.12l13.59-34Zm0,54.84V389H165.3V355.5Zm-52,33.5v-3.71a8.65,8.65,0,0,0,4.85-1.56q2-1.62,2-5.14a5.9,5.9,0,0,0-1.89-4.82,8.48,8.48,0,0,0-4.94-1.51v-3.41c3.35-.38,5-2.11,5-5.21,0-2.85-1.67-4.38-5-4.62v-3.81a11.61,11.61,0,0,1,6.88,2.13,7.31,7.31,0,0,1,2.71,6.12,6.2,6.2,0,0,1-1.73,4.24,7.38,7.38,0,0,1-3.84,2.41,10.4,10.4,0,0,1,5.79,3.17,9.31,9.31,0,0,1,1.81,6.05,8.62,8.62,0,0,1-3.22,7,12.94,12.94,0,0,1-8.4,2.63Zm0-54.38v-33.5h4.12v33.5Zm33.4.46-17.29-24.49v24h-4.35v-33.5h1.84l16.83,23.16V301.12h4.34v34Zm5.11,54.38L139,365v24h-4.34V355.5h1.83l16.83,23.16V355.5h4.34v34Zm-81.4-86L73,307.22a11.35,11.35,0,0,0-6.76-2.56,10.15,10.15,0,0,0-8.3,3.71c-2,2.46-3,5.74-3,9.81a14,14,0,0,0,3,9.35A10,10,0,0,0,66,331.07a8.11,8.11,0,0,0,5.91-2.19V321H67.28v-3.89h9.2v14.59a13.67,13.67,0,0,1-5.09,2.5,22.49,22.49,0,0,1-6.35.95c-4.61,0-8.26-1.56-10.92-4.7s-4-7.3-4-12.5,1.47-9.39,4.4-12.61,6.89-4.83,11.86-4.83a12.41,12.41,0,0,1,8.52,2.9Zm42.89-2.33v33.5h-.45v-33.5Zm0,54.09V359q-.45,0-.93,0c-1.52,0-2.89.06-4.1.17v9.62c1,.1,2.16.14,3.57.14a13.61,13.61,0,0,0,1.46-.07v3.41c-.43,0-.88,0-1.35,0l-3.68.11v12.78c1.58.15,2.78.23,3.61.23.5,0,1,0,1.42,0V389h-9.59V355.5c4.06-.2,7-.3,8.79-.3ZM40.49,375.72V370.6a8,8,0,0,0,3.65-1.2Q46,368.08,46,364.67a4.37,4.37,0,0,0-2-4.05,8.77,8.77,0,0,0-3.51-1.07v-4.34q10.32.66,10.32,9.55a9.11,9.11,0,0,1-1.94,5.68,8,8,0,0,1-4.62,3.14L54,389H48.73l-8.24-13.28Zm68-41.1-4-21.52-7.3,22H96.1l-7.51-22L84.7,334.62H80.37l6.25-33.5H88.7l8,24.44L104,301.12h2l6.79,33.5ZM56.24,389v-1.14l14.39-28.25H56.47V355.5H76.91v1.14L62.48,384.88H77.42V389Zm31.45-29.39v9.31h11v3.89h-11v12.07h15.17V389H83.12V355.5h20v4.11Zm-47.2-4.4v4.34a22.13,22.13,0,0,0-2.84-.17c-.45,0-1.35.08-2.69.23V370.5a23.48,23.48,0,0,0,3.2.22,20.81,20.81,0,0,0,2.33-.12v5.12l-.69-1.11c-1,0-2.63-.08-4.84-.22V389H30.39V355.5l3.55-.17c2.21-.12,3.81-.18,4.81-.18q.9,0,1.74.06Zm-25.28,4.4V389H10.64V359.61H0V355.5H26.33v4.11Z"/></svg>