<?xml version="1.0" encoding="utf-8"?>
<!-- Generator: Adobe Illustrator 25.2.1, SVG Export Plug-In . SVG Version: 6.00 Build 0)  -->
<svg version="1.1" id="Warstwa_1" xmlns="http://www.w3.org/2000/svg" xmlns:xlink="http://www.w3.org/1999/xlink" x="0px" y="0px"
	 viewBox="0 0 653.9 214.2" style="enable-background:new 0 0 653.9 214.2;" xml:space="preserve">
<style type="text/css">
	.st0{fill:#4C4C4C;}
	.st1{fill-rule:evenodd;clip-rule:evenodd;fill:#4C4C4C;}
</style>
<g>
	<path class="st0" d="M250.1,16.4l-3.8,7.5c-4.6-3.4-9-5.1-13.4-5.1c-6.9,0-12.4,2.4-16.5,7.4c-4,4.9-6,11.4-6,19.5
		c0,7.7,2,13.9,5.9,18.5c3.9,4.7,9.3,7,16.1,7c4.8,0,8.8-1.5,11.7-4.3V51.3H235v-7.7h18.3v28.9c-2.4,2.1-5.8,3.7-10.1,5
		c-4.3,1.3-8.5,1.9-12.6,1.9c-9.1,0-16.4-3.1-21.7-9.3c-5.3-6.2-8-14.5-8-24.8c0-10.3,2.9-18.6,8.7-25c5.8-6.4,13.7-9.6,23.6-9.6
		C240.2,10.7,245.8,12.6,250.1,16.4L250.1,16.4z M316.9,78.2L309,35.5l-14.5,43.6h-2.3l-14.9-43.6l-7.7,42.7H261l12.4-66.4h4.1
		l15.8,48.5L308,11.8h4.1l13.5,66.4H316.9L316.9,78.2z M334.4,78.2V11.8h9.1v66.4H334.4L334.4,78.2z M401.6,79.1l-34.3-48.6v47.7
		h-8.6V11.8h3.6l33.4,45.9V11.8h8.6v67.3H401.6L401.6,79.1z M455.6,78.2l-4.6-14h-24.7l-4.9,14h-10.2l27-67.3h2.4l25,67.3H455.6
		L455.6,78.2z M439,28.3l-10.3,29.3h19.7L439,28.3L439,28.3z M228.3,127.8V186h-9.1v-58.3h-21.1v-8.2h52.3v8.2H228.3L228.3,127.8z
		 M294.9,186l-17.7-28.5c-2,0-5.2-0.2-9.6-0.4v29h-9.1v-66.4c0.3,0,2.7-0.1,7-0.3c4.4-0.2,7.6-0.3,9.5-0.3c16,0,23.9,6.3,23.9,19.1
		c0,4.2-1.3,7.9-3.9,11.3c-2.6,3.3-5.6,5.4-9.2,6.2l19.3,30.6H294.9L294.9,186z M267.5,127.8v21.6c2.2,0.3,4.3,0.4,6.3,0.4
		c5.4,0,9.4-0.9,11.9-2.6c2.5-1.7,3.7-4.9,3.7-9.4c0-3.7-1.3-6.4-4-8c-2.7-1.6-6.9-2.4-12.6-2.4C272,127.3,270.2,127.5,267.5,127.8
		L267.5,127.8z M309.8,186v-2.3l28.6-56h-28.1v-8.2h40.6v2.3l-28.6,56h29.7v8.2H309.8L309.8,186z M372.2,127.8v18.5h21.9v7.7h-21.9
		v23.9h30.1v8.2h-39.2v-66.4h39.7v8.2H372.2L372.2,127.8z M431.9,186h-19v-66.4c8.1-0.4,13.9-0.6,17.5-0.6c6.6,0,11.6,1.4,15.2,4.2
		c3.6,2.8,5.4,6.9,5.4,12.1c0,3.1-1.1,5.9-3.4,8.4c-2.3,2.6-4.8,4.1-7.6,4.8c5.2,1.3,9.1,3.4,11.5,6.3c2.4,2.9,3.6,6.9,3.6,12
		c0,5.8-2.1,10.5-6.4,14C444.3,184.3,438.7,186,431.9,186L431.9,186z M422,126.9v19.1c1.9,0.2,4.3,0.3,7.1,0.3
		c8.6,0,12.9-3.5,12.9-10.5c0-6.1-3.9-9.2-11.8-9.2C427.1,126.5,424.4,126.7,422,126.9L422,126.9z M422,153v25.4
		c3.1,0.3,5.5,0.4,7.2,0.4c5.7,0,9.8-1.1,12.4-3.2c2.6-2.1,3.9-5.5,3.9-10.2c0-4.3-1.3-7.5-3.7-9.6c-2.5-2.1-6.7-3.1-12.5-3.1
		L422,153L422,153z M508.4,186.9l-34.3-48.6V186h-8.6v-66.4h3.6l33.4,45.9v-45.9h8.6v67.3H508.4L508.4,186.9z M526.3,186v-66.4h9.1
		V186H526.3L526.3,186z M593,122.1l-3,7.8c-2.9-2.1-7.5-3.2-13.7-3.2c-5.8,0-10.5,2.5-14,7.5c-3.5,5-5.3,11.5-5.3,19.4
		c0,7.6,1.8,13.7,5.4,18.4c3.6,4.7,8.3,7.1,14,7.1c6.2,0,11-2.2,14.4-6.6l5,6.9c-5.3,5.2-12,7.8-20.3,7.8c-8.7,0-15.5-3.1-20.5-9.4
		c-5-6.3-7.5-14.5-7.5-24.8c0-9.9,2.7-18.2,8-24.7c5.3-6.6,12.2-9.8,20.6-9.8C583.2,118.5,588.9,119.7,593,122.1L593,122.1z
		 M643.8,186l-4.6-14h-24.7l-4.9,14h-10.2l27-67.3h2.4l25,67.3H643.8L643.8,186z M627.2,136.1L617,165.4h19.7L627.2,136.1z"/>
	<g>
		<path class="st1" d="M85.2,214.2l2.1-2.8l2.5-1.7l43.6-16.8c14.3-4.5,35.7-21.2,37.7-51.6v-36.6V0H0v104.7v36.6
			c2,30.4,23.3,47.1,37.7,51.6l43.2,16.8l2.8,2L85.2,214.2L85.2,214.2z M85.6,205.8l-5.4-3.7l-39.5-13.8
			c-13.4-4.2-33.4-20.1-35.3-48.9v-34.7V5.4h160.3v99.3v34.7c-1.9,28.8-21.8,44.7-35.3,48.9l-39.8,14.1L85.6,205.8z"/>
		<g>
			<path class="st1" d="M108.9,86l0.2-0.1c0,0,0,0,0,0.1c-1.6,0.2,0.2,1.3-3.9,3.2c-1.3-0.3-1.3-0.3-1.6-0.1
				c-0.3,0.2-0.6,0.4-0.8,0.9c-0.7,1.1-1,1.3-1.2,2.6c-0.2,1-0.2,1.6-1.4,1.4c-1.8-0.3-1.6,2.6-4.4,2.5c-2.8-0.1-0.8-0.1-1.8-0.1
				c-1,0-2.1,1.6-3.3,1.5c-0.7,0-2-0.5-3.2-0.3c-0.6,0.1-1,0.8-1.5,0.8c-1.3,0-2.3-0.7-2.9-1c-0.9-0.4-2.7,0.3-3.8,0.2
				c-2.6-0.2-4.8-1-5.7-3.1c-1.9-4.5-1.2-3.2-4.3-3.1c-1.4,0-3.6-3.3-3.6-4.5c0,0-0.1-0.1-0.1-0.1c0,0,0,0,0,0c0,0,0.1,0,0.1,0.1
				c-10.7-6.9-17.7-19-17.7-32.6c0-21.4,17.4-38.8,38.8-38.8c21.4,0,38.8,17.4,38.8,38.8C125.5,67.6,119.2,79,108.9,86L108.9,86z
				 M87.1,87.6c-0.1,2.1,0.2,3.1,0.5,5c0.2,1.1,0.1,2.6,0.8,3.5c0.3,0.4,0.8,0.6,1-0.3c0.3-1.1,0.1-1.9,0.1-1.9
				c0.4-0.2,1.1,2.1,2.5,1.1c0.2-0.1,0.4-0.1,0.5-0.3c0.3-0.5,0.2-0.4-0.2-0.8c-0.5-0.6-1.3-1.2-1.4-1.4c-1-1.1-0.9-0.5-1.5-1.8
				c-0.4-0.7-0.9-1.8-1.2-2.4C88.1,87.6,87.2,86.3,87.1,87.6L87.1,87.6z M85.8,92.3l-0.9,1.5l-0.3,0.5c-1.1,1,0.5,3.4,1.1,2.7
				l0.6-0.8c0.6-0.8,0.8-1.1,0.4-2C86.4,93.9,86.4,91.3,85.8,92.3L85.8,92.3z M107.4,85.6c1.4,0,1.6-2.5,1.6-3.7
				c-0.1-5.7-1.6-9.3-1.9-9.1c-0.5,0.3-0.9,2-1.8,2.9c0,0.1,0,0.3,0,0.4c0.4,0.4,1.1,4,1.2,4.5c0.1,0.4-0.2,1.4-0.1,1.9
				C106.5,84.1,106.9,85.2,107.4,85.6L107.4,85.6z M96.2,89.4c0.3-1.9-0.7-4.2-1.5-5.5c-1-1.8-2.7-2.5-3.1-2.4
				c0,0.4,0.4,1.8,0.9,2.9C93.5,86.8,95.2,89.4,96.2,89.4L96.2,89.4z M100.8,79.5c-0.9,0,0.2,2.1,1.5,4c0.7,1,0.9,1.8,1.7,3.7
				c0.2,0.6,1.6,0,1.8-0.9c0-0.2,0.1-1.1-0.4-3.1c-0.3-1.2-0.3-4.6-1.1-5.8c-0.7-1-1.9-1.6-1.9-1.6c-0.2,0-0.1,1.3,0.4,2.4
				c0.7,1.6,1.5,3.1-1.4,1.3C101.2,79.5,101,79.5,100.8,79.5L100.8,79.5z M99.3,92.3c0.8,0.3,0.6,0.3,0.8-0.3
				c0.4-1.1,0.6-2.4-0.4-3.4c-0.2-0.3-0.5-1.5-1.2-2.3c-1.2-1.3-2.8-2.2-2.5-1.3c0.1,0.3,0.4,0.6,0.5,0.9c1.1,2,0,3.6,1.2,5.3
				c0.4,0.6,0.8,0.6,1.3,1.1C99.2,92.2,99.2,92.2,99.3,92.3L99.3,92.3z M91.9,77.2c-1.9,3.4,6.3,6,8,8.5c0.3,0.4,0.9,1.8,1.5,2.5
				c0.2,0.2,0.3,0.5,0.6,0.2c0.7-0.8,0.4-3.7-1.8-5.4c-0.5-0.4-0.9-1.2-1.3-1.5c-0.5-0.4-1.6-0.5-2-0.8c-0.7-0.5-1.4-2.1-2.3-3.1
				C92.3,75.2,92.7,76.9,91.9,77.2L91.9,77.2z M90.6,80.8c0-0.7-0.4-2.1-1.2-2.4c-0.5-0.2-1.1,0-1.4,0.1c-0.6,0.2-1.2,0.7-1.2,1.2
				c-0.1,5.6,5.2,12.2,7.8,13.5c1.4,0.7,1.6,1.3,1.7,1.3c0.5,0,1.5-1,0.7-2.5c-0.3-0.6-1.4-1-1.8-1.6c-0.9-1.3-2.4-2.4-3.2-3.6
				c-0.9-1.3-1.1-2.7-1.3-3.3C90.6,83.1,90.6,81.9,90.6,80.8L90.6,80.8z M57.4,69.5c1.5,1.5,2.7,1.6,3.9,1c1.3-0.7,2.8-2.4,4.2-2.6
				c0,0-0.5-0.2-0.7-1.1c-0.2-0.9-0.2-2-0.3-2.1c-0.2-0.1-1.3,1.2-2.8,1.5c-1.6,0.3-3.2,1.4-3.5,1.7C57.6,68.4,57.4,69.2,57.4,69.5
				L57.4,69.5z M61.1,75.2c1.1-0.3,1.5-0.1,2.3-0.6c1.1-0.7,2.2-2.8,3.4-4c0.2-0.2,0-1.4-0.1-1.5c-0.8-1-3.8,1.8-4.7,3.1
				c-0.3,0.4-0.9,1.3-1.4,1.8c-0.3,0.3-0.2,0.8,0.1,1C60.7,75.1,61.1,75.2,61.1,75.2L61.1,75.2z M62.5,76.8c0,0.2,0.4,0.6,0.9,0.8
				c0.3,0.1,0.5-0.1,0.8,0c1.1,0.2,1.5-0.7,2.3-2c1.2-1.9,2.7-1.8,1.5-3.1c-0.4-0.4,0.1-1.7-0.8-0.9c-0.7,0.7-1.4,2.2-1.9,2.6
				C64.1,75.2,62.5,76.2,62.5,76.8L62.5,76.8z M69.3,89.2c-0.4,0.6,0.1,1.1,0.9,0.8c2.1-0.6,2.2-2.1,2.7-4.2
				c0.4-1.9,1.7-2.8,2.6-3.6c2.3-2.3,0.5-1.6-1.4-0.6c-1,0.5-2,0.8-2.6,0.9c-0.4,0.1-1.1,0.5-1.2,1.5C70.3,85.1,69.9,88.1,69.3,89.2
				L69.3,89.2z M67.9,88.3c0.4,0.6,0.5,0.9,0.8,0c0.5-1.9,0.4-6.8,0.6-7.9c0.2-1.3,0.9-2.5,0.7-3.7c-0.2-1.1-0.2-1.9-0.8-2.1
				c-0.4-0.1-1.4,1.9-2.4,4.3c-0.4,1-1.4,2.8-0.3,6.1C66.8,85.9,67,87,67.9,88.3L67.9,88.3z M84.1,78.7c-1.8,0.1-3.7,3.3-4.3,4.7
				c-0.2,0.5-0.2,1-0.5,1.6c-0.7,1.5-2,3.8-2,6.2c0,1.9-1.1,2.2-1.4,3.4c-0.2,0.6,0,0.7,0.6,0.6c1.2-0.1,1.7-1.5,2.5-2.3
				c0.7-0.7,2.3-2.8,2.7-3.7c1.8-4.3-1.6-1.7,2-8.6C84.2,79.8,84.7,78.6,84.1,78.7L84.1,78.7z M79.1,82.3c0.2-0.2,3.2-4.1,1.6-3.7
				c-2.6,0.7-2.6,1.8-3.8,4.2c-0.3,0.5-1.3,1-1.5,1.6c-0.4,1-1.5,3.7-1.9,5.5c-0.1,0.3,0.5,2.2,1,3.3c0.3,0.7,0.4,1.2,0.9,0.3
				c0.4-0.7,0.4-1.8,0.8-3.3c0.1-0.3,1.1-2.5,2-4.7C78.6,84.4,78.3,83.3,79.1,82.3L79.1,82.3z M85.9,79.7c-0.1-3.2-2.1,5.5-2.3,6.5
				c-0.2,1.5-0.4,3.5-1.4,4.4c-0.6,0.5-1.3,1.9-2.1,3.3c-0.3,0.6-1.2,1.1-1.7,1.6c-0.7,0.6-0.5,0.7,0.1,0.9c0.8,0.3,2,0.1,2.6-0.2
				c2.2-1.1,3.8-3.8,4-4.9c0.1-0.4,0.9-0.7,1.1-1.7c0.4-2-0.8-4-0.6-6C85.7,82.6,85.9,81.4,85.9,79.7L85.9,79.7z M84.7,75
				c-0.5-0.2-1.8-0.3-2.8,0c-0.5,0.2-0.5,0.2-0.1,0.6c0.7,0.6,2.5,1.7,4.7,1.7c1.5,0,3.5-0.6,4.8-1.9c0.4-0.4,0.5-0.3-0.2-0.6
				c-0.7-0.2-2.6-0.1-3,0c-0.5,0.1-0.9,0.7-1.5,0.7C85.6,75.6,85.4,75.2,84.7,75L84.7,75z M84.3,69.6c0.1,0-0.2-0.6-0.3-1.2
				c-0.1-0.7,0-1.3,0-1.6c-0.8,0-1.5-0.1-1.8,0.3C81.6,68,81.9,69.6,84.3,69.6L84.3,69.6z M89.7,69.2c1.9,0.4,3.2-1.2,1.9-2.2
				c-0.4-0.3-1-0.3-1.8-0.3C90,67.9,90,68.2,89.7,69.2L89.7,69.2z M84.9,73.3c-0.2,0.4-0.2,0.4,0.2,0.6c0.9,0.5,1.7,0.2,2.6,0
				c0.5-0.1,0.5-0.1,0.3-0.6c-0.3-0.6-1.2-1.3-1.6-1.2C85.4,72.3,85.2,72.7,84.9,73.3L84.9,73.3z M76.1,75.5
				c0.7,0.2,8.2-2.2,8.2-4.2c-0.6-0.6-2.7-0.5-3.4,0c-0.4,0.2-0.9,0.5-1.2,0.8C78.6,73.2,76.8,74.4,76.1,75.5L76.1,75.5z M88.7,70.4
				c-1.7,2.2,4.5,2.9,5,2.7c1.3-0.5,1,0.3,2.9,1.1c2.1,0.9,2.3,2.4,3.7,3.8c0.8,0.8,0.6,0,0.5-0.7c-0.1-1-0.4-2-0.7-2.5
				c-0.5-1-0.8-1.1-1.2-1.6c-1-1.4-3-1.9-5-2.3c-0.1,0-0.6-0.3-0.8-0.3c-0.9-0.1-2-0.1-3-0.1C89.8,70.3,88.9,70.2,88.7,70.4
				L88.7,70.4z M71.1,77.5c0.4,0.4,2.2-1,2.3-1.1c1.3-1,2.8-2.9,4.1-3.9c0.7-0.5,3.6-1.7,1.1-1.7c-1.5,0-3,0.6-4.2,1.4
				C71.6,74.2,71.1,74.9,71.1,77.5L71.1,77.5z M99.9,80.5c-0.1-0.3-0.9-2.3-1.5-3.3c-1.1-1.7-2.9-3-4.4-3.2
				c-0.7-0.1-1.7-0.4-2.3,0.1c0,0.4,1.1,0.7,2.2,1.5c0.4,0.3,0.7,0.9,1.1,1.2C96.3,77.6,97,80.5,99.9,80.5L99.9,80.5z M80.6,76.1
				c-0.2-0.5-1.1-0.4-1.8-0.2c-1.8,0.4-3,0.4-4,0.8c-2.9,1.1-5.2,3.9-3.7,4.8c0.3,0.2,1-0.9,1.8-0.8c1.3,0.2,2.7-0.9,3.9-2
				C78.9,76.7,81.4,77.8,80.6,76.1L80.6,76.1z M101,53.5c-4.2-0.6-11.3-2.8-11.3,3.5c0.1,0.1,0.1,0.1,0.1,0.1
				c6.5-4.4,8.1-2.8,13.6-0.4c0.1-0.1,0.1-0.1,0.1-0.1C104.3,54.5,105.1,54.2,101,53.5L101,53.5z M98.6,55.9c-0.2,0-0.2-0.1-1.3-0.3
				c1.8,3.7-3.1,4-1.8,0l-1.3,0.3C93.4,60.4,99.6,61.2,98.6,55.9L98.6,55.9z M108.8,58.8c0.2,0,0.4,0,0.6,0c2.1-2.1,3.6-6.2,1.1-9.8
				c-0.9-1.3-1.9-2.5-2.9-3.7c-1.1-1.2-1.9-1.5-1.9-1c0,1.2,0.9,5.5,1.8,6C110.8,52.1,107.9,57.3,108.8,58.8L108.8,58.8z M94.2,59.5
				c-0.4-0.6-0.7-1.5-0.7-2c0-0.4,0-1,0-1.5c-1.2,0.3-2.6,1.8-2.4,1.9C91.2,57.9,92.5,59.5,94.2,59.5L94.2,59.5z M98.7,59.5
				c1-0.3,3.4-1,3.5-2c-0.6-0.6-2-1.5-2.9-1.5C100.1,56.9,99.1,59.4,98.7,59.5L98.7,59.5z M106.1,60.6c0.2,0,1-0.1,1.4-1.3
				c0.8-2.8,0.7-7.9-1.4-8c0,3.4-0.6,6-1.5,9.2C105,61,106.1,60.6,106.1,60.6L106.1,60.6z M110.4,66.1c0.2,0.2,0.8,0.5,1.1,1.1
				c0.3,0.6,0.4,0.9,0.6,1.2c0.4,0.7,0.2-0.1,0.8-2.2c0.2-0.7,0.5-0.8,0.7-1.4c0.3-1.1,0.4-2.7,0.4-2.7c0.1-0.5-0.7-4.7-1.3-4.7
				c-0.6,0.6-1.3,4.6-1.6,6.8C110.9,65.2,110.4,65.7,110.4,66.1L110.4,66.1z M106.8,67.6c0.3,0,0.6,0,0.8,0c1.4-1.4,2.8-4.9,2.8-8
				c-0.2,0-1.7,0.7-1.8,0.7c-1.4,1.4-1.3,2.8-2.5,4.1C104.9,65.7,105.8,66.6,106.8,67.6L106.8,67.6z M110.6,70.3
				c-0.3-2.4-0.4-3.4-1-3.5c-0.6-0.2,0.1,1.4-1.4,2.7c-0.8,0.7-1.5,0.8,0.5,3.6C110.3,75.1,111.1,74.2,110.6,70.3L110.6,70.3z
				 M102.4,58.9c-3.3,1.9-5.5,2.7-10.2,0.9c0.2,1.6,2.5,2.8,2.5,3.9c0,0-0.1,0-0.1,0c-0.9-0.3-4-3.2-4.1-3.3
				c-0.2-0.2-0.4,0.3-0.4,0.4c-0.1,2.8-0.1,4.2,0.5,4.7c0.2,0.2,1,0.2,1.6,0.5c0.5,0.3,0.8,1.2,0.8,1.9c0,0.6-0.2,1.1-0.1,1.1
				c1.9,0.2,5.4,1.7,6.8,3.1c0.5,0.5,0.9,1.2,1,1.2c0,0,0.1-0.1,0.1-0.1c0,0,0.1-0.1,0.1-0.1c-0.2-0.3,0.4-2.2,0.4-2.4
				c0.2-0.7,2.5-3.3,2.9-5.1c0.8-3.4,0.1-5.1-1.2-2.4c-0.1,0.1-0.2,0.4-0.3,0.5c-0.4,0.5-0.7,0.3-0.5-0.5
				C102.4,62.3,104.1,58,102.4,58.9L102.4,58.9z M103.4,75c0.7,0.2,1.3-0.5,1.8-1.3c0.4-0.8,0.7-1.9,0.8-2.6c0.1-1.1,0.3-4-0.9-4
				c-1.5,2.1-1.8,2.3-2.3,4.1C102.5,71.8,102.3,74.9,103.4,75L103.4,75z M78.3,55.8c1.2,0.4,2.1,1,3.1,1.6c0.6,0.4,1.1,1,2,1
				c0-1.3,0-1.2-0.2-2.9c0-0.4-0.4-1.3-0.9-1.3c-0.5-0.1-0.8-0.1-1.4-0.2c-1.8-0.3-3.7-0.9-4.5-1.1c-2.9-0.8-11.1,1.6-7.7,5
				C71.2,56.6,72.7,53.9,78.3,55.8L78.3,55.8z M73.5,56.8c-0.5,4,4,5.1,4.5,0.3l-1.4-0.4c0.6,3.4-3.1,3-2-0.3
				C73.9,56.6,74.1,56.5,73.5,56.8L73.5,56.8z M79,57.3c0.3,0.9-0.4,2.5-0.7,2.6c0.5,0.5,2.4,0.1,3-0.9C80.6,58.1,80,57.5,79,57.3
				L79,57.3z M73.5,60.1c-0.6-0.8-1.2-1.9-0.7-3.1c-0.8,0.2-2.3,1.2-2.9,1.7c0,0.2,0.7,0.5,1.3,0.8C72,59.8,72.8,60.1,73.5,60.1
				L73.5,60.1z M67.9,64.1c-0.3,0.5-1.5-1.5-1.6-2c-0.1-0.2-0.6-0.2-0.7,0.2c-0.1,1,0.4,3.5,0.9,4.6c0.5,1.1,1.4,2,1.8,3.1
				c0.2,0.4,1.4,3.5,1.6,3.5c0.1,0,0.4,0.4,0.6,0.4c0.3,0,0.7-0.3,0.8-0.3c0.2,0,1.4-1.9,2.4-2.7c0.5-0.3,0.7-0.6,2.1-1
				c1.4-0.4,3.2-0.5,4.1-0.4c0.3,0,1-0.2,0.9-0.4c-0.8-3.9,2.2-3.6,2.5-3.4c0.1,0,0.2,0,0.2-0.1c0.3-0.6,0.7-4.6,0.4-4.7
				c-0.3-0.1-1.1-0.1-1.3,0c-0.6,0.2-0.7,0.9-1.4,1.4c-0.9,0.7-1.9,1.3-2.6,1.8c-0.3,0.2-0.5-0.2-0.2-0.6c0.2-0.4,0.8-0.9,1.3-1.1
				c1.3-0.7,2.1-2.4,1.7-1.9c-1,1.2-8.3,2.3-13-1.1c-0.2-0.1-2.1-1.7-2.1-0.4c0,0.2,0,1.6,0.5,2.9C67.2,63,68.1,63.9,67.9,64.1
				L67.9,64.1z M57,63.2c0.2,2.7,4.3-1.6,3.5-3.7c-0.2-0.4,0.3-1.1,0.3-1.6c-0.2-2-0.5-3.9-0.6-5.4c0-1.3,0.5-3.6-1.2-1.6
				C56.5,53.4,59.1,61.1,57,63.2L57,63.2z M61.9,56.6c1.2-1.5,1.8-2.5,1.5-4.3c-0.2-1.2-0.3-2.2-0.3-3.7c0.1-2.7,0.6-5.2,0.5-5.5
				c-0.2-0.4-1.8,4.7-2,4.8c-0.8,0.9-0.8,2.5-0.6,3.7C61.2,52.2,61.1,57.6,61.9,56.6L61.9,56.6z M64.3,55.8c-0.5-1.6-0.3-1.3-1-0.2
				c-0.4,0.7-0.7,1.6-0.8,2c-0.3,1.1-1,1.4-1,1.6c0,0.2,0.3,0.8,0.3,1c0,0.2,0,0.3-0.1,0.5c-0.3,1.8-2.1,2.7-2.1,4.5
				c2,0.3,3.5-0.8,4.1-2c0.8-1.7,1.1-4.4,0.7-6.8C64.4,56.2,64.4,56.1,64.3,55.8L64.3,55.8z M94.7,30.6c-0.6-0.2-1.6-0.5-2.4-0.6
				c-1-0.1-1-0.1-0.4,0.6c0.1,0.2,0.3,0.3,0.3,0.4c0.3,0.3,1,0.9,1.6,1.4c0.9,0.6,1.9,1.1,1.9,1.1c0.5,0.3,1.9,0.7,2.2,0.9
				c2.1,1.2,1.6,0.7,2.9,2.3c0.2,0.3,0.7,0.8,1.1,1.2c1.1,1,1.4,1.1,0.8-0.2C101,34.2,98.8,32.1,94.7,30.6L94.7,30.6z M86.8,31.8
				c0.9,0.4,2,0.9,2.9,1.4c2.2,1,3.7,2.3,5.7,3.1c0.9,0.3,2,0.6,2.8,0.8c0.4,0.1,1.1,0.3,1.7,0.4c1.4,0.3,0.1-0.5,0.1-0.8
				c-1.3-1.4-3.4-1.7-5.2-2.5c-1.8-0.8-3.1-2.1-4.4-3.3c-1.8-1.7-6.8-3.2-8.7-2.3C79.6,29.7,86.4,31.7,86.8,31.8L86.8,31.8z
				 M78.7,32.1c4.9,1.1,6.6,1.6,11.4,3.6c3,1.2,7.9,3.1,0.1-1.3c-0.8-0.5-2.1-0.8-3-1.2c-1.6-0.8-3.1-1.7-4.2-2.1
				c-3.3-1.2-6-0.7-7.3-0.1c-1.3,0.6-1,0.7-0.2,0.7c0.1,0,0.3,0,0.4,0C76.7,31.7,77.7,31.8,78.7,32.1L78.7,32.1z M67.4,49.1
				C67.4,49.1,67.4,49.1,67.4,49.1L67.4,49.1L67.4,49.1z M65.7,53.5c0.6,0.2-0.2-4.7,2.3-4.6c0.7,0-0.5,1.3-0.6,2.5
				c0,0.7-0.1,1.2-0.1,1.9c0.3,0.3,2.1-0.6,2.3-0.7c4.3-2.1,5.5-1.1,9.7,0c1.9,0.5,3.5,0.4,4.5-0.2c0.8-0.5,1.6-1.2,1.8-0.1
				c0.1,0.4-0.1,0.5-0.4,0.8c-0.9,0.9-0.3,3.5-0.2,6.5c0.1,3.3-0.1,7-0.1,9.1c0.6,1.4,3.6,1.1,3.9-0.1c0.2-1.3-2.3-12.6,0.9-15.5
				c3.9-3.4,8.9-0.3,12.3-0.1c2.7,0.1,1.2-3.1,0-4.9c-0.4-0.5,0.3-0.7,0.7,0c2.4,3.8,1.9,0.3,1-3.1c-1.2-4.6-2.6-5.8-6.5-6.3
				c-4.5-0.5-4.9-0.5-9-2.5c-2.5-1.2-3.2-1.5-4.7-2c-3.9-1.4-9.2-1-9.9-0.8C66.6,35.4,62.6,47.1,65.7,53.5L65.7,53.5z M86.7,17.8
				c-19.9,0-36.1,16.2-36.1,36.1c0,11.4,5.3,21.6,13.6,28.2c0.2,0.2,0.5,0.4,0.7,0.5l-0.2-1l0-1.1l0.6-1.9c-2.1,0.6-2.7,0.4-3.2-0.4
				c-0.3-0.4-0.4-1.2-1-1.7c-0.4-0.4-1.2-0.1-1.7-0.4c-0.4-0.3-0.7-0.7-0.6-1.4c0.1-0.7,0.9-1.4,1.4-2.2c-2.4-1.2-6.3-2.5-3.1-5.4
				l1.7-1c-0.6-0.2-1.4-0.1-1.9-0.5c-0.5-0.4-1-0.9-1.1-1.7c-0.1-0.7,0.5-1.4,0.6-2.4c0.1-1,0-2.2-0.1-3.3l0.4-2.7
				c0-4.4,1.2-5.9,2.7-6.7c0.4-0.2,0.4-0.5,0.7-0.9c0.3-0.4,1.1-3.9,1.4-4.4c0.5-0.8,2-2.5,2.5-3.1c3.6-5,1.2-3.8,5.7-7.1
				c0.9-0.6,2.7-2.5,3.5-3.1c1.4-1.1,2.5-1.3,4.8-1.6c0.5-0.1,1.2-0.1,1.9-0.4c3.3-1.6,7.4-0.8,11.6,0.3c1.4,0.4,3.2,0.6,4.5,1
				c0.8,0.2,1.9,0.9,2.6,1.3c0.7,0.4,0.9,0.6,1.4,1.1c0.5,0.5,0.8,1,1.3,1.7c1.8,2.4,2.2,4.4,3.4,6.2c0.8,1.2,2.6,3.9,3.6,4.8
				c2.4,2.3,3.4,3.1,4.6,7.6c0,3,0.7,4.4,1.9,6.6c1.7,2.9-1,8.9-2,11.6l-1.9,5l-0.8,1l-0.3,1.8l0.2,3.2c7.2-5.9,12.8-16.4,12.8-27.5
				C122.8,34,106.6,17.8,86.7,17.8z"/>
		</g>
		<path class="st1" d="M130.2,129.9c0.4-0.2,0.8-0.4,1.3-0.6c6.3-2.2,10.5,2.6,9.4,7.6c-0.5,2.1-2.8,4.9-5.4,6.2
			c-0.4,1.7-1.8,14.2-0.1,15.8c0,0,0,0.1,0,0.1c1.6,2,4.3,1.3,5.1,5.8c1.3,7.4-5.3,10-10.3,8.3v-4c0.8,0.8,1.9,1.4,3.1,1.4
			c2.3,0,4.2-1.9,4.2-4.2c0-2.3-1.9-4.2-4.2-4.2c-1.2,0-2.3,0.5-3.1,1.4v-3.8c0.4,0.5,0.9,0.7,1.9,0.3c0.9-0.3,0.2-2.1-0.2-4.4
			c-0.2-1.4-0.4-3.1-0.4-4.8c0-1.8,0.1-3.6,0.4-5c0.5-2.2,1.2-3.6,0.5-3.9c-0.6-0.3-1.4-0.3-2.2,0.3v-4c0.8,1.1,2,1.8,3.5,1.8
			c2.3,0,4.2-1.9,4.2-4.2c0-2.3-1.9-4.2-4.2-4.2c-1.4,0-2.7,0.7-3.5,1.8V129.9L130.2,129.9z M130.2,72c2.5-2.5,5-4.9,7.5-7.3
			c2.2-0.8,4,0.9,5.4,2.6c1.7,2.2,1.5,3.4,0.7,4.4l-2.8,3.2l4,4.2l-4.6,4.7l2.5,2.5l4.7-4.5c1.7,1.7,3.4,3.4,4.9,5l-4.6,4.7l2.5,2.3
			c0.7-0.7,4.4-4.3,4.6-4.3l5.1,4.9l-10.2,10c-1.1-0.9-9.8-10.3-13.4-13.6c-1.9-1.7-4.5,2-3.6,3.2l13.5,13.7l-10.6,10.3l-5.5-5.6
			v-0.1l5-4.8l-1.7-2l-3.3,3.1v-3.1l3-2.9l5.1,5.4l-4.9,4.8l2.5,2.6l8.2-7.7l-12.1-12.1c-1-1.5-1.7-2.4-0.5-5
			c0.3-0.6,1.1-1.1,1.8-1.4c0.7-0.3,1.6-0.7,2.5-0.5c0.9,0.2,1.8,1.1,2.7,1.6l11.7,11.5l7.5-7.6l-2.7-2.9l-4.6,4.6l-4.6-4.5l4.7-4.8
			l-2.7-2.8l-4.8,4.8L138,84l4.8-4.9l-2.7-2.7c-0.1-0.1-4.8,4.3-9.9,9.1v-3.8l11.4-11c0.4-0.3,0.4-0.9,0-1.3l-2.2-2.3
			c-0.3-0.4-0.9-0.4-1.3,0l-7.9,7.7V72L130.2,72z M130.2,100.3l0.2-0.2l-0.2-0.3V100.3z M127.9,132.4c0.5-0.9,1.1-1.8,2.4-2.5v3.8
			c-0.5,0.7-0.7,1.5-0.7,2.3c0,0.9,0.3,1.7,0.7,2.3v4c-0.2,0.2-0.5,0.4-0.7,0.7c-0.8,1.1-1.4,3.1-1.6,5.5V132.4L127.9,132.4z
			 M130.2,173.2c-0.3-0.1-0.6-0.2-0.9-0.3c-0.2-0.1-0.9-0.6-1.5-1.3v-8.6c0.2-0.6,0.2-1,0-1.4v-7.8c0.2,2.1,0.8,4.1,1.7,5.3
			c0.2,0.3,0.4,0.6,0.6,0.8v3.8c-0.7,0.7-1.1,1.7-1.1,2.8s0.4,2.1,1.1,2.8V173.2L130.2,173.2z M127.9,74.3l2.4-2.3v2.7l-2.4,2.3
			V74.3L127.9,74.3z M130.2,112.3L130.2,112.3v-0.1V112.3L130.2,112.3z M130.2,108.5l-1.9,1.7l-0.5-0.5v-2.7l0.3,0.3l2.1-2V108.5
			L130.2,108.5z M130.2,81.6v3.8l-2.4,2.2v-3.7L130.2,81.6L130.2,81.6z M130.2,99.8v0.5l-2.4,2.3v-5.3L130.2,99.8z M127.7,99.7
			l-1.8-1.8l-5.3,4.7l-1.9-2v-2.4l1.5,1.6l5.3-4.8l2.2,2.4v5.3l-2.3,2.3l2.3,2.3v2.7l-5.2-5.3L127.7,99.7L127.7,99.7z M118.8,137
			c3.4,0,6.4-0.4,7.2-0.9c0,0,0-0.1,0-0.1c0.9-1,1.2-2.3,1.9-3.5v16.2c-0.2,1.7-0.2,3.5,0,5.2v7.8c-0.2-0.4-0.6-0.7-1.1-1.1
			c-1.7-1.3-4.8-1.9-7.9-1.9v-2.3c2.3,0,4.8,0.3,7.5,1c-0.8-4.1-0.9-8.1-0.2-12.9c-1.9,0.6-4.6,1-7.3,1.1v-2.7
			c2.6-0.1,5.1-0.6,6.6-1.7c0.9-0.7,1.6-1,1.2-2.5c-0.3-0.9-2.1-0.2-4.4,0.2c-1,0.2-2.2,0.3-3.4,0.3V137L118.8,137z M127.9,171.6
			c-0.5-0.5-0.9-1.1-1.3-1.7c-1-1.7-1.2-3.7-1.1-4.4c-2.3-0.4-4.6-0.6-6.7-0.5v-2.4c1.7,0,3.4,0.2,4.7,0.4c2.3,0.4,4.1,1.1,4.4,0.2
			l0-0.1V171.6L127.9,171.6z M118.8,83.3c3-3,6.1-6,9.1-8.9V77l-9.1,8.8V83.3L118.8,83.3z M127.9,83.9l-9.1,8.8v3.4
			c1.7-1.6,5.3-5,9.1-8.5V83.9z M118.8,100.5l-2.3-2.4l-8,7.6v-3.1l10.3-10v3.4l-1,1l1,1.1V100.5L118.8,100.5z M108.5,127
			c1.8,1.5,2.5,4,0,7.5V127L108.5,127z M108.5,134.8c0.6,0.4,2.9,1.5,5.6,1.9c1.5,0.2,3.1,0.3,4.6,0.3v2.1c-0.5,0-0.9,0-1.4,0
			c-1.8,0-3.6-0.2-5-0.5c-2.1-0.5-3.4-1.2-3.9-0.7V134.8L108.5,134.8z M118.8,164.9c-3.1,0.1-5.9,0.7-8.2,1.4c-0.5,1.6-1.2,2.9-2,4
			v-15.9c0.4-2.3,0.4-5,0-7.2v-7.2c0.2,0.4,0.5,0.7,0.9,1.1c1.6,1.3,5.6,2,9.3,1.9v2.7c-3.2,0.1-6.4-0.3-8.2-1.6
			c1.4,2.3,0.9,12.2-0.1,14.1c2.6-1.1,5.3-1.7,8.3-1.8v2.3c-3.3,0-6.6,0.7-8,1.8c-1.3,1-1.4,2.2-1,2.9c0.3,0.6,1.8,0,3.9-0.5
			c1.4-0.3,3.2-0.5,5-0.4l0.1,0V164.9L118.8,164.9z M108.5,93.3v2.5l10.3-10v-2.6C115.4,86.6,112,90,108.5,93.3z M108.5,105.8
			l-2.2,2.1v-3l2.2-2.2V105.8L108.5,105.8z M106.3,125.9c0.8,0.2,1.6,0.6,2.2,1.1v7.5c-0.1,0.1-0.1,0.2-0.2,0.2c0,0,0.1,0.1,0.2,0.2
			v3.1c0,0,0,0.1-0.1,0.1c-0.3,0.5-0.3,1.2,0.1,1.9v7.2c-0.3-1.9-0.8-3.5-1.5-4.4c-0.2-0.3-0.5-0.5-0.7-0.7v-8.8
			c0.9-1.2,0.9-2.8,0-3.8V125.9L106.3,125.9z M108.5,170.3c-0.7,0.8-1.4,1.5-2.2,2V168c0.4-0.6,0.6-1.3,0.6-2.1
			c0-0.8-0.2-1.5-0.6-2.1v-4.4c0.2-0.2,0.4-0.5,0.6-0.8c0.8-1,1.3-2.5,1.6-4.3V170.3L108.5,170.3z M106.3,95.5
			c0.7-0.7,1.5-1.4,2.2-2.2v2.5l-2.2,2.2V95.5z M106.3,107.9l-8.9,8.5v-2.9l8.9-8.7V107.9L106.3,107.9z M97.4,123.7l3.7,3.2
			c1.1-1.3,3.3-1.6,5.3-1.1v3.5l-0.1-0.1l0,0c-1.1-1-2.9-0.8-4.1,0.5l-4.7,5v-4l1.3-1.5c0.3-0.4,0.3-0.9-0.1-1.3l-1.3-1.2V123.7
			L97.4,123.7z M106.3,172.2V168c-0.7,1.2-2.1,2.1-3.6,2.1c-2.3,0-4.2-1.9-4.2-4.2c0-2.3,1.9-4.2,4.2-4.2c1.5,0,2.9,0.8,3.6,2.1
			v-4.4c-0.4,0.5-0.9,0.7-1.9,0.3c-0.9-0.3-0.2-2.1,0.2-4.4c0.2-1.4,0.4-3.1,0.4-4.8c0-1.8-0.1-3.6-0.4-5c-0.5-2.2-1.2-3.6-0.5-3.9
			c0.6-0.3,1.4-0.3,2.2,0.3v-8.8c-0.1,0.1-0.2,0.2-0.3,0.3l-5.3,5.6c-0.9,1-2.3,1.3-3.3,1v2.7c1.4-0.1,4-0.6,4.1-0.6
			c0.7,2.9,1.8,12,0.5,15.7c-1.5,0.3-3.2,1.3-4.6,2.7v10.6C99.7,173.8,103.3,174.1,106.3,172.2L106.3,172.2z M97.4,104.1v2.5
			l8.9-8.7v-2.5C103.3,98.4,100.4,101.3,97.4,104.1z M97.4,116.4l-4,3.8l4,3.5v3.2l-18.5-17v-2.9l7.8,7.1c3.6-3.3,7.2-6.7,10.7-10.1
			v2.5l-8.3,8c-0.4,0.3-0.4,0.9,0,1.3l2.2,2.3c0.3,0.4,0.9,0.4,1.3,0l4.8-4.7V116.4L97.4,116.4z M97.4,171.3
			c-1.1-1.2-1.9-2.9-2.1-5.1c-0.2-2.2,0.7-4.1,2.1-5.6V171.3L97.4,171.3z M97.4,142.8v-2.7c-0.3-0.1-0.6-0.3-0.8-0.5l0,0
			c-1.1-1-1-2.9,0.2-4.2l0.6-0.6v-4l-0.8,0.9c-0.3,0.4-0.9,0.4-1.3,0.1l-16.4-15.1v3.1l0.7,0.7l-0.7,0.7v2.9l1.5-1.5
			c0.3-0.3,0.9-0.3,1.3,0l2,2.1c0.3,0.4,0.6,1,0,1.6l-4.8,4.9v9.7c1.1-1.3,0.8-3.6,0.1-6.4l7.2-7.1l7.6,6.6
			c-2.5,6.6-0.2,8.5,2.9,8.9C96.8,142.9,97.1,142.9,97.4,142.8z M78.9,140.8c-0.7,0.8-1.8,1.2-3.7,1.2v-2.5c0.3-0.1,0.6-0.3,0.8-0.6
			l0,0c1-1.1,0.7-3-0.6-4.1l-0.3-0.2v-3.1l1,1.1c0.3,0.3,0.9,0.4,1.3,0l1.4-1.4V140.8L78.9,140.8z M75.2,159.9
			c0.6,0.5,1.2,1.2,1.6,2.3c1.3,3.3,0.9,7.3-1.6,9.2V159.9L75.2,159.9z M75.2,124.9l3.7-3.7v2.9l-3.7,3.8V124.9L75.2,124.9z
			 M78.9,119.7l-3.7-3.4v-3.1l3.7,3.4V119.7L78.9,119.7z M75.2,103.7l3.7,3.4v2.9l-3.7-3.4V103.7z M75.2,142c-0.7,0-1.6-0.1-2.6-0.2
			c-2.5,1.8-2.1,14.1-1.3,15.9c1.2,1.2,2.6,1.3,3.9,2.3v11.5c-1.6,1.2-4.1,1.6-7.5,0.5c-0.4-0.1-0.8-0.3-1.1-0.5v-4
			c0.7,1.3,2.1,2.2,3.7,2.2c2.3,0,4.2-1.9,4.2-4.2c0-2.3-1.9-4.2-4.2-4.2c-1.6,0-3,0.9-3.7,2.2v-4.4c0.4,0.5,0.9,0.7,1.9,0.3
			c0.9-0.3,0.2-2.1-0.2-4.4c-0.2-1.4-0.4-3.1-0.4-4.8c0-1.8,0.1-3.6,0.4-5c0.5-2.2,1.2-3.6,0.5-3.9c-0.6-0.3-1.4-0.3-2.2,0.3v-7.5
			l5.3,4.7c1,0.9,2.3,1.1,3.3,0.7V142L75.2,142z M66.6,126.2v2.7c1-0.3,2.2,0,3.1,0.8l5.5,4.9v-3.1l-1.2-1.2
			c-0.3-0.3-0.2-0.9,0.1-1.3l1.1-1.1v-3l-3.2,3.2C69.8,126.8,68,126.2,66.6,126.2L66.6,126.2z M75.2,116.4l-8.6-7.8v-3.3l8.6,7.9
			V116.4L75.2,116.4z M66.6,95.8v2.8l8.6,7.9v-2.8L66.6,95.8z M66.6,171.4c-0.9-0.6-1.6-1.4-2.2-2.3v-15c0.3,1.7,0.8,3.2,1.6,4.2
			c0.2,0.3,0.4,0.6,0.6,0.8v4.4c-0.3,0.6-0.5,1.2-0.5,1.9c0,0.7,0.2,1.4,0.5,1.9V171.4L66.6,171.4z M64.3,126.8
			c0.6-0.3,1.3-0.5,2.2-0.5v2.7c-0.4,0.1-0.8,0.4-1.1,0.7l0,0c-1,1.1-0.7,3,0.6,4.1l0.5,0.4v7.5c-0.2,0.2-0.5,0.4-0.7,0.7
			c-0.7,0.9-1.2,2.5-1.5,4.4v-7.2c0.3-0.4,0.4-0.8,0.1-1.7c0-0.1-0.1-0.1-0.1-0.2V126.8L64.3,126.8z M66.6,108.6l-2.2-2v-3.3l2.2,2
			V108.6L66.6,108.6z M64.3,93.8l2.2,2v2.8l-2.2-2V93.8z M64.3,169.1c-0.6-1-1.1-2.2-1.7-3.4c-4.1-0.6-6.5-1-8.1-1.2v-2.2
			c1.7,0,3.4,0.2,4.7,0.4c2.3,0.4,4.1,1.1,4.4,0.2c0.5-1.5-0.2-1.8-1.1-2.5c-1.7-1.3-4.8-1.9-7.9-1.9v-2.2c2.8-0.1,5.6,0.2,7.8,0.8
			c0.1-0.1,0.3-0.2,0.3-0.3c-1.7-2.7-0.6-11.8-0.3-13.2c-1.5,0.9-4.7,1-7.8,0.9v-2.3c3.4,0.1,7-0.4,8.8-1.8c0.4-0.3,0.8-0.6,1-0.8
			v7.2c-0.4,2.3-0.4,5,0,7.3V169.1L64.3,169.1z M54.5,136c2.7,0.1,5.9-0.3,9.7-1.3c-2.3-3.1-2.1-6.6,0.2-8v11
			c-0.5-0.6-2.1,0-4.2,0.4c-1.4,0.2-3.1,0.4-4.8,0.4c-0.3,0-0.5,0-0.8,0V136L54.5,136z M64.3,106.6l-8-7.2l-1.8,1.8V98l0.1-0.1
			l-0.1-0.1v-3.6l9.8,9V106.6L64.3,106.6z M54.5,84.7v2.8l9.8,9v-2.8L54.5,84.7z M54.5,164.5c-2.7-0.2-3.7,0.2-7.8,1.4
			c-0.9,3.3-2.6,5.4-4.6,6.5V169c0.8-0.8,1.2-1.8,1.2-3c0-1.2-0.5-2.2-1.2-3v-3.7c0.2-0.2,0.4-0.5,0.6-0.8
			c2.7-3.4,2.2-12.7,0.1-15.3c-0.2-0.3-0.5-0.5-0.7-0.7v-3.3c1.1-0.8,1.8-2,1.8-3.4s-0.7-2.7-1.8-3.4v-3.7c1.8,0.7,3.5,2.3,4.6,4.9
			c0,0,0,0.1,0,0.1c0.7,1.1,3.5,2.2,7.8,2.3v2.6c-1.5,0-3-0.2-4.2-0.4c-2.2-0.5-3.6-1.2-3.9-0.5c-0.4,0.7-0.3,1.9,1,2.9
			c1.3,1,4.1,1.6,7.1,1.8v2.3c-3.3-0.1-6.4-0.5-7.6-0.7c1.4,1.5,0.3,12.7,0,13.4c2.3-0.6,4.9-0.9,7.6-1v2.2c-3.3,0-6.6,0.7-8,1.8
			c-1.3,1-1.4,2.2-1,2.9c0.3,0.6,1.8,0,3.9-0.5c1.4-0.3,3.2-0.5,5-0.4l0.1,0V164.5L54.5,164.5z M54.5,101.2l-2.3,2.3
			c-1.7-1.7-3.5-3.3-5.2-5l-2.1,1.9l5.2,4.9l-5.7,5.5l-2.4-2.2V106l2.2,2.2l2.6-2.9l-4.8-4.4v-1l4.5-4.4l5.4,5l2.5-2.6V101.2
			L54.5,101.2z M42,113l0.2,0.2l-0.2,0.2V113L42,113z M42,73.3l12.5,11.4v2.8L42,76.1V73.3L42,73.3z M54.5,94.3L42,82.8V86
			c5.7,5.4,11.8,11.2,12.5,11.8V94.3z M42,172.4c-3.8,2-8.5,0.2-10.3-5.4c-0.9-3.9,2.7-7.9,5.5-7.9c0.7-2.2,0.7-6.2,0.6-9.6
			c-0.2-5.1-0.3-6.6-0.7-6.7c-3.8-0.7-5.9-5.8-3.9-10.2c1.8-3.7,5.5-5.3,8.8-4v3.7c-0.7-0.5-1.5-0.7-2.4-0.7c-2.3,0-4.2,1.9-4.2,4.2
			c0,2.3,1.9,4.2,4.2,4.2c0.9,0,1.7-0.3,2.4-0.7v3.3c-0.8-0.6-1.7-0.6-2.2-0.3c-0.6,0.3,0,1.7,0.5,3.8c0.3,1.3,0.5,3.1,0.4,4.8
			c0,1.6-0.2,3.3-0.4,4.6c-0.4,2.2-1.1,3.9-0.2,4.2c1,0.3,1.5,0.1,1.9-0.3v3.7c-0.8-0.8-1.8-1.2-2.9-1.2c-2.3,0-4.2,1.9-4.2,4.2
			c0,2.3,1.9,4.2,4.2,4.2c1.1,0,2.2-0.5,2.9-1.2V172.4L42,172.4z M42,108.6l-2.7-2.5l-2.2,2.3l5,4.6v0.3l-5.6,5.6L25,108.5
			c4.4-4.4,8.5-8.7,12.9-13.2c2.7-2.5-0.7-4.7-2.1-3.6l-14.1,13.7L10.9,95.3l6-5.9l4.5,4.4l2.2-2.3c-1.6-1.6-3.1-2.6-4.6-4l5.7-5.8
			l4.6,4.3l1.9-1.9l-4.5-4.5c1.3-1.4,2.7-2.7,3.9-4.2c-1.3-1.3-2.4-2.7-3.6-3.9c-0.8-1.5,0.2-3.2,1.3-4.4c0.7-0.9,2-2.1,3.5-2.3
			c1.3-0.1,2.3,1.2,2.6,1.4l7.6,7v2.8l-9.6-8.8c-0.4-0.3-0.9-0.3-1.3,0.1l-2.1,2.4c-0.3,0.4-0.3,0.9,0.1,1.3L42,82.8V86
			c-5.1-4.8-9.8-9.2-9.8-9.1l-2.8,3l4.5,4.5l-4.8,4.8l-4.7-4.6l-2.7,2.6l4.8,4.5l-5.1,5.1l-4.9-4.6L14,95l7.9,7.4
			c2.6-2.3,10.4-10.6,13.6-12.9c2.9-2.1,7.5,3.4,4.6,6.5l-12,12.2l8.2,7.8l2.9-2.8l-5.2-5.1l5.2-4.9L42,106V108.6L42,108.6z
			 M42,99.9l-0.5,0.5l0.5,0.5V99.9z"/>
	</g>
</g>
</svg>
