<svg id="Warstwa_1" data-name="Warstwa 1" xmlns="http://www.w3.org/2000/svg" viewBox="0 0 403.49 188.38"><defs><style>.cls-1,.cls-4{fill:#0072bb;}.cls-2,.cls-3{fill:#d9d800;}.cls-3,.cls-4{fill-rule:evenodd;}</style></defs><path class="cls-1" d="M27.27,176H26.08v-1.93h1.19V172l2.4-.87v3h2.82V176H29.67v4.48a2.63,2.63,0,0,0,.34,1.55,1.43,1.43,0,0,0,1.21.45,2.93,2.93,0,0,0,1.61-.47v2.22a7.75,7.75,0,0,1-2.38.28,3.1,3.1,0,0,1-2.36-.86,3.44,3.44,0,0,1-.82-2.47Z"/><path class="cls-1" d="M40.09,176.35a2.53,2.53,0,0,0-1.41-.42,1.89,1.89,0,0,0-1.47.76,2.74,2.74,0,0,0-.65,1.84v5.84h-2.4V174.11h2.4v.95a3.38,3.38,0,0,1,2.67-1.13,3.8,3.8,0,0,1,1.87.37Z"/><path class="cls-1" d="M41.75,184.37v-.82l5.59-7.35H41.86v-2.09h9V175l-5.38,7.34h5.44v2.08Z"/><path class="cls-1" d="M61.34,180H54a2.65,2.65,0,0,0,.84,1.91,3.07,3.07,0,0,0,2.09.68,3.4,3.4,0,0,0,2.48-.84l.92,1.82a5.85,5.85,0,0,1-3.75,1,5,5,0,0,1-3.7-1.37,5.22,5.22,0,0,1-1.35-3.83A5.3,5.3,0,0,1,53,175.43a5.24,5.24,0,0,1,7.15-.18,4.57,4.57,0,0,1,1.35,3.39A6.9,6.9,0,0,1,61.34,180Zm-7.21-1.79h5a2.24,2.24,0,0,0-2.48-2.24A2.46,2.46,0,0,0,54.13,178.17Z"/><path class="cls-1" d="M64.81,183.8l-.54.75H62.91V170.31l2.4-.58v4.78a4,4,0,0,1,2.1-.58,4.84,4.84,0,0,1,3.64,1.42A5,5,0,0,1,72.43,179,5.74,5.74,0,0,1,71,183.06a4.9,4.9,0,0,1-3.77,1.49A4,4,0,0,1,64.81,183.8Zm.5-7.24v5.34a1.79,1.79,0,0,0,1.44.62,3.18,3.18,0,0,0,2.48-.82,3.94,3.94,0,0,0,.72-2.63q0-3.1-3-3.11A2.14,2.14,0,0,0,65.31,176.56Z"/><path class="cls-1" d="M80.61,184.37v-5.92a3,3,0,0,0-.5-1.92,2,2,0,0,0-1.64-.6,2.51,2.51,0,0,0-1.12.3,2.59,2.59,0,0,0-.93.73v7.41H74V174.11h1.72l.44,1a3.59,3.59,0,0,1,2.89-1.14A3.8,3.8,0,0,1,82,175,4.2,4.2,0,0,1,83,178.08v6.29Z"/><path class="cls-1" d="M85.42,184.37v-8.31H84.1v-1.95h3.75v10.26Zm1.25-14.21a1.32,1.32,0,0,1,1,.4,1.38,1.38,0,0,1,0,2,1.32,1.32,0,0,1-1,.4,1.38,1.38,0,0,1,0-2.76Z"/><path class="cls-1" d="M98.13,174.93l-1,1.79a3.19,3.19,0,0,0-2.26-.79,2.71,2.71,0,0,0-2.15.9,3.66,3.66,0,0,0-.79,2.5q0,3.22,3.08,3.22a3.48,3.48,0,0,0,2.34-.87l.88,1.87a5.78,5.78,0,0,1-1.82.83,8.29,8.29,0,0,1-1.84.17,5,5,0,0,1-3.74-1.38,5.19,5.19,0,0,1-1.38-3.84,5.27,5.27,0,0,1,1.5-3.91,5.54,5.54,0,0,1,4.1-1.49A5,5,0,0,1,98.13,174.93Z"/><path class="cls-1" d="M105.27,183.35a2.37,2.37,0,0,1-1.13.87,4.43,4.43,0,0,1-1.69.33,3.8,3.8,0,0,1-2.59-.82,3,3,0,0,1-1-2.35,3.27,3.27,0,0,1,1.33-2.78,6.16,6.16,0,0,1,3.78-1,5,5,0,0,1,1,.13c0-1.19-.75-1.79-2.27-1.79a5,5,0,0,0-2.25.45l-.51-1.85a6.65,6.65,0,0,1,2.94-.6,4.76,4.76,0,0,1,3.43,1.06c.73.71,1.09,2.06,1.09,4v2.19c0,1.36.28,2.22.82,2.57a1.22,1.22,0,0,1-.66.64,2.64,2.64,0,0,1-.83.12,1.29,1.29,0,0,1-.93-.38A1.81,1.81,0,0,1,105.27,183.35Zm-.24-3.81a5.38,5.38,0,0,0-.91-.13c-1.87,0-2.81.62-2.81,1.86,0,.93.53,1.39,1.59,1.39A1.9,1.9,0,0,0,105,180.5Z"/><path class="cls-1" d="M109.8,183.11a1.68,1.68,0,0,1,.5-1.22,1.71,1.71,0,0,1,1.23-.5,1.68,1.68,0,0,1,1.22.5,1.64,1.64,0,0,1,.5,1.22,1.71,1.71,0,0,1-1.72,1.73,1.71,1.71,0,0,1-1.73-1.73Z"/><path class="cls-1" d="M118,184.11v4.27h-2.4V174.11H118v.69a3.07,3.07,0,0,1,2.22-.87c3.27,0,4.9,1.79,4.9,5.39a5.28,5.28,0,0,1-1.35,3.88,5,5,0,0,1-3.71,1.35A4.67,4.67,0,0,1,118,184.11Zm0-7.49V182a2.38,2.38,0,0,0,1.53.52,3.15,3.15,0,0,0,2.39-.78,4.77,4.77,0,0,0,0-5,3.19,3.19,0,0,0-2.38-.74A2.14,2.14,0,0,0,118,176.62Z"/><path class="cls-1" d="M126.93,170.31l2.4-.58v11.52c0,1.26.38,2,1.13,2.26a2,2,0,0,1-1.9,1c-1.09,0-1.63-.75-1.63-2.25Z"/><path class="cls-2" d="M141.75,188.38V169.92h2v18.46Z"/><path class="cls-1" d="M161.3,172.1a4.26,4.26,0,0,0-1.2-.26,1.43,1.43,0,0,0-1.15.59,2.16,2.16,0,0,0-.47,1.43v.25h2.13v1.95h-2.08v8.31h-2.4v-8.31h-1.5v-1.95h1.5a4.69,4.69,0,0,1,1.11-3,3.46,3.46,0,0,1,2.69-1.15,7.31,7.31,0,0,1,2.08.37Z"/><path class="cls-1" d="M167.5,183.35a2.37,2.37,0,0,1-1.13.87,4.41,4.41,0,0,1-1.68.33,3.82,3.82,0,0,1-2.6-.82,3,3,0,0,1-1-2.35,3.3,3.3,0,0,1,1.33-2.78,6.18,6.18,0,0,1,3.78-1,5,5,0,0,1,1,.13c0-1.19-.76-1.79-2.28-1.79a5.07,5.07,0,0,0-2.25.45l-.51-1.85a6.65,6.65,0,0,1,2.94-.6,4.75,4.75,0,0,1,3.43,1.06c.73.71,1.09,2.06,1.09,4v2.19c0,1.36.28,2.22.83,2.57a1.29,1.29,0,0,1-.66.64,2.7,2.7,0,0,1-.84.12,1.29,1.29,0,0,1-.93-.38A1.89,1.89,0,0,1,167.5,183.35Zm-.24-3.81a5.25,5.25,0,0,0-.91-.13c-1.87,0-2.81.62-2.81,1.86,0,.93.53,1.39,1.59,1.39a1.9,1.9,0,0,0,2.13-2.16Z"/><path class="cls-1" d="M179.78,174.93l-1,1.79a3.19,3.19,0,0,0-2.26-.79,2.73,2.73,0,0,0-2.15.9,3.71,3.71,0,0,0-.79,2.5q0,3.22,3.08,3.22a3.51,3.51,0,0,0,2.35-.87l.88,1.87a5.92,5.92,0,0,1-1.83.83,8.29,8.29,0,0,1-1.84.17,5,5,0,0,1-3.74-1.38,5.92,5.92,0,0,1,.13-7.75,5.52,5.52,0,0,1,4.09-1.49A5,5,0,0,1,179.78,174.93Z"/><path class="cls-1" d="M190.12,180h-7.31a2.6,2.6,0,0,0,.83,1.91,3.07,3.07,0,0,0,2.09.68,3.4,3.4,0,0,0,2.48-.84l.92,1.82a5.85,5.85,0,0,1-3.75,1,5,5,0,0,1-3.7-1.37,5.22,5.22,0,0,1-1.35-3.83,5.3,5.3,0,0,1,1.49-3.92,5.24,5.24,0,0,1,7.15-.18,4.57,4.57,0,0,1,1.35,3.39A6.9,6.9,0,0,1,190.12,180Zm-7.21-1.79h5a2.24,2.24,0,0,0-2.48-2.24A2.46,2.46,0,0,0,182.91,178.17Z"/><path class="cls-1" d="M193.59,183.8l-.54.75h-1.36V170.31l2.4-.58v4.78a4,4,0,0,1,2.1-.58,4.84,4.84,0,0,1,3.64,1.42,5,5,0,0,1,1.38,3.64,5.74,5.74,0,0,1-1.39,4.07,4.9,4.9,0,0,1-3.77,1.49A4,4,0,0,1,193.59,183.8Zm.5-7.24v5.34a1.79,1.79,0,0,0,1.44.62,3.18,3.18,0,0,0,2.48-.82,3.94,3.94,0,0,0,.72-2.63q0-3.1-3-3.11A2.14,2.14,0,0,0,194.09,176.56Z"/><path class="cls-1" d="M202.22,179.22a5.42,5.42,0,0,1,1.35-3.82,5.22,5.22,0,0,1,7.2-.06,6.44,6.44,0,0,1,0,7.77,5.23,5.23,0,0,1-7.22,0A5.62,5.62,0,0,1,202.22,179.22Zm2.48,0c0,2.25.82,3.38,2.44,3.38a2.1,2.1,0,0,0,1.78-.88,4.09,4.09,0,0,0,.66-2.5c0-2.23-.81-3.34-2.44-3.34a2.11,2.11,0,0,0-1.78.88A4,4,0,0,0,204.7,179.22Z"/><path class="cls-1" d="M213,179.22a5.42,5.42,0,0,1,1.35-3.82,4.62,4.62,0,0,1,3.57-1.47,4.67,4.67,0,0,1,3.63,1.41,6.44,6.44,0,0,1,0,7.77,5.24,5.24,0,0,1-7.23,0A5.66,5.66,0,0,1,213,179.22Zm2.48,0c0,2.25.81,3.38,2.44,3.38a2.1,2.1,0,0,0,1.78-.88,4.09,4.09,0,0,0,.66-2.5c0-2.23-.81-3.34-2.44-3.34a2.11,2.11,0,0,0-1.78.88A4,4,0,0,0,215.47,179.22Z"/><path class="cls-1" d="M230.9,184.37l-3-4.65-1.15,1.22v3.43h-2.4V170.31l2.4-.58V178l3.43-3.93H233L229.57,178l4.18,6.37Z"/><path class="cls-1" d="M234.87,183.11a1.68,1.68,0,0,1,.5-1.22,1.71,1.71,0,0,1,1.23-.5,1.71,1.71,0,0,1,1.72,1.72,1.71,1.71,0,0,1-.5,1.23,1.68,1.68,0,0,1-1.22.5,1.71,1.71,0,0,1-1.73-1.73Z"/><path class="cls-1" d="M248.52,174.93l-1,1.79a3.22,3.22,0,0,0-2.26-.79,2.74,2.74,0,0,0-2.16.9,3.71,3.71,0,0,0-.78,2.5q0,3.22,3.07,3.22a3.51,3.51,0,0,0,2.35-.87l.88,1.87a5.88,5.88,0,0,1-1.82.83,8.39,8.39,0,0,1-1.85.17,5,5,0,0,1-3.74-1.38,5.19,5.19,0,0,1-1.37-3.84,5.27,5.27,0,0,1,1.5-3.91,5.52,5.52,0,0,1,4.09-1.49A5,5,0,0,1,248.52,174.93Z"/><path class="cls-1" d="M249.07,179.22a5.42,5.42,0,0,1,1.35-3.82,5.21,5.21,0,0,1,7.19-.06,6.46,6.46,0,0,1,0,7.77,5.24,5.24,0,0,1-7.23,0A5.66,5.66,0,0,1,249.07,179.22Zm2.48,0c0,2.25.81,3.38,2.44,3.38a2.1,2.1,0,0,0,1.78-.88,4.09,4.09,0,0,0,.66-2.5c0-2.23-.82-3.34-2.44-3.34a2.1,2.1,0,0,0-1.78.88A4,4,0,0,0,251.55,179.22Z"/><path class="cls-1" d="M272.28,184.37V178c0-1.35-.6-2-1.81-2a1.92,1.92,0,0,0-1,.32,1.81,1.81,0,0,0-.69.72v7.4h-2.4v-6.79a1.57,1.57,0,0,0-.47-1.2,1.84,1.84,0,0,0-1.32-.45,1.87,1.87,0,0,0-1,.33,2.27,2.27,0,0,0-.77.73v7.38h-2.4V174.11h1.65l.49.9a3.33,3.33,0,0,1,2.57-1.08,4,4,0,0,1,3.07,1.1,3.22,3.22,0,0,1,1.26-.8,4.58,4.58,0,0,1,1.61-.3,3.54,3.54,0,0,1,2.67,1,3.71,3.71,0,0,1,.95,2.69v6.77Z"/><path class="cls-1" d="M278.5,184.37H277l5.09-14.08h1.54Z"/><path class="cls-1" d="M285.55,176h-1.19v-1.93h1.19V172l2.4-.87v3h2.82V176H288v4.48a2.63,2.63,0,0,0,.34,1.55,1.45,1.45,0,0,0,1.21.45,2.91,2.91,0,0,0,1.61-.47v2.22a7.71,7.71,0,0,1-2.38.28,3.1,3.1,0,0,1-2.36-.86,3.44,3.44,0,0,1-.82-2.47Z"/><path class="cls-1" d="M298.37,176.35a2.5,2.5,0,0,0-1.4-.42,1.89,1.89,0,0,0-1.48.76,2.73,2.73,0,0,0-.64,1.84v5.84h-2.4V174.11h2.4v.95a3.36,3.36,0,0,1,2.66-1.13,3.77,3.77,0,0,1,1.87.37Z"/><path class="cls-1" d="M300,184.37v-.82l5.59-7.35h-5.48v-2.09h9V175l-5.38,7.34h5.43v2.08Z"/><path class="cls-1" d="M319.62,180h-7.31a2.57,2.57,0,0,0,.84,1.91,3,3,0,0,0,2.08.68,3.38,3.38,0,0,0,2.48-.84l.93,1.82a5.88,5.88,0,0,1-3.76,1,4.92,4.92,0,0,1-3.69-1.37,5.18,5.18,0,0,1-1.36-3.83,5.34,5.34,0,0,1,1.49-3.92,5.25,5.25,0,0,1,7.16-.18,4.6,4.6,0,0,1,1.34,3.39A6.17,6.17,0,0,1,319.62,180Zm-7.21-1.79h5a2.24,2.24,0,0,0-2.47-2.24A2.46,2.46,0,0,0,312.41,178.17Z"/><path class="cls-1" d="M323.09,183.8l-.54.75H321.2V170.31l2.4-.58v4.78a3.92,3.92,0,0,1,2.09-.58,4.83,4.83,0,0,1,3.64,1.42,5,5,0,0,1,1.39,3.64,5.75,5.75,0,0,1-1.4,4.07,4.88,4.88,0,0,1-3.77,1.49A4,4,0,0,1,323.09,183.8Zm.51-7.24v5.34a1.76,1.76,0,0,0,1.43.62,3.18,3.18,0,0,0,2.48-.82,3.93,3.93,0,0,0,.73-2.63c0-2.07-1-3.11-3-3.11A2.11,2.11,0,0,0,323.6,176.56Z"/><path class="cls-1" d="M338.89,184.37v-5.92a3,3,0,0,0-.5-1.92,2,2,0,0,0-1.64-.6,2.51,2.51,0,0,0-1.12.3,2.59,2.59,0,0,0-.93.73v7.41h-2.4V174.11H334l.45,1a3.58,3.58,0,0,1,2.88-1.14,3.84,3.84,0,0,1,2.89,1.09,4.24,4.24,0,0,1,1.05,3.06v6.29Z"/><path class="cls-1" d="M343.7,184.37v-8.31h-1.32v-1.95h3.75v10.26ZM345,170.16a1.38,1.38,0,0,1,0,2.76,1.32,1.32,0,0,1-1-.4,1.38,1.38,0,0,1,0-2A1.32,1.32,0,0,1,345,170.16Z"/><path class="cls-1" d="M356.42,174.93l-1,1.79a3.19,3.19,0,0,0-2.26-.79,2.73,2.73,0,0,0-2.15.9,3.71,3.71,0,0,0-.79,2.5q0,3.22,3.08,3.22a3.51,3.51,0,0,0,2.35-.87l.88,1.87a5.92,5.92,0,0,1-1.83.83,8.29,8.29,0,0,1-1.84.17,5,5,0,0,1-3.74-1.38,5.19,5.19,0,0,1-1.37-3.84,5.27,5.27,0,0,1,1.5-3.91,5.52,5.52,0,0,1,4.09-1.49A5,5,0,0,1,356.42,174.93Z"/><path class="cls-1" d="M363.55,183.35a2.32,2.32,0,0,1-1.13.87,4.41,4.41,0,0,1-1.68.33,3.82,3.82,0,0,1-2.6-.82,3,3,0,0,1-.94-2.35,3.29,3.29,0,0,1,1.32-2.78,6.18,6.18,0,0,1,3.78-1,5,5,0,0,1,1,.13c0-1.19-.76-1.79-2.28-1.79a5,5,0,0,0-2.24.45l-.52-1.85a6.65,6.65,0,0,1,2.94-.6,4.75,4.75,0,0,1,3.43,1.06c.73.71,1.09,2.06,1.09,4v2.19c0,1.36.28,2.22.83,2.57a1.29,1.29,0,0,1-.66.64,2.75,2.75,0,0,1-.84.12,1.31,1.31,0,0,1-.93-.38A1.89,1.89,0,0,1,363.55,183.35Zm-.24-3.81a5.25,5.25,0,0,0-.91-.13c-1.87,0-2.8.62-2.8,1.86,0,.93.52,1.39,1.58,1.39a1.9,1.9,0,0,0,2.13-2.16Z"/><path class="cls-1" d="M9.48,109.23a2.49,2.49,0,0,1-.9.57A1.9,1.9,0,0,1,8.34,111,18.21,18.21,0,0,0,0,114.73c0,1.53.79,2.18,2.27,2,1.56-2.79,3.59-4,6.09-3.55l-.18.51L8.06,115a5.32,5.32,0,0,0-.18,1.72A4,4,0,0,0,7.52,119l-.22.93a2,2,0,0,0-2,.87c-.14,1.24.45,1.83,1.75,1.78a3.26,3.26,0,0,0-.24,1,7.38,7.38,0,0,0,0,1.74l-.19.28-.18.49-.14,1.35-.18.37L6,130a2.23,2.23,0,0,0-2.17,2.49,5.49,5.49,0,0,0,1.95,1,3.89,3.89,0,0,0,.84,1.15A4.14,4.14,0,0,0,8.54,133q8.55-.63,13.18-6.9,2.46-7-8.24-6.71a15.73,15.73,0,0,0,7.54-8,5.47,5.47,0,0,0-1.53-1.11l-.58.22-1.9-.32-.42.08-1.19-.12a2.09,2.09,0,0,1-1,0l-1.1.18-.42,0-2.49.27a1.88,1.88,0,0,0-.93-1.41Zm6,2.6a5.48,5.48,0,0,1,3.05.83l-.6.61A11.15,11.15,0,0,1,14,116.91l-1.78,1.32-.27.1a17.8,17.8,0,0,0-2.76,1.48A7.17,7.17,0,0,1,9.39,118l-.09-.43.2-.38.1-1.08a20.54,20.54,0,0,0,.33-3.32,6.65,6.65,0,0,1,4-.67l.16-.26a2.32,2.32,0,0,0,1.38,0Zm.53,9.45c3.61.46,4.78,1.92,3.53,4.38a13.19,13.19,0,0,1-10.41,5.42l-.3.11a4.44,4.44,0,0,0-1-1.73l.26-1.17L7.94,128a2.76,2.76,0,0,0,.14-1.2l.17-.4.45-4.25a9.46,9.46,0,0,0,1.83-.62l1.78,0,.85-.31a7.27,7.27,0,0,0,2.87,0Zm15.14,2.34a8.27,8.27,0,0,0-5.9,4.59,1.46,1.46,0,0,0,.78.25l.25-.4h.38l.14-.23.64-.39,2.06-1.64.9.24a5,5,0,0,1-3.6,3.06c-1,1.09-2,1.13-2.83.11a5.12,5.12,0,0,0,.52-2.15,2.13,2.13,0,0,0-1.68-.51c-1.53,1.7-1.66,3.22-.37,4.58a5.22,5.22,0,0,0,5,0,8,8,0,0,0,4.74-3.81q1.94-2.29-.89-3.7Zm12.38,3.88-.54.2a8.12,8.12,0,0,1-1.35,1.83c.82-3,.24-5-1.74-6q-4.06-1.23-7.14,3.06l-.62.85v.35l-.25.38-.74,2.45.5.23.49-.23a2.85,2.85,0,0,1,.37-1l.49-.36a6.11,6.11,0,0,1,1.48-2.44l.37.11a4,4,0,0,1,4.43-2.07c1.32,2.2,1,4.07-1.09,5.61-2,2.05-3.3,2.13-4,.26l-.88.11c-.57,2.21.26,3.18,2.48,2.93a5.08,5.08,0,0,0,1.73-.73l.73-.48.24-.25,1.62-1.22.36-.12a2.31,2.31,0,0,1-.85.72l.11.5a4.64,4.64,0,0,0-.86,1.11l-.25.23-.62,1-.24.26-2.47,5.13-.24.24-.38,1a10.92,10.92,0,0,0-.86,2l-.13.5L33,145.16v.5l-1,2.8-.12.26a7,7,0,0,1-.74,2.19,1.67,1.67,0,0,0,.74,1.34H32l.37.12a2.07,2.07,0,0,0,1.24-.36,4.25,4.25,0,0,1,1.23-1.72l.36-1.1.5-.6a4.61,4.61,0,0,0,.86-2l.5-.75a2.53,2.53,0,0,1,.38-1l.36-1.34.12-.24a6.89,6.89,0,0,0,.5-2.33l.24-.24a3.78,3.78,0,0,1,.37-1.72,14,14,0,0,1,0-2.43l-.23-.25a9.68,9.68,0,0,0,.73-1.34l.48-.74a1.74,1.74,0,0,0,.5-.73l.24-.12,1.32-2,1.49-2.29c.51-.7.49-1.24,0-1.62ZM37.09,141a4.83,4.83,0,0,1-.12.81l-.24.7-.1.46-.24.57a6.82,6.82,0,0,1-.69,2.09l-.49.22a3.61,3.61,0,0,1-.81,2.1v-.81l.36-.48v-.69l.69-1.62a3.17,3.17,0,0,1,.7-1.74,4,4,0,0,1,.58-1.72l.36.11ZM47.6,121.85q-7.4,3.34-5.6,9.66,3.81,3,7.62-1c2.46,1,4.75.29,6.84-2A3.56,3.56,0,0,0,57.72,127c.11-.43,0-.58-.25-.46l-.64.45-.93.66-.78.44a13.62,13.62,0,0,0-1.58,1l-.78.34a3.45,3.45,0,0,1-1.23-.22l-.12-.33a3.65,3.65,0,0,1,.8-1.34A18.31,18.31,0,0,1,54,124.63c-.68-1.55-1.62-1.45-2.81.32-.3-2.15-1.49-3.18-3.59-3.1Zm-.08,1.7q3.57-.24.72,4.81a.92.92,0,0,0,.72.1.33.33,0,0,0-.1.52c-2.47,3-4.45,3.38-5.94,1.23l.09-.42q-.09-3.94,4.51-6.24Zm15-1.15q-7.83,3.16-6.64,10.67l.66.51a6,6,0,0,0,2.4,1.19,21,21,0,0,0,11.16-6.05l-.4-.66q-14.76,9.62-11.17-.27a6,6,0,0,1,4-3.16l.26.93a5.51,5.51,0,0,0-1,3l1-.25q4.78-5.28-.26-5.93Zm10.19-10.06a4.23,4.23,0,0,1-.88.87l-.44,1.09-.1.41-.12.44a4.76,4.76,0,0,1-.41.87.59.59,0,0,1-.13.44v.43l-.1.21-.88,3.68.11.76-.32.21h-.32l-.56.1a2.48,2.48,0,0,0-1.51,0,1.42,1.42,0,0,1-.66.65c.21.64.46,1,.75,1.12a5.5,5.5,0,0,0,2.4-.47l-.1.53v1.53a5.07,5.07,0,0,1-.22,1.49,5,5,0,0,1-.32,2.81,10.5,10.5,0,0,1-.48,2.83l.34.43.76-.21.43-.76a3.81,3.81,0,0,0,.23-.65c.15-.94.26-1.62.3-2s0-.74,0-1l.23-1.18v-.76l.09-.43-.09-.22L71,123l.78-.31a2.85,2.85,0,0,0,.86-.1l3.27-.22.78-.12,2.17-.13.56-.44a1.41,1.41,0,0,0-1.32-.85,5.39,5.39,0,0,1-1.2.14l-.77.09a4,4,0,0,1-1.3,0l-.44.23a6.3,6.3,0,0,0-2.39.22l-.78-.34.12-.64-.12-.43.45-1.31.21-1.72.34-.55a3.69,3.69,0,0,1,.54-1.28,7.31,7.31,0,0,1,.88-2.06.73.73,0,0,0-.44-.87Zm15.88,10.38-.21-.1a3.47,3.47,0,0,1-1.35.32,16.56,16.56,0,0,0-2.52,1,1.11,1.11,0,0,0-.61.2l-.12.22-.72.92a1.22,1.22,0,0,0-1.26.32l-.1.2a1.87,1.87,0,0,0-.22.83l-.32,1.14-.51.52-.1.31a2,2,0,0,0-.62.62,9.11,9.11,0,0,1-2.2,2.48,5,5,0,0,1,1-3.51,1.74,1.74,0,0,0-1-1.56,4.72,4.72,0,0,1-.83.41l-.32,1.15a9.91,9.91,0,0,1-.52,1.64l.1.73a4.27,4.27,0,0,0-.42,2.17,4.26,4.26,0,0,1,.42.83,3.52,3.52,0,0,0,3.77-2,2.76,2.76,0,0,0,1-1.47.64.64,0,0,0,.61-.41l.12.22.1.51a8.87,8.87,0,0,1,.62,2.37,2.31,2.31,0,0,0,2.3.22l.11-.32.11-.82A4.09,4.09,0,0,1,85,129l-.22-.12a1,1,0,0,0-.11-.83l.33-.71a3.45,3.45,0,0,1,.32-1.87,9.73,9.73,0,0,1,5.62-1.87q3.45,0,1.89-1.24l-.32.12L90,122.4l-1.35.32Zm9.56.9a8.27,8.27,0,0,0-5.9,4.59,1.43,1.43,0,0,0,.78.25l.25-.4h.38l.14-.23.64-.39,2.06-1.64.89.24a5,5,0,0,1-3.59,3.06c-1,1.09-2,1.13-2.83.11a5.12,5.12,0,0,0,.52-2.15,2.14,2.14,0,0,0-1.68-.51c-1.53,1.7-1.66,3.22-.37,4.58a5.22,5.22,0,0,0,5,0,8,8,0,0,0,4.74-3.81c1.28-1.53,1-2.76-.9-3.7Zm14.16-8.91a1.78,1.78,0,0,0-1.52.92V116a8.06,8.06,0,0,1,.24,2.75l-.24.39a4.51,4.51,0,0,0,0,1.56,5.79,5.79,0,0,1-.5,1v.53l-.66,3.26-.11.27a16.82,16.82,0,0,0-.25,2.61,5,5,0,0,0-.26,2.62,3.21,3.21,0,0,0,2.16.27l.5-.27.12-.38.37-.14a6.72,6.72,0,0,0,1.28-1A1.38,1.38,0,0,1,114,129l1.14-1,.62-.39.26-.4a18.13,18.13,0,0,0,2.15-2.09l.23.51q-4.39,14.67,8.1,3.14a6.51,6.51,0,0,1,.78-1.44,1.71,1.71,0,0,0-.9,0l-1.51,1.18-.38.14a13.84,13.84,0,0,0-1.52,1.31,10.1,10.1,0,0,0-2.29,1.7l-1.14.13-.37-.92v-.91l.13-.26.12-1.19-.12-.25A2.26,2.26,0,0,0,120,127a2.61,2.61,0,0,1,.5-2A4.28,4.28,0,0,1,121,123a2,2,0,0,0-.26-1.71,1.85,1.85,0,0,0-2.39,1.19,1.92,1.92,0,0,1-.5.52,11.37,11.37,0,0,1-1.92,1.83l-.24.4a7.65,7.65,0,0,0-1.39,1.3l-.5.51-.26.14-.25.4-.51.25a6.11,6.11,0,0,1-1.39,1.31,5.9,5.9,0,0,1,0-3l.14-.64a19.11,19.11,0,0,0,.49-2.24l.13-.51.11-.54.15-.65.13-1.44a.92.92,0,0,1,.24-.65l.12-.92a10.54,10.54,0,0,1,.39-3,2.61,2.61,0,0,0-.88-.79Zm21,3.13c-1.32.56-1.28,1.79.12,3.65l.38.12.24-.73a2.86,2.86,0,0,0,.86-1.82,2.14,2.14,0,0,0-1.6-1.22Zm-6.14,8.89a7.16,7.16,0,0,0-1,1.22l.14.62-.26.23a8.33,8.33,0,0,1-.73,2.32c.07,1.71,1,2.11,2.71,1.22a6.94,6.94,0,0,0-.5-2,10.06,10.06,0,0,0,.86-2.92,1.42,1.42,0,0,0-1-.73Zm8.53-4.25c-2.35.24-3.71,1.35-4.06,3.32a1.71,1.71,0,0,0,.54.81l-.1.18.37.35a8.59,8.59,0,0,0,2.43,3.07l.46.7a3.66,3.66,0,0,1-4.06-1.34,4.28,4.28,0,0,0-1.1.46v.45l.28.18.82.35a4.85,4.85,0,0,0,5.78.82l.2-.36a3,3,0,0,0-.74-1.72,9.79,9.79,0,0,1-3.25-4.41l.26-.53c2.72-1.85,3.49-1.2,2.27,2a.69.69,0,0,0,.9.35q3.09-3.49-1-4.66ZM143,112.34a4.46,4.46,0,0,1-.87.87l-.45,1.09-.09.41-.12.44a5.23,5.23,0,0,1-.42.87.64.64,0,0,1-.12.44v.43l-.1.21-.88,3.68.1.76-.32.21h-.32l-.56.1a2.48,2.48,0,0,0-1.51,0,1.42,1.42,0,0,1-.66.65c.21.64.46,1,.76,1.12a5.49,5.49,0,0,0,2.39-.47l-.1.53v1.53a5.43,5.43,0,0,1-.22,1.49,5.12,5.12,0,0,1-.32,2.81,10.59,10.59,0,0,1-.47,2.83l.34.43.75-.21.44-.76a4,4,0,0,0,.22-.65c.16-.94.26-1.62.3-2s.06-.74.06-1l.22-1.18v-.76l.09-.43-.09-.22.2-2.49.77-.31a2.81,2.81,0,0,0,.86-.1l3.28-.22.77-.12,2.17-.13.56-.44a1.4,1.4,0,0,0-1.31-.85,5.43,5.43,0,0,1-1.2.14l-.78.09a4,4,0,0,1-1.3,0l-.43.23a6.33,6.33,0,0,0-2.4.22l-.77-.34.12-.64-.12-.43.44-1.31.22-1.72.33-.55a3.89,3.89,0,0,1,.54-1.28,7.61,7.61,0,0,1,.88-2.06.73.73,0,0,0-.44-.87Zm12.8,11.28a8.29,8.29,0,0,0-5.9,4.59,1.46,1.46,0,0,0,.78.25l.26-.4h.38l.14-.23.64-.39,2.05-1.64.9.24a5,5,0,0,1-3.59,3.06c-1,1.09-2,1.13-2.84.11a5.12,5.12,0,0,0,.52-2.15,2.12,2.12,0,0,0-1.67-.51c-1.54,1.7-1.67,3.22-.38,4.58a5.24,5.24,0,0,0,5,0,8,8,0,0,0,4.74-3.81q1.92-2.29-.9-3.7Zm2.41-1.08a3.33,3.33,0,0,0-.7.71,1.11,1.11,0,0,1-.35,1.29,2.1,2.1,0,0,1,0,.94l.24.22-.13.59a10.94,10.94,0,0,1-.11,1.64l.11.36-.11.35v.82a7.65,7.65,0,0,1-.24,2.11,3.19,3.19,0,0,0,.72.71,9.71,9.71,0,0,0,1.65-.35l.36-.58a12.17,12.17,0,0,1,3.55-6.58,1.36,1.36,0,0,0,1.06.24l.24-.83a2.25,2.25,0,0,0-3.07-.93l-.24.24-1.2,2.09-.82.83-.12-.24.24-.92a3.92,3.92,0,0,1,.24-2,1.49,1.49,0,0,0-1.32-.71Zm13.57-4.7c-1.32.56-1.28,1.79.11,3.65l.38.12.24-.73a2.81,2.81,0,0,0,.86-1.82,2.13,2.13,0,0,0-1.59-1.22Zm-6.15,8.89a6.63,6.63,0,0,0-1,1.22l.13.62-.25.23a8.33,8.33,0,0,1-.74,2.32c.08,1.71,1,2.11,2.71,1.22a6.33,6.33,0,0,0-.5-2,10.06,10.06,0,0,0,.86-2.92,1.41,1.41,0,0,0-1-.73ZM177,117.84c-1.32.56-1.28,1.79.12,3.65l.38.12.24-.73a2.86,2.86,0,0,0,.86-1.82,2.14,2.14,0,0,0-1.6-1.22Zm-6.14,8.89a7.16,7.16,0,0,0-1,1.22l.14.62-.26.23a8.33,8.33,0,0,1-.73,2.32c.07,1.71,1,2.11,2.71,1.22a6.94,6.94,0,0,0-.5-2,10.38,10.38,0,0,0,.86-2.92,1.43,1.43,0,0,0-1-.73Zm16.77,1a1.58,1.58,0,0,0-1.36,1l.12.38a3.25,3.25,0,0,1,0,1.32l.14.38v.85l-.14.35.14.38-.26.73a12.23,12.23,0,0,1,0,2.43,2.53,2.53,0,0,0,1.24.71l.48-.59a3.2,3.2,0,0,1,.26-1.23,8.46,8.46,0,0,1,.12-1.58,9.87,9.87,0,0,0,.24-4.86l-.48-.23Zm15.91-12.88-.2.35-.83,2.61a1.24,1.24,0,0,1-.18.45,1.89,1.89,0,0,1-.26,1l0,.36-.16.92-.46,1.31-.1,1.3-.1.24-.2,1.42a9.38,9.38,0,0,0-.32,1.64,32.49,32.49,0,0,0-6.06,19.12,9.34,9.34,0,0,0-.32,1.53c0,.25,0,.41.06.49l-.16.83a20.9,20.9,0,0,1,.14,2.59c.19,1.09.74,1.53,1.68,1.3a8.56,8.56,0,0,0,.53-1.9l.4-.7a9.52,9.52,0,0,1,.4-2l.34-1.31a1.08,1.08,0,0,1,.18-.47,1,1,0,0,1,.2-.47l.4-1.9.25-.81a10.82,10.82,0,0,1,.65-2.11l0-.38a7.86,7.86,0,0,0,.27-1.75l.18-.6a6.35,6.35,0,0,0,.48-2.37l.56-1.54.06-.59-.06-.58a2.88,2.88,0,0,0,.34-1.52,4.85,4.85,0,0,0,.26-2,5.67,5.67,0,0,0,.42-1.76l.21-.26a5.55,5.55,0,0,1,1.94-2.11,1.53,1.53,0,0,1,.32,2,2,2,0,0,1-1.28,1.66A1.52,1.52,0,0,0,205,130.4a7.36,7.36,0,0,0,1.66-3.42,3.74,3.74,0,0,0-2.56-4.25,3.54,3.54,0,0,1-1.4.6l.2-.48,0-.47.2-.35c0-.23,0-.38.07-.46l.23-1.2.22-.36a15.09,15.09,0,0,0,.5-2.09,4.65,4.65,0,0,0,.46-1.45,2.15,2.15,0,0,1,.84-1,1.4,1.4,0,0,0-.84-1.18l-1,.6Zm-3.61,16.29-.06.58a6.43,6.43,0,0,0-.4,1.87l-.79,3.79,0,.48-.3.83L198,140a2.51,2.51,0,0,1-.26,1l0,.33-.2.36-.26,1.07a8.29,8.29,0,0,1-1,3.06l-.28-.24.15-.81a3.12,3.12,0,0,1,.13-1.2,4.14,4.14,0,0,1,.17-1.76,13.19,13.19,0,0,1,.39-3.18l.39-2,.26-.94,1.06-2.59a11.75,11.75,0,0,0,1.06-2.37l.17.49ZM218,123.62a8.29,8.29,0,0,0-5.9,4.59,1.46,1.46,0,0,0,.78.25l.26-.4h.38l.14-.23.64-.39,2.05-1.64.9.24a5,5,0,0,1-3.59,3.06c-1,1.09-2,1.13-2.83.11a5.25,5.25,0,0,0,.51-2.15,2.11,2.11,0,0,0-1.67-.51c-1.54,1.7-1.67,3.22-.38,4.58a5.24,5.24,0,0,0,5,0,8,8,0,0,0,4.74-3.81q1.92-2.29-.9-3.7Zm6.21-11.28a4.78,4.78,0,0,1-.88.87l-.45,1.09-.09.41-.12.44a4.47,4.47,0,0,1-.42.87.64.64,0,0,1-.12.44v.43l-.1.21-.88,3.68.1.76-.32.21h-.32l-.55.1a2.52,2.52,0,0,0-1.52,0,1.42,1.42,0,0,1-.66.65c.21.64.47,1,.76,1.12a5.47,5.47,0,0,0,2.39-.47l-.1.53v1.53a5.07,5.07,0,0,1-.22,1.49,4.94,4.94,0,0,1-.32,2.81,10.59,10.59,0,0,1-.47,2.83l.34.43.75-.21.44-.76a4,4,0,0,0,.22-.65c.16-.94.26-1.62.3-2s.06-.74.06-1l.22-1.18v-.76l.1-.43-.1-.22.2-2.49.78-.31a2.78,2.78,0,0,0,.85-.1l3.28-.22.77-.12,2.17-.13.56-.44a1.4,1.4,0,0,0-1.31-.85,5.39,5.39,0,0,1-1.2.14l-.78.09a4,4,0,0,1-1.3,0l-.43.23a6.35,6.35,0,0,0-2.4.22l-.77-.34.12-.64-.12-.43.44-1.31.22-1.72.34-.55a3.51,3.51,0,0,1,.54-1.28,7.3,7.3,0,0,1,.87-2.06.73.73,0,0,0-.44-.87Zm9.49,8.18-.34-.11a1.79,1.79,0,0,1-1.4.68q-8.88,7.46-3.46,12l.57.22h2.1a3.79,3.79,0,0,1,1.71-.46,4.06,4.06,0,0,1,1.64-.81,4.16,4.16,0,0,1,.79-.57,1,1,0,0,0,.46-.22l1.39-1a7.74,7.74,0,0,0,2.1-1.58l1-1.17c.18-.62-.08-.77-.78-.43a5.64,5.64,0,0,0-1.23.89,12.61,12.61,0,0,1-1.62,1l-1.15.91-.35.24-.7.33-.36.24-1.83.91-.24-.12a3,3,0,0,1-2.43.12,2.46,2.46,0,0,1-1.16-1.48,21.05,21.05,0,0,0,8.79-7.67,6.78,6.78,0,0,0-.33-1.62l-.7-.34a6.55,6.55,0,0,1-1.85-.23l-.58.23Zm1.27,1.72a7.12,7.12,0,0,1-3.13,3.78,6.92,6.92,0,0,1-3.22,2.07,8.42,8.42,0,0,1,5.66-6.08l.69.23Zm5.69,2.08a9.58,9.58,0,0,0-3,8.16q1.11,2.86,6-2.17,1.67,5.58,6.84,2.58l1.58-.89a10,10,0,0,0,1.74-1.52,5.33,5.33,0,0,0,.91-1.84c.14-.61,0-.65-.48-.1a7.6,7.6,0,0,1-1.77,1.77l-1.66.86-.72.38-2.17.67q-3.57-1.78-.82-6.14a2.12,2.12,0,0,0-1.12-1.37,4.29,4.29,0,0,0-1.91.69l.14,1-.56.55a13.73,13.73,0,0,1-4.13,4.21l-.28-.26.28-.42-.13-.41,1.24-3.54a4.37,4.37,0,0,0,.69-1.64.91.91,0,0,0-.69-.53ZM259,122.4q-7.85,3.16-6.65,10.67l.66.51a6.12,6.12,0,0,0,2.4,1.19,21,21,0,0,0,11.16-6.05l-.39-.66q-14.76,9.62-11.17-.27a5.93,5.93,0,0,1,4-3.16l.26.93a5.53,5.53,0,0,0-1.06,3l1.06-.25q4.78-5.28-.26-5.93Zm10.4-5.47a1.47,1.47,0,0,0-.77,1.1,1.37,1.37,0,0,0,.6,1.13c-.06,1.49.31,2.2,1.11,2.14l.1-.34.08-.51a10,10,0,0,1,.43-1.72l-1.55-1.8Zm.08,0c.92,0,1.38.5,1.38,1.36l-1.38-1.36Zm-3.27,9v.51l-.26.42-.26,1.46a3.8,3.8,0,0,0-.42,1l-.77,2.93v.51l-.18.6a2.77,2.77,0,0,1-.19.77,7.24,7.24,0,0,1-.07,1.2,4.39,4.39,0,0,0-.13.52c0,.17-.07.33-.09.47s-.07.39-.12.73l-.1.51a3.92,3.92,0,0,1-.16,1.11l-.18,1.38-.08.34-.18.26V141l-.1.52a11.15,11.15,0,0,0-.51,2.21l-.17.17a7.67,7.67,0,0,1-1.65,3.26,4.11,4.11,0,0,1-1.11-1.46v-.33a13.66,13.66,0,0,1-.53-2.57,3.15,3.15,0,0,0,.16-.95l.11-.26.08-.59a2.94,2.94,0,0,0,.25-1.13l.18-.25.26-.95.26-.25a4.78,4.78,0,0,1,.44-1,4.48,4.48,0,0,1,.78-1.61v-.26a4.46,4.46,0,0,0,.41-1.72l-.93.08-.7,1-.43.52-1.57,4-.25.43a10.52,10.52,0,0,1-.44,1.65,11.56,11.56,0,0,1-.16,2.13q1.71,8.24,5.36,3.51l.16-.68a2.81,2.81,0,0,0,.54-1.29l.16-.26v-.33l.18-.34a1.73,1.73,0,0,1,.18-.79l.08-.67.07-.62.37-1.28a6.66,6.66,0,0,1,.25-1.46l.26-1.19.08-.51.08-.43.18-1.21.08-.44v-.33l.26-1.46.1-.59.08-.52a8.18,8.18,0,0,0,.34-1.54,2.93,2.93,0,0,0,.36-1.38l.26-.26.08-.15a7.35,7.35,0,0,1,.44-1.57,4.38,4.38,0,0,0,1-1.79l-.26-.52h-1.32l-.52.36Zm9-4.07q-7.41,3.34-5.61,9.66c2.55,2,5.08,1.67,7.62-1q3.7,1.44,6.84-2a3.53,3.53,0,0,0,1.27-1.53c.1-.43,0-.58-.26-.46l-.63.45-.93.66-.78.44a12.8,12.8,0,0,0-1.58,1l-.78.34a3.55,3.55,0,0,1-1.24-.22l-.11-.33a3.52,3.52,0,0,1,.8-1.34,17.6,17.6,0,0,1,1.79-2.88c-.68-1.55-1.62-1.45-2.82.32q-.44-3.23-3.58-3.1Zm-.09,1.7c2.39-.16,2.62,1.44.73,4.81a.89.89,0,0,0,.71.1.34.34,0,0,0-.1.52c-2.46,3-4.44,3.38-5.94,1.23l.1-.42c-.07-2.63,1.44-4.71,4.5-6.24Zm23.6-14.62-.45-.12-.61.12h-.84a5.86,5.86,0,0,0-2.06.33,2.41,2.41,0,0,0-1.07,0l-1.94.22-.63.24-.47-.12-.62.12-.73.23h-.6a.84.84,0,0,1-.59,0l-.62.22-1.12.12-.5.12-.6.1-1.59.35a7.66,7.66,0,0,0-1,.1,10.14,10.14,0,0,1-2.37.57,3,3,0,0,0-1.18,1.15,4.57,4.57,0,0,0,2.51,1,6.61,6.61,0,0,1,1.48-1.37l3.8-.69.51-.23a8.13,8.13,0,0,0,1.93-.22l.62-.12a7.85,7.85,0,0,1,1.72-.22l1.57-.23.62-.12.62-.1,1.07-.12h1.53l.28-.12,2.62-.11a3.41,3.41,0,0,1,1.2,0h3.07a4.12,4.12,0,0,0,1.35.23,1.3,1.3,0,0,0,.36-.57l-.86-.34a3.29,3.29,0,0,0-1.21-.57h-1.18l-.44-.12-.86.12-2.09-.12-.65.24Zm-10.34,10.31a18,18,0,0,0-1.71,5.31,12.18,12.18,0,0,0-.6,2.11,26.57,26.57,0,0,0-1.4,6c1.45.94,2.43-.89,2.92-5.48a26.94,26.94,0,0,1,.72-3.9l.11-1.07a4.53,4.53,0,0,0,.41-2.11,1.37,1.37,0,0,0-.45-.89Zm15.66-4.4-.2.35L303,117.8a1.08,1.08,0,0,1-.18.45,1.79,1.79,0,0,1-.26,1l.05.36-.17.92-.45,1.31-.11,1.3-.1.24-.19,1.42a10.55,10.55,0,0,0-.33,1.64,32.41,32.41,0,0,0-6,19.12,9.34,9.34,0,0,0-.32,1.53c0,.25,0,.41.06.49l-.16.83a23.08,23.08,0,0,1,.14,2.59c.18,1.09.74,1.53,1.67,1.3a8.74,8.74,0,0,0,.54-1.9l.4-.7a8.92,8.92,0,0,1,.4-2l.34-1.31a1.25,1.25,0,0,1,.17-.47,1.17,1.17,0,0,1,.2-.47l.4-1.9.26-.81a11.79,11.79,0,0,1,.64-2.11l0-.38a7.37,7.37,0,0,0,.28-1.75l.18-.6a6.56,6.56,0,0,0,.48-2.37l.56-1.54.05-.59-.05-.58a3,3,0,0,0,.34-1.52,4.85,4.85,0,0,0,.26-2,5.37,5.37,0,0,0,.41-1.76l.22-.26a5.55,5.55,0,0,1,1.94-2.11,1.51,1.51,0,0,1,.31,2,1.93,1.93,0,0,1-1.27,1.66,1.51,1.51,0,0,0,1.85,1.64A7.17,7.17,0,0,0,307.1,127a3.73,3.73,0,0,0-2.55-4.25,3.54,3.54,0,0,1-1.4.6l.2-.48,0-.47.2-.35a.6.6,0,0,1,.06-.46l.24-1.2L304,120a15.09,15.09,0,0,0,.5-2.09,4.34,4.34,0,0,0,.45-1.45,2.27,2.27,0,0,1,.84-1,1.37,1.37,0,0,0-.84-1.18l-1,.6Zm-3.61,16.29-.06.58a6.43,6.43,0,0,0-.4,1.87l-.79,3.79,0,.48-.3.83-.34,1.28a2.7,2.7,0,0,1-.26,1l0,.33-.2.36-.26,1.07a8.28,8.28,0,0,1-1,3.06l-.28-.24.16-.81a3.11,3.11,0,0,1,.12-1.2,4.31,4.31,0,0,1,.18-1.76,13.76,13.76,0,0,1,.38-3.18l.39-2,.26-.94,1.07-2.59a11.62,11.62,0,0,0,1.05-2.37l.18.49Z"/><path class="cls-1" d="M310.55,122.54a3.17,3.17,0,0,0-.71.71,1.09,1.09,0,0,1-.35,1.29,1.84,1.84,0,0,1,0,.94l.24.22-.13.59a9.76,9.76,0,0,1-.11,1.64l.11.36-.11.35v.82a7.65,7.65,0,0,1-.24,2.11,3.19,3.19,0,0,0,.72.71,9.71,9.71,0,0,0,1.65-.35l.36-.58a12.24,12.24,0,0,1,3.55-6.58,1.37,1.37,0,0,0,1.06.24l.24-.83a2.25,2.25,0,0,0-3.07-.93l-.24.24-1.2,2.09-.82.83-.12-.24.24-.92a3.92,3.92,0,0,1,.24-2,1.48,1.48,0,0,0-1.31-.71Zm12.22,1.52-.93.12-.82.12-.94.33-.24.12a4.1,4.1,0,0,0-1.53.71,5.53,5.53,0,0,0-2.34,1.15h-.36l-.57,1a7,7,0,0,0,.69,1.4h1.64a5.67,5.67,0,0,1-.1-.93l.34-.35,2.47-1.39a8.23,8.23,0,0,0,1.76-.59.58.58,0,0,1,.11.59,3.64,3.64,0,0,0-1,.86,4.13,4.13,0,0,1-1.22,1A5.76,5.76,0,0,1,318.2,130l-.47,1.49a4.34,4.34,0,0,0,1.29,1.41,2.64,2.64,0,0,1,1.16.22h2.24l.69-.12a6.2,6.2,0,0,0,1.42-.1l.7.1.47-.22a3.87,3.87,0,0,0,1.4-.23h.7l1.29-.12a1.39,1.39,0,0,0,0-.81h-1.63l-1.3-.24-.7.11-2.81.24-.23-.11a4.13,4.13,0,0,1-2.12-.48l.36-1,.24.11a1.17,1.17,0,0,1,.69-.94l.13-.21.33-.24.12-.36a3.11,3.11,0,0,0,1.06-1l1.53-1.62c.07-1.08-.37-1.7-1.29-1.86l-.7.12Zm16.45-.46-1,.32-.2.22-.64.29-4.09,3.29-1.78,1.55a2.29,2.29,0,0,1-1.35.58l-.22-.73a3.83,3.83,0,0,0,.32-1.88A9.86,9.86,0,0,0,331,125a1.76,1.76,0,0,0-1.48-.54l-.19.42a4,4,0,0,1-1.07,1.05l-.09.19a5.7,5.7,0,0,0-.64,1.25l-.2.32-.84,1-.1.29-1.47,2.39-.33.32a8.07,8.07,0,0,1-.61,1,1.44,1.44,0,0,0,0,.83l.72-.09a2.83,2.83,0,0,1,.73-.83l.13-.2a5.38,5.38,0,0,1,.93-1.37l.52-.82a6.64,6.64,0,0,0,1.57-2q-.21,3.62,2.52,3.2l.1-.2a6.55,6.55,0,0,0,2.41-1.66l.1-.21a24.14,24.14,0,0,1,5.14-3.7l.2.12-.32,1.09-.3.73v.31a9,9,0,0,0-.63,2.08l-.1.41-.1.42-.42,1.15q-1.15,4.44-1.31,5.27l-.32,1.46-.17,1.15c-.47,2.44-.79,3.88-.93,4.3l-.16,1.25-.42,2.9-.36,3.26a1.07,1.07,0,0,0,1,.83l.21-.61c.21-1.13.38-2.07.54-2.8s.36-1.73.6-3l1.48-8.46.94-3.85.51-2.05c.39-1.23.76-2.46,1.12-3.7l.26-.94.1-.72a6.46,6.46,0,0,0,.52-1.66,2,2,0,0,0-.62-1l-.74-.09-.2.09Zm6.42-1.12c-2.34.24-3.7,1.35-4.06,3.32a1.71,1.71,0,0,0,.54.81l-.11.18.39.35a8.59,8.59,0,0,0,2.43,3.07l.45.7a3.66,3.66,0,0,1-4.06-1.34,4.28,4.28,0,0,0-1.1.46v.45l.28.18.82.35a4.85,4.85,0,0,0,5.78.82l.2-.36a3,3,0,0,0-.74-1.72,9.69,9.69,0,0,1-3.24-4.41l.26-.53c2.72-1.85,3.48-1.2,2.27,2a.67.67,0,0,0,.89.35q3.09-3.49-1-4.66Zm8.8,1.58-.94.12-.82.12-.93.33-.24.12a4.15,4.15,0,0,0-1.54.71,5.49,5.49,0,0,0-2.33,1.15h-.36l-.58,1a6.43,6.43,0,0,0,.7,1.4H349a6.72,6.72,0,0,1-.09-.93l.33-.35,2.48-1.39a7.94,7.94,0,0,0,1.75-.59.56.56,0,0,1,.12.59,3.5,3.5,0,0,0-1,.86,4.27,4.27,0,0,1-1.22,1,5.89,5.89,0,0,1-1.52,1.74l-.48,1.49a4.47,4.47,0,0,0,1.3,1.41,2.56,2.56,0,0,1,1.15.22h2.24l.7-.12a6.09,6.09,0,0,0,1.41-.1l.7.1.48-.22a3.81,3.81,0,0,0,1.39-.23h.7l1.3-.12a1.39,1.39,0,0,0,0-.81h-1.63l-1.31-.24-.69.11-2.81.24-.24-.11a4.12,4.12,0,0,1-2.11-.48l.36-1,.23.11a1.18,1.18,0,0,1,.7-.94l.12-.21.34-.24.12-.36a3.11,3.11,0,0,0,1.06-1l1.53-1.62c.07-1.08-.37-1.7-1.29-1.86l-.7.12ZM373,108.93l-.44-.12-.61.12h-.84a5.76,5.76,0,0,0-2,.33,2.46,2.46,0,0,0-1.08,0l-1.94.22-.63.24-.46-.12-.62.12-.74.23H363a.87.87,0,0,1-.6,0l-.62.22-1.11.12-.5.12-.6.1-1.59.35a7.66,7.66,0,0,0-1,.1,10.14,10.14,0,0,1-2.37.57,3.11,3.11,0,0,0-1.18,1.15,4.57,4.57,0,0,0,2.52,1,6.16,6.16,0,0,1,1.47-1.37l3.8-.69.51-.23a8.13,8.13,0,0,0,1.93-.22l.62-.12a7.85,7.85,0,0,1,1.72-.22l1.57-.23.62-.12.62-.1,1.07-.12h1.54l.27-.12,2.62-.11a3.35,3.35,0,0,1,1.19,0h3.07a4.27,4.27,0,0,0,1.36.23,1.21,1.21,0,0,0,.36-.57l-.86-.34a3.26,3.26,0,0,0-1.22-.57h-1.17l-.44-.12-.85.12-2.1-.12-.66.24Zm-10.33,10.31a17.67,17.67,0,0,0-1.71,5.31,12.18,12.18,0,0,0-.6,2.11,26.57,26.57,0,0,0-1.4,6q2.19,1.41,2.92-5.48a25.64,25.64,0,0,1,.72-3.9l.11-1.07a4.28,4.28,0,0,0,.4-2.11,1.33,1.33,0,0,0-.44-.89Zm11.51,4.38a8.27,8.27,0,0,0-5.9,4.59,1.41,1.41,0,0,0,.78.25l.26-.4h.38l.13-.23.64-.39,2.06-1.64.9.24a5,5,0,0,1-3.6,3.06q-1.56,1.64-2.83.11a5.12,5.12,0,0,0,.52-2.15,2.14,2.14,0,0,0-1.68-.51c-1.53,1.7-1.66,3.22-.37,4.58a5.22,5.22,0,0,0,5,0,8.06,8.06,0,0,0,4.75-3.81q1.92-2.29-.9-3.7ZM381,115v.34l-.11,1.28.24.7-.24.33a3.29,3.29,0,0,1-.06,1.33,3,3,0,0,0-.07,1.31,4.74,4.74,0,0,0-.2,1.25l-.36.6a1.18,1.18,0,0,0,1.28.33v-.33l.21-.81v-.48a3.6,3.6,0,0,0,.24-1.24l.25-.93a9.17,9.17,0,0,0,.69-2.41l.46-.7a2.08,2.08,0,0,0-1.4-1.14L381,115Zm-3.57,8.86c-2.49.68-2.19,2.22.89,4.59,2.41,2.08,2.72,3.11.94,3.11l-.34.12-.12-.24a6.64,6.64,0,0,1-2.45-2.75l-.46-.35-.33.22a5.51,5.51,0,0,0,2.67,4.6,4,4,0,0,0,4.76-1.6l.1-1.27-1-.9a7.18,7.18,0,0,0-1.63-1.62l-.34-.24a4.39,4.39,0,0,0-1.4-1.25l.24-.35a4.9,4.9,0,0,0,2,.69c.07-1.85-1.08-2.76-3.46-2.76Zm11.44-1.43q-7.84,3.16-6.64,10.67l.66.51a6.06,6.06,0,0,0,2.4,1.19,21,21,0,0,0,11.16-6.05l-.4-.66q-14.76,9.62-11.17-.27a6,6,0,0,1,4-3.16l.26.93a5.51,5.51,0,0,0-1,3l1-.25q4.79-5.28-.26-5.93Zm13.06-4.56c-1.32.56-1.28,1.79.12,3.65l.38.12.24-.73a2.86,2.86,0,0,0,.86-1.82,2.14,2.14,0,0,0-1.6-1.22Zm-6.14,8.89a7.16,7.16,0,0,0-1,1.22l.14.62-.26.23a8.33,8.33,0,0,1-.73,2.32c.07,1.71,1,2.11,2.7,1.22a6.62,6.62,0,0,0-.49-2,10.06,10.06,0,0,0,.86-2.92,1.42,1.42,0,0,0-1-.73Z"/><path class="cls-3" d="M117.27,58.55c-.24.58-1.59,8.56-1,8.56l163.3.17c1.32,0,.79.14.55-1.17-5.06-27-40.11-47.9-82.57-47.9C159.18,18.21,126.84,35.31,117.27,58.55Z"/><path class="cls-4" d="M299.53,82.62c-2.75-34-33.55-10.19-44-25.17-.29-.41-2.18-10.07-2.27-10.74-1.18-4.34-3-7.48-3-11l3.64-1.45-4.57-.88v4.28l-3.64,9.09-2.17,11.5H240c-1.28-2.65-3.42-3.53-5.93-4.73l-.14-.06-.16-.08c-1.35-.6-2.64-.94-3.21-2l0-7.38c.31-.06.46-.53.49-.94a2.32,2.32,0,0,1-.71-.95,17.58,17.58,0,0,1-.12-2.07c-.19-.85-1.16-1.54-2.1-2a2.6,2.6,0,0,1-.95-1.17l-.36-2.57,1.4-.08,0-.46-1.46,0-.14-2.62h-.52l0,2.64-1.4,0-.06.44,1.49.06-.22,2.53a3,3,0,0,1-.92,1.2c-.95.48-1.91,1.17-2.11,2a17.88,17.88,0,0,1-.11,2.08,2.3,2.3,0,0,1-.71.94c0,.41.18.89.49.94l0,7.38c-.62,1.12-2.06,1.43-3.51,2.12-2.05,1-4.54,2.25-5.67,4.87a9.42,9.42,0,0,1-5.09-1.12c-6.31-3.6-4.89-14.58-5-14.65L203,30.7l-1.88-1.81,0-11.44c1.17-1.25,1.64-1.16.19-2.47,0-3.76-.9-6.84-4.25-9.07a1.07,1.07,0,0,1-.05-.56c1.43-1.06.24-.87-.54-1.6.09-.4.77-.32.65-.85s-.89-.61-1.38-.74v-1l.92.19V.65l-.93,0,.18-.68h-1l.18.71-.9,0v.65l.92-.19,0,1.05c-.49.12-1.24.1-1.38.74s.57.44.65.84c-.77.74-2,.55-.54,1.61a.93.93,0,0,1,0,.55c-3.36,2.24-4.25,5.32-4.25,9.08-1.46,1.31-1,1.22.19,2.47l-.05,11.44-1.87,1.81-.13,11.91c-2.89,3.16-7.09,5.21-11.8,6.42a53,53,0,0,1-13.92,1.46A61.31,61.31,0,0,1,149.3,49l0-9.17L145.4,27.16V22.82h2.77v-.61H145.4v-2.9h-.72v2.9h-2.75v.62h2.75v4.34H137l-4.09,13,.15,8.77c-1.86.62-4.32,1.48-7.06,2.56-6.79,2.7-15.2,6.78-19.67,11.94a11.26,11.26,0,0,0-3.14,7.31H118.7v2.42h-6.56v17h8.52V74.67c.08,0,.64,0,1.68-.08s1.79-.08,2.27-.08a11.62,11.62,0,0,1,1.37.08c2.88.34,4.31,1.82,4.31,4.45a4.25,4.25,0,0,1-.91,2.67,3.77,3.77,0,0,1-2.17,1.48l4.41,7h1.24v-.28l6.79-13.31H133V74.67h9.64v.55l-6.81,13.3h7V90.2h2.69V74.67H155v1.94h-7.28V81h5.22v1.83h-5.22v5.69h7.16V90.2h2.51V74.67c1.92-.09,3.3-.14,4.14-.14h.38a5.47,5.47,0,0,1,3.24,1,3.43,3.43,0,0,1,1.29,2.88,3,3,0,0,1-.82,2,3.52,3.52,0,0,1-1.81,1.13,4.92,4.92,0,0,1,2.74,1.5,4.41,4.41,0,0,1,.85,2.84,4.05,4.05,0,0,1-1.53,3.32,5.32,5.32,0,0,1-1.91,1h5.92V74.67h.86l5.09,7,2.85,3.91V74.67h2V90.2h3.6V74.67h2.15V90.2h6.8a5.65,5.65,0,0,1-2.16-1.71,10.3,10.3,0,0,1,.12-11.75,6,6,0,0,1,4.9-2.34,8,8,0,0,1,4,.86l-.72,1.84a5.6,5.6,0,0,0-3.26-.75,3.89,3.89,0,0,0-3.33,1.78,7.86,7.86,0,0,0-1.26,4.62,6.93,6.93,0,0,0,1.29,4.36,4.31,4.31,0,0,0,6.74.11l1.19,1.64a6.3,6.3,0,0,1-2,1.34h3l6.31-15.74h.57l5.85,15.74h85Zm-91.36,4.51h-2.9L204.2,90.2h7.94l-1-3.07Zm2.35-1.59-2.23-6.94-.12.33-2.33,6.61h4.68Zm-38.63-6.4V90.2h7.82l-3.91-5.53Zm-6.78,6.42a2.77,2.77,0,0,0-.9-2.28,4.12,4.12,0,0,0-2.33-.71l-.63,0-1.74,0v6c.74.07,1.31.1,1.71.1.23,0,.45,0,.66,0a4.06,4.06,0,0,0,2.29-.73A2.93,2.93,0,0,0,165.11,85.56Zm-.85-7c0-1.34-.79-2.06-2.38-2.17l-.44,0c-.71,0-1.36,0-1.93.08v4.53a16.06,16.06,0,0,0,1.68.07,4.93,4.93,0,0,0,.69,0C163.47,80.79,164.26,80,164.26,78.51Zm-37.11,2.71A2.53,2.53,0,0,0,128,79a2.08,2.08,0,0,0-.94-1.9,3.58,3.58,0,0,0-1.11-.42,9.32,9.32,0,0,0-1.89-.16c-.22,0-.64,0-1.27.1v5.13a11.19,11.19,0,0,0,1.51.11A7.87,7.87,0,0,0,126,81.7,3.15,3.15,0,0,0,127.15,81.22Zm-2.05,2.46c-.48,0-1.24,0-2.28-.11V90.2h6.33L126,85.1ZM103.18,73.15l0,17h6.25v-17h-6.27Z"/></svg>