<svg id="Warstwa_1" data-name="Warstwa 1" xmlns="http://www.w3.org/2000/svg" viewBox="0 0 656.85 295.87"><defs><style>.cls-1{fill:#fff;}</style></defs><path class="cls-1" d="M15.42,178.09A3.59,3.59,0,0,1,14,179a3.11,3.11,0,0,1-.39,1.92A29.43,29.43,0,0,0,0,187.06c0,2.48,1.29,3.55,3.7,3.19q3.81-6.83,9.91-5.79l-.29.84-.2,2.18a8.74,8.74,0,0,0-.29,2.8,6.44,6.44,0,0,0-.59,3.67l-.35,1.51a3.23,3.23,0,0,0-3.31,1.41c-.23,2,.73,3,2.85,2.89a5.14,5.14,0,0,0-.39,1.71A12.54,12.54,0,0,0,11,204.3l-.3.45-.29.8-.23,2.2-.29.6-.13,3.48q-3.63.54-3.54,4a9.21,9.21,0,0,0,3.18,1.64,6,6,0,0,0,1.37,1.86,6.65,6.65,0,0,0,3.14-2.53q13.93-1,21.46-11.23,4-11.38-13.4-10.94,9-4.78,12.26-13a8.78,8.78,0,0,0-2.49-1.8l-.94.36-3.09-.52-.68.13-2-.2a3.29,3.29,0,0,1-1.58.07l-1.8.29L21,180,17,180.4a3.15,3.15,0,0,0-1.53-2.31Zm9.81,4.24a9,9,0,0,1,5,1.35l-1,1a18.08,18.08,0,0,1-6.4,5.92l-2.89,2.15-.45.16A29.54,29.54,0,0,0,15,195.33a11.22,11.22,0,0,1,.29-3l-.16-.7.33-.62.16-1.77a31.83,31.83,0,0,0,.54-5.4,10.87,10.87,0,0,1,6.56-1.09l.27-.42a3.73,3.73,0,0,0,2.24,0Zm.87,15.38q8.79,1.13,5.74,7.14-6.64,8.52-16.94,8.81l-.49.19A7.49,7.49,0,0,0,12.7,211l.42-1.9-.2-.45a4.26,4.26,0,0,0,.23-2l.29-.64.72-6.92a15.3,15.3,0,0,0,3-1l2.89.1,1.4-.52a11.44,11.44,0,0,0,4.67,0Zm24.64,3.82c-4.58,1.12-7.79,3.6-9.6,7.47a2.38,2.38,0,0,0,1.26.41l.42-.64h.62l.22-.39,1.05-.63,3.34-2.67,1.46.38a8.1,8.1,0,0,1-5.85,5c-1.68,1.77-3.22,1.84-4.61.18a8.37,8.37,0,0,0,.85-3.5,3.45,3.45,0,0,0-2.73-.83q-3.75,4.14-.61,7.46a8.59,8.59,0,0,0,8.15,0,13.1,13.1,0,0,0,7.72-6.21q3.12-3.72-1.47-6Zm20.16,6.31-.88.32a13.55,13.55,0,0,1-2.2,3q2-7.36-2.83-9.74-6.63-2-11.62,5l-1,1.38v.57l-.42.62-1.2,4,.81.38.81-.38a4.39,4.39,0,0,1,.59-1.6l.81-.58a10,10,0,0,1,2.4-4l.61.19A6.57,6.57,0,0,1,64,203.6q3.21,5.35-1.78,9.13c-3.22,3.33-5.37,3.46-6.43.42l-1.43.18q-1.4,5.38,4,4.77a8.28,8.28,0,0,0,2.82-1.19l1.2-.78.39-.41,2.63-2,.58-.2a3.57,3.57,0,0,1-1.39,1.19l.19.81a7,7,0,0,0-1.39,1.8l-.42.38-1,1.57-.39.43-4,8.36-.39.38L56.55,230a17,17,0,0,0-1.4,3.18L55,234l-1.19,2.58v.8L52.14,242l-.2.41a11,11,0,0,1-1.2,3.57,2.7,2.7,0,0,0,1.2,2.18h.2l.61.2a3.46,3.46,0,0,0,2-.58,6.61,6.61,0,0,1,2-2.8l.59-1.8.81-1A7.66,7.66,0,0,0,59.56,239l.82-1.22A4.14,4.14,0,0,1,61,236.2l.59-2.18.2-.39a11.44,11.44,0,0,0,.81-3.8l.39-.38a6.08,6.08,0,0,1,.62-2.8,18.44,18.44,0,0,1,0-4l-.39-.42a13.82,13.82,0,0,0,1.19-2.18l.78-1.2a2.78,2.78,0,0,0,.81-1.19l.4-.19,2.14-3.31L71,210.48q1.23-1.71-.06-2.64ZM60.38,229.75a6.77,6.77,0,0,1-.2,1.31l-.38,1.16-.17.74-.39.94a11,11,0,0,1-1.13,3.4l-.79.35A5.88,5.88,0,0,1,56,241.06v-1.31l.58-.78v-1.12l1.13-2.64a5.27,5.27,0,0,1,1.14-2.83,6.4,6.4,0,0,1,.95-2.8l.58.17Zm17.11-31.11q-12,5.45-9.12,15.73,6.19,4.89,12.4-1.61c4,1.56,7.73.48,11.13-3.28A5.7,5.7,0,0,0,94,207c.18-.7.05-1-.41-.76l-1,.74L91,208l-1.27.74a19.48,19.48,0,0,0-2.57,1.61l-1.26.55a5.67,5.67,0,0,1-2-.35l-.19-.55a5.74,5.74,0,0,1,1.3-2.16,28.69,28.69,0,0,1,2.91-4.69c-1.09-2.54-2.62-2.36-4.57.51-.48-3.5-2.42-5.18-5.84-5.05Zm-.13,2.77q5.81-.39,1.17,7.84a1.48,1.48,0,0,0,1.16.16.54.54,0,0,0-.15.84q-6,7.27-9.67,2l.15-.68q-.17-6.44,7.34-10.16Zm24.5-1.86q-12.76,5.13-10.81,17.36l1.08.84A9.77,9.77,0,0,0,96,219.68a34.28,34.28,0,0,0,18.18-9.85l-.65-1.09q-24,15.67-18.18-.42a9.56,9.56,0,0,1,6.49-5.14l.42,1.5a9,9,0,0,0-1.71,4.93l1.71-.42q7.8-8.59-.42-9.64Zm16.59-16.38a7.26,7.26,0,0,1-1.43,1.41l-.72,1.77-.15.68-.2.7a7.25,7.25,0,0,1-.68,1.42,1,1,0,0,1-.2.71v.71l-.17.35-1.43,6,.17,1.23-.52.35h-.52l-.91.16a4.12,4.12,0,0,0-2.46,0,2.29,2.29,0,0,1-1.07,1.06c.34,1.05.75,1.67,1.23,1.83s1.77-.09,3.9-.77l-.17.87v2.48a8.94,8.94,0,0,1-.35,2.44,8.26,8.26,0,0,1-.53,4.57,16.8,16.8,0,0,1-.77,4.6l.55.71,1.23-.35.71-1.23a6.64,6.64,0,0,0,.37-1.07c.25-1.53.42-2.63.49-3.27s.08-1.21.08-1.68l.37-1.92v-1.23l.15-.7-.15-.35.32-4.06,1.26-.51a4.76,4.76,0,0,0,1.4-.16l5.33-.35,1.26-.2,3.54-.22.91-.72a2.29,2.29,0,0,0-2.14-1.38,7.82,7.82,0,0,1-2,.23l-1.27.15a6.07,6.07,0,0,1-2.11,0l-.71.37a10.37,10.37,0,0,0-3.9.35l-1.26-.55.2-1-.2-.71.72-2.12.35-2.8.55-.9a5.89,5.89,0,0,1,.88-2.09,11.76,11.76,0,0,1,1.43-3.35,1.17,1.17,0,0,0-.72-1.41Zm25.84,16.89-.32-.16a5.71,5.71,0,0,1-2.21.51,27.67,27.67,0,0,0-4.1,1.67,1.85,1.85,0,0,0-1,.32l-.2.36-1.16,1.51a2,2,0,0,0-2.05.51l-.16.32a2.91,2.91,0,0,0-.36,1.36l-.52,1.86-.84.84-.17.51a3.72,3.72,0,0,0-1,1,14.86,14.86,0,0,1-3.58,4.05,8.05,8.05,0,0,1,1.69-5.72,2.82,2.82,0,0,0-1.69-2.54,7.5,7.5,0,0,1-1.37.67l-.52,1.87a15.18,15.18,0,0,1-.84,2.66l.17,1.2a6.93,6.93,0,0,0-.69,3.54,6.61,6.61,0,0,1,.69,1.35c2.94.2,5-.85,6.14-3.19a4.56,4.56,0,0,0,1.68-2.38,1.06,1.06,0,0,0,1-.68l.19.36.16.84a14.79,14.79,0,0,1,1,3.85,3.74,3.74,0,0,0,3.73.36l.19-.51.17-1.35a6.64,6.64,0,0,1,0-4.7l-.36-.2a1.64,1.64,0,0,0-.16-1.35l.52-1.15a5.8,5.8,0,0,1,.52-3.05,15.87,15.87,0,0,1,9.15-3q5.63,0,3.08-2l-.52.18-4.09-.18-2.2.51Zm15.58,1.47c-4.59,1.12-7.79,3.6-9.61,7.47a2.38,2.38,0,0,0,1.26.41l.42-.64h.62l.22-.39,1.05-.63,3.34-2.67,1.47.38a8.14,8.14,0,0,1-5.86,5c-1.68,1.77-3.22,1.84-4.6.18a8.51,8.51,0,0,0,.84-3.5,3.44,3.44,0,0,0-2.73-.83q-3.75,4.14-.61,7.46a8.59,8.59,0,0,0,8.15,0,13.1,13.1,0,0,0,7.72-6.21q3.12-3.72-1.46-6Zm23-14.5a2.9,2.9,0,0,0-2.47,1.48v.64a13,13,0,0,1,.39,4.48l-.39.63a6.79,6.79,0,0,0,0,2.55,10.16,10.16,0,0,1-.81,1.7v.87l-1.08,5.3-.18.45a28,28,0,0,0-.4,4.25,8.15,8.15,0,0,0-.42,4.25,5.19,5.19,0,0,0,3.51.45l.81-.45.2-.61.61-.22a11.75,11.75,0,0,0,2.08-1.72,2.25,2.25,0,0,1,.84-.83l1.85-1.7,1-.65.42-.64a28.07,28.07,0,0,0,3.5-3.41l.39.83Q185.6,228.56,206,209.8a11.12,11.12,0,0,1,1.27-2.35,3,3,0,0,0-1.46,0l-2.46,1.93-.62.23a22,22,0,0,0-2.48,2.12,17.39,17.39,0,0,0-3.73,2.77l-1.85.22-.61-1.51v-1.48l.22-.42.2-1.93-.2-.41a3.68,3.68,0,0,0,1-1.94,4.3,4.3,0,0,1,.81-3.18,7,7,0,0,1,.81-3.4,3.17,3.17,0,0,0-.42-2.77,3,3,0,0,0-3.89,1.93,3,3,0,0,1-.81.84,19.14,19.14,0,0,1-3.12,3l-.39.65A12.59,12.59,0,0,0,186,206.2l-.81.83-.42.23-.42.64-.82.42a10.32,10.32,0,0,1-2.27,2.13,9.91,9.91,0,0,1,0-4.9l.23-1.05a34,34,0,0,0,.81-3.64l.2-.83.19-.88.23-1.05.22-2.35a1.53,1.53,0,0,1,.39-1.07l.2-1.48a17.58,17.58,0,0,1,.62-4.88,3.86,3.86,0,0,0-1.43-1.29Zm34.25,5.08q-3.22,1.39.18,5.95l.62.19.39-1.19a4.62,4.62,0,0,0,1.4-2.95,3.51,3.51,0,0,0-2.59-2Zm-10,14.47a11.38,11.38,0,0,0-1.62,2l.23,1-.43.38a13.06,13.06,0,0,1-1.19,3.77q.18,4.19,4.41,2a11,11,0,0,0-.81-3.19,16.26,16.26,0,0,0,1.39-4.75,2.29,2.29,0,0,0-1.59-1.2ZM221,199.67q-5.73.59-6.61,5.41a2.75,2.75,0,0,0,.88,1.32l-.17.28.62.58a13.92,13.92,0,0,0,4,5l.74,1.15a6,6,0,0,1-6.62-2.18,6.76,6.76,0,0,0-1.78.74v.74l.45.28,1.33.58c2.75,2.53,5.89,3,9.41,1.32l.33-.58a4.93,4.93,0,0,0-1.21-2.8,15.93,15.93,0,0,1-5.28-7.17l.42-.87c4.43-3,5.67-2,3.7,3.22a1.11,1.11,0,0,0,1.46.58c3.35-3.8,2.82-6.32-1.63-7.59Zm11.83-16.5a7.54,7.54,0,0,1-1.43,1.41l-.72,1.77-.16.68-.2.7a6.9,6.9,0,0,1-.67,1.42,1,1,0,0,1-.2.71v.71l-.17.35-1.43,6,.17,1.23-.52.35H227l-.91.16a4.12,4.12,0,0,0-2.46,0,2.26,2.26,0,0,1-1.08,1.06c.35,1.05.76,1.67,1.23,1.83s1.78-.09,3.9-.77l-.16.87v2.48a8.58,8.58,0,0,1-.36,2.44,8.17,8.17,0,0,1-.52,4.57,17.2,17.2,0,0,1-.77,4.6l.55.71,1.23-.35.71-1.23a6.82,6.82,0,0,0,.36-1.07c.26-1.53.43-2.63.49-3.27s.09-1.21.09-1.68l.37-1.92v-1.23l.15-.7-.15-.35.32-4.06,1.26-.51a4.8,4.8,0,0,0,1.4-.16l5.33-.35,1.26-.2,3.53-.22.91-.72a2.27,2.27,0,0,0-2.14-1.38,7.79,7.79,0,0,1-1.95.23l-1.26.15a6.13,6.13,0,0,1-2.12,0l-.7.37a10.36,10.36,0,0,0-3.9.35l-1.27-.55.2-1-.2-.71.72-2.12.36-2.8.55-.9a5.72,5.72,0,0,1,.88-2.09,11.76,11.76,0,0,1,1.43-3.35,1.19,1.19,0,0,0-.72-1.41Zm20.84,18.36c-4.59,1.12-7.79,3.6-9.61,7.47a2.38,2.38,0,0,0,1.26.41l.43-.64h.62l.22-.39,1-.63,3.35-2.67,1.46.38a8.12,8.12,0,0,1-5.85,5c-1.69,1.77-3.23,1.84-4.61.18a8.51,8.51,0,0,0,.84-3.5,3.44,3.44,0,0,0-2.73-.83q-3.75,4.14-.61,7.46a8.59,8.59,0,0,0,8.15,0,13.1,13.1,0,0,0,7.72-6.21q3.12-3.72-1.46-6Zm3.92-1.77a5,5,0,0,0-1.14,1.17,1.79,1.79,0,0,1-.58,2.08,3.33,3.33,0,0,1,0,1.55l.39.35-.2,1a17,17,0,0,1-.19,2.67l.19.58-.19.57V211a12.53,12.53,0,0,1-.39,3.44,5,5,0,0,0,1.17,1.15,14.23,14.23,0,0,0,2.69-.57l.59-.94a19.8,19.8,0,0,1,5.77-10.71,2.28,2.28,0,0,0,1.73.38l.39-1.35a3.66,3.66,0,0,0-5-1.5l-.39.38-2,3.41-1.33,1.35-.2-.39.39-1.5a6.37,6.37,0,0,1,.39-3.25,2.44,2.44,0,0,0-2.14-1.17Zm22.08-7.65q-3.22,1.39.19,5.95l.62.19.39-1.19a4.6,4.6,0,0,0,1.39-2.95,3.49,3.49,0,0,0-2.59-2Zm-10,14.47a10.94,10.94,0,0,0-1.62,2l.22,1-.42.38a13.05,13.05,0,0,1-1.2,3.77c.12,2.79,1.6,3.45,4.41,2a10.65,10.65,0,0,0-.81-3.19,16.32,16.32,0,0,0,1.4-4.75,2.31,2.31,0,0,0-1.6-1.2Zm18.38-14.47q-3.22,1.39.18,5.95l.62.19.39-1.19a4.62,4.62,0,0,0,1.4-2.95,3.51,3.51,0,0,0-2.59-2Zm-10,14.47a11.38,11.38,0,0,0-1.62,2l.23,1-.43.38a13.06,13.06,0,0,1-1.19,3.77q.18,4.19,4.41,2a11,11,0,0,0-.81-3.19,16.26,16.26,0,0,0,1.39-4.75,2.27,2.27,0,0,0-1.59-1.2Zm27.3,1.62a2.55,2.55,0,0,0-2.2,1.57l.2.61a5.54,5.54,0,0,1,0,2.15l.22.62v1.38l-.22.58.22.61-.42,1.19a20,20,0,0,1,0,4,4,4,0,0,0,2,1.15l.78-1a5.13,5.13,0,0,1,.42-2,13.53,13.53,0,0,1,.2-2.56,16.05,16.05,0,0,0,.39-7.92l-.78-.38Zm25.91-21-.33.57-1.36,4.25a1.86,1.86,0,0,1-.29.73,2.93,2.93,0,0,1-.42,1.55l.07.58-.27,1.51-.74,2.13-.17,2.11-.16.39-.32,2.32a14.21,14.21,0,0,0-.52,2.66,52.91,52.91,0,0,0-9.87,31.14,17.07,17.07,0,0,0-.52,2.48c-.09.4-.05.67.1.8l-.26,1.35a39.16,39.16,0,0,1,.23,4.22c.3,1.77,1.21,2.49,2.73,2.11a14.36,14.36,0,0,0,.87-3.08l.64-1.15a15.72,15.72,0,0,1,.66-3.25l.55-2.13a2,2,0,0,1,.29-.77,1.77,1.77,0,0,1,.32-.77l.65-3.08.43-1.33a18.36,18.36,0,0,1,1-3.44l0-.61a12,12,0,0,0,.46-2.86l.29-1a10.86,10.86,0,0,0,.78-3.87l.91-2.5.09-1-.09-.93a4.86,4.86,0,0,0,.55-2.48,8.1,8.1,0,0,0,.43-3.28,8.85,8.85,0,0,0,.67-2.86l.36-.43a9,9,0,0,1,3.16-3.43c1,1.14,1.18,2.21.5,3.25a3.18,3.18,0,0,1-2.07,2.7q.11,2.86,3,2.66a11.81,11.81,0,0,0,2.7-5.56c.3-3.47-1.09-5.78-4.15-6.92a5.65,5.65,0,0,1-2.29,1l.33-.77-.06-.77.32-.58a1,1,0,0,1,.1-.73l.39-2,.35-.58a23.42,23.42,0,0,0,.82-3.4,7.64,7.64,0,0,0,.74-2.35,3.54,3.54,0,0,1,1.37-1.72,2.25,2.25,0,0,0-1.37-1.92l-1.62,1Zm-5.88,26.53-.1.94a9.92,9.92,0,0,0-.64,3.05l-1.3,6.17.07.78-.49,1.35-.55,2.08a4.23,4.23,0,0,1-.42,1.58l.06.54-.33.58-.42,1.74a13.7,13.7,0,0,1-1.58,5l-.46-.39.26-1.32a4.85,4.85,0,0,1,.2-1.95A6.85,6.85,0,0,1,320,231a22.72,22.72,0,0,1,.62-5.18l.65-3.28.42-1.54,1.73-4.22a18.13,18.13,0,0,0,1.71-3.86l.29.81Zm29.51-12.23c-4.59,1.12-7.79,3.6-9.61,7.47a2.38,2.38,0,0,0,1.27.41l.42-.64h.62l.22-.39,1-.63,3.35-2.67,1.46.38a8.1,8.1,0,0,1-5.85,5c-1.69,1.77-3.23,1.84-4.61.18a8.51,8.51,0,0,0,.84-3.5,3.44,3.44,0,0,0-2.73-.83c-2.5,2.76-2.71,5.24-.6,7.46a8.57,8.57,0,0,0,8.14,0,13.1,13.1,0,0,0,7.72-6.21q3.12-3.72-1.46-6ZM365,183.17a7.26,7.26,0,0,1-1.43,1.41l-.72,1.77-.15.68-.2.7a7.25,7.25,0,0,1-.68,1.42,1,1,0,0,1-.2.71v.71l-.17.35-1.42,6,.16,1.23-.52.35h-.52l-.91.16a4.11,4.11,0,0,0-2.46,0,2.25,2.25,0,0,1-1.07,1.06c.34,1.05.75,1.67,1.23,1.83s1.77-.09,3.9-.77l-.17.87v2.48a8.94,8.94,0,0,1-.35,2.44,8.35,8.35,0,0,1-.52,4.57,17.12,17.12,0,0,1-.78,4.6l.55.71,1.24-.35.7-1.23a5.78,5.78,0,0,0,.37-1.07c.25-1.53.42-2.63.49-3.27s.08-1.21.08-1.68l.37-1.92v-1.23l.16-.7-.16-.35.32-4.06,1.27-.51a4.73,4.73,0,0,0,1.39-.16l5.33-.35,1.26-.2,3.54-.22.91-.72a2.29,2.29,0,0,0-2.14-1.38,7.79,7.79,0,0,1-1.95.23l-1.27.15a6.07,6.07,0,0,1-2.11,0l-.71.37a10.37,10.37,0,0,0-3.9.35l-1.26-.55.2-1-.2-.71.72-2.12.35-2.8.56-.9a5.9,5.9,0,0,1,.87-2.09,11.76,11.76,0,0,1,1.43-3.35,1.17,1.17,0,0,0-.72-1.41Zm15.46,13.31-.56-.18a2.88,2.88,0,0,1-2.27,1.11Q363.17,209.56,372,217l.94.36h3.42a6.26,6.26,0,0,1,2.79-.74,6.54,6.54,0,0,1,2.66-1.32,7.25,7.25,0,0,1,1.29-.93,1.47,1.47,0,0,0,.75-.36l2.27-1.66a13.73,13.73,0,0,0,3.41-2.58l1.56-1.9c.3-1-.12-1.27-1.27-.71a9.52,9.52,0,0,0-2,1.45,18.7,18.7,0,0,1-2.64,1.67l-1.87,1.48-.55.39-1.14.55-.59.38-3,1.48-.39-.19a4.93,4.93,0,0,1-4,.19,4.06,4.06,0,0,1-1.88-2.41,34.4,34.4,0,0,0,14.32-12.48,11.29,11.29,0,0,0-.55-2.64l-1.14-.55a10.68,10.68,0,0,1-3-.38l-.94.38Zm2.07,2.8a11.5,11.5,0,0,1-5.1,6.15,11.27,11.27,0,0,1-5.25,3.37q2.26-7.63,9.22-9.9l1.13.38Zm9.25,3.38q-5.82,6-4.91,13.29,1.8,4.65,9.84-3.54,2.7,9.09,11.13,4.21l2.56-1.45a16.63,16.63,0,0,0,2.85-2.47,8.63,8.63,0,0,0,1.47-3c.24-1,0-1-.77-.15a12.46,12.46,0,0,1-2.89,2.86l-2.7,1.41-1.17.61c-1.32.43-2.49.79-3.53,1.1q-5.82-2.9-1.33-10a3.48,3.48,0,0,0-1.82-2.23,7,7,0,0,0-3.12,1.13l.23,1.55-.91.9a22.23,22.23,0,0,1-6.73,6.85l-.45-.42.45-.68-.22-.67,2-5.76a6.7,6.7,0,0,0,1.13-2.67,1.47,1.47,0,0,0-1.13-.87Zm29.83-3.11q-12.76,5.13-10.82,17.36l1.08.84a9.75,9.75,0,0,0,3.9,1.93A34.28,34.28,0,0,0,434,209.83l-.65-1.09q-24,15.67-18.18-.42a9.58,9.58,0,0,1,6.5-5.14l.42,1.5a9,9,0,0,0-1.72,4.93l1.72-.42q7.79-8.59-.42-9.64Zm16.94-8.92a2.43,2.43,0,0,0-1.27,1.8,2.26,2.26,0,0,0,1,1.83c-.09,2.43.51,3.58,1.81,3.48l.16-.54.13-.84a16.41,16.41,0,0,1,.71-2.8l-2.52-2.93Zm.13,0c1.48.09,2.24.82,2.24,2.22l-2.24-2.22Zm-5.33,14.63v.84l-.42.68-.42,2.38a5.58,5.58,0,0,0-.69,1.67l-1.26,4.77v.83l-.29,1a4.21,4.21,0,0,1-.3,1.25,12.71,12.71,0,0,1-.12,2,6.07,6.07,0,0,0-.21.84c-.06.27-.11.54-.14.76s-.12.64-.2,1.19l-.17.85a6.22,6.22,0,0,1-.26,1.8l-.29,2.25-.13.55-.3.41v.57l-.15.85a17.14,17.14,0,0,0-.84,3.6l-.27.29a12.72,12.72,0,0,1-2.69,5.3,7.12,7.12,0,0,1-1.82-2.37V237a22.8,22.8,0,0,1-.84-4.19,5.3,5.3,0,0,0,.25-1.54l.17-.42.13-1a4.68,4.68,0,0,0,.42-1.83l.29-.42.42-1.53.42-.42a7.71,7.71,0,0,1,.72-1.68,7.32,7.32,0,0,1,1.27-2.63v-.42a7.1,7.1,0,0,0,.67-2.8l-1.51.13-1.15,1.67-.71.83-2.53,6.57-.42.7a16.37,16.37,0,0,1-.71,2.68,18.56,18.56,0,0,1-.27,3.47q2.79,13.4,8.73,5.72l.27-1.12a4.57,4.57,0,0,0,.87-2.09l.26-.43v-.53l.3-.55a2.78,2.78,0,0,1,.29-1.29l.13-1.1.12-1,.59-2.09a10.64,10.64,0,0,1,.42-2.38l.42-1.94.13-.83.14-.7.28-2,.14-.71v-.54l.42-2.38.16-1,.13-.83a15.59,15.59,0,0,0,.55-2.51,4.85,4.85,0,0,0,.59-2.26l.42-.41.13-.25a12.48,12.48,0,0,1,.71-2.55,6.93,6.93,0,0,0,1.56-2.92l-.42-.85H434.2l-.84.58Zm14.58-6.62q-12,5.45-9.12,15.73,6.21,4.89,12.4-1.61c4,1.56,7.73.48,11.13-3.28a5.81,5.81,0,0,0,2.07-2.49c.17-.7,0-1-.41-.76L463,207,461.45,208l-1.27.74a20.18,20.18,0,0,0-2.57,1.61l-1.26.55a5.67,5.67,0,0,1-2-.35l-.19-.55a5.74,5.74,0,0,1,1.3-2.16,28.62,28.62,0,0,1,2.92-4.69c-1.1-2.54-2.63-2.36-4.58.51-.48-3.5-2.42-5.18-5.84-5.05Zm-.13,2.77q5.82-.39,1.17,7.84a1.5,1.5,0,0,0,1.17.16.54.54,0,0,0-.16.84q-6,7.27-9.67,2l.15-.68q-.17-6.44,7.34-10.16Zm38.4-23.8-.72-.2-1,.2h-1.36a9.45,9.45,0,0,0-3.35.54,4.29,4.29,0,0,0-1.75,0l-3.16.36-1,.39-.75-.2-1,.2-1.19.38h-1a1.48,1.48,0,0,1-1,0l-1,.35-1.82.2-.81.19-1,.16-2.6.58a12,12,0,0,0-1.59.16,16.81,16.81,0,0,1-3.86.93,4.89,4.89,0,0,0-1.91,1.86,7.28,7.28,0,0,0,4.08,1.68,10.56,10.56,0,0,1,2.41-2.22l6.19-1.12.82-.39a13.2,13.2,0,0,0,3.15-.35l1-.2a12.92,12.92,0,0,1,2.79-.35l2.56-.38,1-.2,1-.16,1.75-.19h2.5l.45-.2,4.26-.19a5.73,5.73,0,0,1,1.95,0h5a6.43,6.43,0,0,0,2.21.39,1.94,1.94,0,0,0,.58-.93l-1.39-.55a5.38,5.38,0,0,0-2-.94H492.8l-.72-.19-1.39.19-3.41-.19-1.07.39ZM469.39,194.4a29.24,29.24,0,0,0-2.79,8.65,21.78,21.78,0,0,0-1,3.43,43.27,43.27,0,0,0-2.27,9.82q3.54,2.28,4.74-8.94a43.88,43.88,0,0,1,1.18-6.34l.19-1.74a7.24,7.24,0,0,0,.65-3.44c-.18-.77-.41-1.26-.72-1.44Zm25.48-7.17-.32.57-1.36,4.25a1.86,1.86,0,0,1-.29.73,3,3,0,0,1-.42,1.55l.07.58-.27,1.51-.74,2.13-.17,2.11-.17.39-.32,2.32a16,16,0,0,0-.52,2.66,52.83,52.83,0,0,0-9.86,31.14,15.82,15.82,0,0,0-.52,2.48c-.09.4-.05.67.1.8l-.26,1.35a39.16,39.16,0,0,1,.23,4.22c.3,1.77,1.21,2.49,2.72,2.11a14.55,14.55,0,0,0,.88-3.08l.64-1.15a15.77,15.77,0,0,1,.65-3.25l.56-2.13a2,2,0,0,1,.29-.77,1.65,1.65,0,0,1,.32-.77l.65-3.08.42-1.33a20.06,20.06,0,0,1,1-3.44l0-.61a12.47,12.47,0,0,0,.46-2.86l.28-1a10.62,10.62,0,0,0,.79-3.87l.91-2.5.09-1-.09-.93a4.86,4.86,0,0,0,.55-2.48,7.91,7.91,0,0,0,.42-3.28,8.89,8.89,0,0,0,.68-2.86l.35-.43a9.11,9.11,0,0,1,3.16-3.43c1,1.14,1.19,2.21.51,3.25a3.18,3.18,0,0,1-2.07,2.7q.11,2.86,3,2.66A11.83,11.83,0,0,0,500,207q.45-5.2-4.16-6.92a5.62,5.62,0,0,1-2.28,1l.33-.77-.06-.77.32-.58c-.05-.36,0-.61.1-.73l.38-2,.36-.58a24.9,24.9,0,0,0,.82-3.4,7.64,7.64,0,0,0,.74-2.35,3.58,3.58,0,0,1,1.36-1.72,2.22,2.22,0,0,0-1.36-1.92l-1.63,1ZM489,213.76l-.1.94a9.92,9.92,0,0,0-.64,3.05l-1.3,6.17.07.78-.49,1.35-.55,2.08a4.23,4.23,0,0,1-.42,1.58l.06.54-.33.58-.42,1.74a13.51,13.51,0,0,1-1.59,5l-.45-.39.25-1.32a5,5,0,0,1,.2-1.95,6.7,6.7,0,0,1,.29-2.87,22.72,22.72,0,0,1,.62-5.18l.65-3.28.42-1.54,1.72-4.22a18.25,18.25,0,0,0,1.72-3.86l.29.81Z"/><path class="cls-1" d="M505.55,199.76a5.19,5.19,0,0,0-1.14,1.17,1.76,1.76,0,0,1-.58,2.08,3.08,3.08,0,0,1,0,1.55l.39.35-.2,1a15.91,15.91,0,0,1-.19,2.67l.19.58-.19.57V211a13,13,0,0,1-.38,3.44,4.82,4.82,0,0,0,1.16,1.15,14.06,14.06,0,0,0,2.69-.57l.59-.94a19.87,19.87,0,0,1,5.77-10.71,2.28,2.28,0,0,0,1.73.38l.39-1.35a3.66,3.66,0,0,0-5-1.5l-.39.38-1.95,3.41-1.33,1.35-.2-.39.39-1.5a6.37,6.37,0,0,1,.39-3.25,2.44,2.44,0,0,0-2.14-1.17Zm19.9,2.49-1.52.18-1.34.2-1.52.55-.38.19a6.63,6.63,0,0,0-2.51,1.16,8.81,8.81,0,0,0-3.8,1.87h-.58l-.94,1.7a10.62,10.62,0,0,0,1.14,2.28h2.65a10.61,10.61,0,0,1-.15-1.51l.54-.57,4-2.27a13.11,13.11,0,0,0,2.86-.95.92.92,0,0,1,.19.95,5.87,5.87,0,0,0-1.64,1.41,6.78,6.78,0,0,1-2,1.62,9.19,9.19,0,0,1-2.47,2.83l-.78,2.44a7.36,7.36,0,0,0,2.11,2.29,4.32,4.32,0,0,1,1.88.36h3.64l1.14-.2a10.29,10.29,0,0,0,2.3-.16l1.14.16.78-.35a6,6,0,0,0,2.27-.39h1.14l2.1-.19a2.12,2.12,0,0,0,0-1.32h-2.66l-2.11-.38-1.13.18-4.58.39-.39-.19a6.87,6.87,0,0,1-3.44-.77l.59-1.68.39.17a1.87,1.87,0,0,1,1.12-1.52l.2-.35.56-.38.19-.59a5,5,0,0,0,1.72-1.7l2.5-2.63c.11-1.77-.6-2.77-2.11-3l-1.14.2Zm26.78-.75-1.55.51-.32.36-1,.48-6.66,5.35-2.89,2.53a3.59,3.59,0,0,1-2.21.93l-.35-1.18a6.33,6.33,0,0,0,.52-3.06,16.65,16.65,0,0,0,1-3.69,2.85,2.85,0,0,0-2.41-.88l-.32.68a6.24,6.24,0,0,1-1.73,1.7l-.15.32a9.1,9.1,0,0,0-1,2l-.32.52-1.37,1.54-.16.49L528.86,214l-.52.52a11.65,11.65,0,0,1-1,1.67,2.53,2.53,0,0,0,0,1.35l1.18-.15A5,5,0,0,1,529.7,216l.2-.32a9.2,9.2,0,0,1,1.53-2.22l.85-1.35a11,11,0,0,0,2.56-3.18c-.24,3.91,1.13,5.66,4.08,5.21l.17-.33a10.86,10.86,0,0,0,3.92-2.7l.17-.35q5.72-4.89,8.37-6l.33.2-.52,1.77-.49,1.18v.52a14.54,14.54,0,0,0-1,3.38l-.17.67-.17.68-.67,1.87c-1.25,4.82-2,7.68-2.14,8.58l-.52,2.38-.27,1.87c-.77,4-1.28,6.32-1.51,7l-.27,2-.68,4.74-.58,5.3a1.73,1.73,0,0,0,1.68,1.35l.35-1c.34-1.84.63-3.36.88-4.54s.59-2.84,1-4.91l2.4-13.77,1.53-6.27.84-3.34c.63-2,1.23-4,1.82-6l.42-1.54.16-1.16a10.4,10.4,0,0,0,.85-2.7,3.07,3.07,0,0,0-1-1.55l-1.2-.15-.33.15Zm10.46-1.83c-3.82.39-6,2.19-6.62,5.41a2.75,2.75,0,0,0,.88,1.32l-.17.28.62.58a14.14,14.14,0,0,0,4,5l.74,1.15a6,6,0,0,1-6.61-2.18,6.69,6.69,0,0,0-1.79.74v.74l.46.28,1.33.58c2.74,2.53,5.88,3,9.4,1.32l.34-.58a4.93,4.93,0,0,0-1.21-2.8,16,16,0,0,1-5.29-7.17l.42-.87c4.44-3,5.68-2,3.7,3.22a1.12,1.12,0,0,0,1.47.58c3.34-3.8,2.81-6.32-1.63-7.59ZM577,202.25l-1.51.18-1.35.2-1.51.55-.39.19a6.52,6.52,0,0,0-2.5,1.16,8.76,8.76,0,0,0-3.8,1.87h-.59l-.93,1.7a10.21,10.21,0,0,0,1.13,2.28h2.66a10.93,10.93,0,0,1-.16-1.51l.54-.57,4-2.27a13.29,13.29,0,0,0,2.86-.95.94.94,0,0,1,.18.95,5.87,5.87,0,0,0-1.64,1.41,6.65,6.65,0,0,1-2,1.62,9.19,9.19,0,0,1-2.47,2.83l-.78,2.44a7.36,7.36,0,0,0,2.11,2.29,4.32,4.32,0,0,1,1.88.36h3.65l1.13-.2a10.29,10.29,0,0,0,2.3-.16l1.14.16.78-.35a6,6,0,0,0,2.27-.39h1.14l2.11-.19a2.27,2.27,0,0,0,0-1.32h-2.66l-2.12-.38-1.13.18-4.58.39-.38-.19a6.88,6.88,0,0,1-3.45-.77l.59-1.68.39.17a1.88,1.88,0,0,1,1.13-1.52l.2-.35.55-.38.19-.59a5.12,5.12,0,0,0,1.73-1.7l2.49-2.63c.11-1.77-.6-2.77-2.1-3l-1.15.2Zm30.29-24.64-.72-.2-1,.2h-1.37a9.4,9.4,0,0,0-3.34.54,4.29,4.29,0,0,0-1.75,0l-3.16.36-1,.39-.75-.2-1,.2-1.2.38h-1a1.47,1.47,0,0,1-1,0l-1,.35-1.81.2-.81.19-1,.16-2.59.58a12,12,0,0,0-1.6.16,16.73,16.73,0,0,1-3.85.93,4.92,4.92,0,0,0-1.92,1.86,7.31,7.31,0,0,0,4.09,1.68,10.73,10.73,0,0,1,2.4-2.22l6.2-1.12.82-.39a13.11,13.11,0,0,0,3.14-.35l1-.2a13.06,13.06,0,0,1,2.79-.35l2.56-.38,1-.2,1-.16,1.75-.19h2.49l.46-.2,4.25-.19a5.72,5.72,0,0,1,2,0h5a6.42,6.42,0,0,0,2.2.39,1.89,1.89,0,0,0,.59-.93l-1.4-.55a5.3,5.3,0,0,0-2-.94h-1.9l-.72-.19-1.4.19-3.4-.19-1.08.39ZM590.48,194.4a29,29,0,0,0-2.8,8.65,20.72,20.72,0,0,0-1,3.43,42.75,42.75,0,0,0-2.27,9.82q3.54,2.28,4.74-8.94a45.43,45.43,0,0,1,1.17-6.34l.19-1.74a7.25,7.25,0,0,0,.66-3.44c-.18-.77-.41-1.26-.72-1.44Zm18.73,7.13c-4.59,1.12-7.79,3.6-9.6,7.47a2.38,2.38,0,0,0,1.26.41l.42-.64h.62l.22-.39,1-.63,3.35-2.67,1.46.38a8.1,8.1,0,0,1-5.85,5c-1.68,1.77-3.22,1.84-4.61.18a8.35,8.35,0,0,0,.84-3.5,3.43,3.43,0,0,0-2.72-.83q-3.76,4.14-.61,7.46a8.57,8.57,0,0,0,8.14,0,13.07,13.07,0,0,0,7.72-6.21q3.14-3.72-1.46-6Zm11-14.08V188l-.17,2.08.39,1.13-.39.55a5.33,5.33,0,0,1-.11,2.15,5.2,5.2,0,0,0-.11,2.16,7.25,7.25,0,0,0-.33,2l-.58,1a1.89,1.89,0,0,0,2.07.55v-.55l.36-1.32V197a6,6,0,0,0,.39-2l.4-1.52a15.19,15.19,0,0,0,1.13-3.92l.75-1.13a3.44,3.44,0,0,0-2.28-1.87l-1.52.94Zm-5.82,14.41q-6.06,1.66,1.47,7.49,5.88,5.06,1.52,5.05l-.55.2-.2-.39a10.86,10.86,0,0,1-4-4.48l-.74-.57-.55.35a9,9,0,0,0,4.35,7.49q5.08,1.35,7.76-2.6l.15-2.05-1.68-1.49a11.92,11.92,0,0,0-2.66-2.63l-.56-.39a7.08,7.08,0,0,0-2.27-2l.39-.58a7.74,7.74,0,0,0,3.21,1.13q.16-4.5-5.65-4.5ZM633,199.55q-12.76,5.13-10.82,17.36l1.08.84a9.81,9.81,0,0,0,3.9,1.93,34.21,34.21,0,0,0,18.17-9.85l-.64-1.09q-24,15.67-18.19-.42a9.58,9.58,0,0,1,6.5-5.14l.42,1.5a9,9,0,0,0-1.72,4.93l1.72-.42q7.79-8.59-.42-9.64Zm21.26-7.44q-3.22,1.39.19,5.95l.62.19.39-1.19a4.6,4.6,0,0,0,1.39-2.95,3.49,3.49,0,0,0-2.59-2Zm-10,14.47a10.94,10.94,0,0,0-1.62,2l.22,1-.42.38a13.37,13.37,0,0,1-1.2,3.77c.12,2.79,1.6,3.45,4.41,2a10.65,10.65,0,0,0-.81-3.19,16.64,16.64,0,0,0,1.4-4.75,2.31,2.31,0,0,0-1.6-1.2Z"/><path class="cls-1" d="M191.92,95.86a86.9,86.9,0,0,0-1.44,8.71c-.15,1.28-.26,2.43-.29,3.23h0l264.17.27a1.77,1.77,0,0,0,0-.2C450.26,86.22,434,67,410.22,53.16S355.43,31.1,321.33,31.1c-30.68,0-58.94,6.74-81.54,18.09-23,11.55-40.12,27.87-47.87,46.67Zm-4.31,8.37a82.55,82.55,0,0,1,1.64-9.47c8-19.45,25.62-36.29,49.25-48.15,23-11.55,51.71-18.41,82.83-18.41,34.62,0,66.25,8.48,90.34,22.46,24.52,14.22,41.27,34.16,45.5,56.69a5.65,5.65,0,0,0,.32,1.13,1.66,1.66,0,0,1,.07,1.56c-.45,1-.95.95-2.15.94h-.55L189,110.7h0a1.42,1.42,0,0,1-.43-.07c-.95-.28-1.31-1.36-1.26-2.92,0-1,.14-2.18.3-3.49Zm1.69,3.58h0ZM380.79,87.07c4.09,2,7.57,3.37,9.65,7.69h5.73L399.7,76l5.92-14.8v-7l7.44,1.44-5.92,2.36c0,5.79,2.92,10.9,4.85,18,.15,1.09,3.22,16.8,3.69,17.47,17,24.4,67.14-14.33,71.62,41v12.34H348.91l-9.53-25.62h-.92l-10.27,25.62h-4.86a10.22,10.22,0,0,0,3.22-2.17L324.62,142a7,7,0,0,1-11-.17,11.36,11.36,0,0,1-2.1-7.11,12.72,12.72,0,0,1,2.05-7.51,6.3,6.3,0,0,1,5.42-2.91c2.41,0,4.18.4,5.3,1.23l1.18-3a13,13,0,0,0-6.57-1.39,9.82,9.82,0,0,0-8,3.8,14.75,14.75,0,0,0-3.08,9.57c0,3.95,1,7.15,2.89,9.57a9.37,9.37,0,0,0,3.52,2.77H303.22V121.56h-3.51v25.28h-5.87V121.56H290.5v17.78l-12.92-17.78h-1.4v25.28h-9.64a8.56,8.56,0,0,0,3.12-1.6,6.59,6.59,0,0,0,2.48-5.39,7,7,0,0,0-1.39-4.63,8,8,0,0,0-4.45-2.44,5.74,5.74,0,0,0,2.95-1.85,4.74,4.74,0,0,0,1.33-3.26,5.62,5.62,0,0,0-2.09-4.69,9.34,9.34,0,0,0-5.89-1.64q-2.07,0-6.75.22v25.28h-4.08v-2.73H240.11v-9.26h8.5v-3h-8.5v-7.14H252v-3.16H236.61v25.28h-4.38v-2.73H220.75l11.09-21.66v-.89h-15.7v3.16H227L216,146.39v.45h-2l-7.18-11.4A6.26,6.26,0,0,0,210.3,133a7,7,0,0,0,1.49-4.36q0-7.36-9.26-7.37c-.77,0-2,0-3.7.14s-2.59.12-2.72.12v25.28H182.24V119.09h10.67v-4H167.64c0-18,34.82-30.9,48.61-35.5L216,65.36l6.66-21.14h12.54V37.16h-4.48v-1h4.48V31.43h1.17v4.73h4.51v1h-4.51v7.06l6.31,20.64,0,14.93c17.4,4.14,48.81,4.5,62.35-10.38l.2-19.38,3.06-3,.07-18.63c-1.91-2-2.68-1.88-.31-4,0-6.13,1.46-11.15,6.92-14.78a1.62,1.62,0,0,0,.08-.9c-2.33-1.72-.38-1.42.88-2.61-.14-.66-1.25-.51-1.06-1.38.22-1,1.45-1,2.25-1.21l0-1.7-1.5.31V1.11l1.46,0L316.86,0h1.67l-.3,1.11,1.53-.05,0,1.06-1.49-.31V3.52c.81.2,2,.16,2.25,1.2.19.87-.91.73-1.05,1.38,1.26,1.2,3.2.89.88,2.61a1.66,1.66,0,0,0,.07.91c5.47,3.63,6.92,8.65,6.92,14.77,2.37,2.13,1.6,2-.31,4L327.1,47l3,2.95.24,19.38c.25.13-3.17,26.29,16.46,25.67,1.85-4.28,5.9-6.34,9.23-7.92,2.37-1.14,4.71-1.65,5.71-3.45q0-6,0-12c-.5-.08-.75-.86-.79-1.54a3.59,3.59,0,0,0,1.15-1.53,28.83,28.83,0,0,0,.19-3.38c.32-1.38,1.89-2.49,3.42-3.28A4.89,4.89,0,0,0,367.32,60l.36-4.13-2.44-.09.12-.73,2.27,0,.07-4.3h.84l.23,4.27,2.38-.05.07.74-2.29.14.58,4.17a4.19,4.19,0,0,0,1.55,1.91c1.54.79,3.1,1.9,3.42,3.29a28.66,28.66,0,0,0,.19,3.37,3.62,3.62,0,0,0,1.15,1.54c0,.68-.29,1.45-.79,1.53q0,6,.05,12c.93,1.68,3,2.24,5.22,3.22l.27.13.22.1ZM345,146.84l-1.64-5h-9.55l-1.75,5Zm-52.81,0-12.72-18v18Zm-82.3,0-6.59-10.61q-1.18,0-3.72-.18v10.79Zm-32.08,0V119.09H167.64l.05,27.75Zm21.77-22.12v8.35a17.39,17.39,0,0,0,2.46.18,8.08,8.08,0,0,0,4.59-1c1-.67,1.44-1.89,1.44-3.63a3.39,3.39,0,0,0-1.54-3.11,9.7,9.7,0,0,0-4.88-.94c-.36,0-1,.06-2.07.17Zm59.73-.35v7.39c.75.06,1.66.1,2.74.1q5,0,5-4.05,0-3.56-4.58-3.56-1.75,0-3.15.12Zm0,10.1v9.81c1.21.12,2.14.18,2.78.18a7.55,7.55,0,0,0,4.81-1.24,4.79,4.79,0,0,0,1.52-3.93,4.51,4.51,0,0,0-1.45-3.71c-1-.79-2.57-1.19-4.83-1.19l-2.83.08ZM338.76,128l-4,11.3h7.62Z"/><path class="cls-1" d="M74.42,277.32H72.64v-2.89h1.78v-3.12L78,270v4.44h4.24v2.89H78v6.74a4,4,0,0,0,.51,2.33,2.18,2.18,0,0,0,1.82.68,4.46,4.46,0,0,0,2.42-.71v3.33a11.41,11.41,0,0,1-3.57.43,4.67,4.67,0,0,1-3.55-1.3,5.14,5.14,0,0,1-1.24-3.7Z"/><path class="cls-1" d="M93.69,277.8a3.79,3.79,0,0,0-2.11-.64,2.87,2.87,0,0,0-2.22,1.14,4.11,4.11,0,0,0-1,2.77v8.77H84.78V274.43h3.61v1.43a5.09,5.09,0,0,1,4-1.71,5.77,5.77,0,0,1,2.81.56Z"/><path class="cls-1" d="M96.19,289.84v-1.22l8.4-11.06H96.34v-3.13h13.48v1.27l-8.09,11h8.17v3.13Z"/><path class="cls-1" d="M125.62,283.23h-11a3.93,3.93,0,0,0,1.26,2.86,4.57,4.57,0,0,0,3.13,1,5.06,5.06,0,0,0,3.73-1.27l1.39,2.74a8.76,8.76,0,0,1-5.64,1.54,7.51,7.51,0,0,1-5.56-2.06,7.84,7.84,0,0,1-2-5.76,8,8,0,0,1,2.25-5.89,7.85,7.85,0,0,1,10.75-.26,6.82,6.82,0,0,1,2,5.08A10.11,10.11,0,0,1,125.62,283.23Zm-10.83-2.7h7.53a3.37,3.37,0,0,0-3.73-3.37C116.55,277.16,115.28,278.29,114.79,280.53Z"/><path class="cls-1" d="M130.83,289l-.81,1.13h-2V268.71l3.61-.86V275a6,6,0,0,1,3.15-.88,7.28,7.28,0,0,1,5.47,2.14,7.5,7.5,0,0,1,2.08,5.47,8.64,8.64,0,0,1-2.09,6.11,7.39,7.39,0,0,1-5.68,2.25A6.1,6.1,0,0,1,130.83,289Zm.76-10.88v8a2.69,2.69,0,0,0,2.16.93,4.78,4.78,0,0,0,3.72-1.23,5.88,5.88,0,0,0,1.1-3.95c0-3.12-1.51-4.69-4.53-4.69A3.2,3.2,0,0,0,131.59,278.11Z"/><path class="cls-1" d="M154.58,289.84V281a4.43,4.43,0,0,0-.76-2.88,3,3,0,0,0-2.46-.91,3.75,3.75,0,0,0-1.68.45,3.88,3.88,0,0,0-1.4,1.11v11.12h-3.61V274.43h2.59l.66,1.44a5.37,5.37,0,0,1,4.33-1.72,5.73,5.73,0,0,1,4.34,1.65,6.34,6.34,0,0,1,1.59,4.59v9.45Z"/><path class="cls-1" d="M161.81,289.84V277.36h-2v-2.93h5.63v15.41Zm1.88-21.35a2.08,2.08,0,0,1,2.08,2.07,2.08,2.08,0,0,1-2.08,2.09,2.08,2.08,0,0,1-2.08-2.09,2.08,2.08,0,0,1,2.08-2.07Z"/><path class="cls-1" d="M180.91,275.66l-1.54,2.69a4.78,4.78,0,0,0-3.4-1.19,4.1,4.1,0,0,0-3.23,1.36,5.51,5.51,0,0,0-1.18,3.75q0,4.85,4.62,4.84a5.2,5.2,0,0,0,3.52-1.31l1.33,2.82a9.2,9.2,0,0,1-2.74,1.24,13.11,13.11,0,0,1-2.77.26,7.58,7.58,0,0,1-5.63-2.08,7.83,7.83,0,0,1-2.06-5.77,7.92,7.92,0,0,1,2.26-5.88,8.34,8.34,0,0,1,6.15-2.24A7.47,7.47,0,0,1,180.91,275.66Z"/><path class="cls-1" d="M191.63,288.31a3.52,3.52,0,0,1-1.7,1.31,6.64,6.64,0,0,1-2.53.5,5.69,5.69,0,0,1-3.9-1.24,4.44,4.44,0,0,1-1.42-3.53,4.94,4.94,0,0,1,2-4.18,9.22,9.22,0,0,1,5.67-1.51,6.89,6.89,0,0,1,1.49.2q0-2.7-3.42-2.7a7.52,7.52,0,0,0-3.37.68l-.78-2.78a10,10,0,0,1,4.42-.91c2.34,0,4.07.54,5.16,1.6s1.64,3.09,1.64,6.07v3.29c0,2.05.41,3.34,1.23,3.86a1.87,1.87,0,0,1-1,1,4,4,0,0,1-1.25.18,2,2,0,0,1-1.4-.57A2.8,2.8,0,0,1,191.63,288.31Zm-.36-5.72a7.29,7.29,0,0,0-1.37-.2c-2.81,0-4.22.94-4.22,2.8,0,1.39.8,2.08,2.38,2.08q3.21,0,3.21-3.24Z"/><path class="cls-1" d="M198.43,288a2.6,2.6,0,0,1,5.2,0,2.6,2.6,0,1,1-5.2,0Z"/><path class="cls-1" d="M210.75,289.45v6.42h-3.61V274.43h3.61v1a4.6,4.6,0,0,1,3.32-1.31q7.38,0,7.38,8.11a7.87,7.87,0,0,1-2,5.82,7.52,7.52,0,0,1-5.57,2A7,7,0,0,1,210.75,289.45Zm0-11.24v8.07a3.52,3.52,0,0,0,2.29.79,4.69,4.69,0,0,0,3.59-1.18,7.14,7.14,0,0,0,0-7.57,4.82,4.82,0,0,0-3.58-1.12A3.18,3.18,0,0,0,210.75,278.21Z"/><path class="cls-1" d="M224.18,268.71l3.6-.86v17.31q0,2.83,1.71,3.39a3,3,0,0,1-2.86,1.57c-1.64,0-2.45-1.13-2.45-3.39Z"/><path class="cls-1" d="M246.45,295.87V268.13h3v27.74Z"/><path class="cls-1" d="M275.83,271.41A6.33,6.33,0,0,0,274,271a2.14,2.14,0,0,0-1.73.88,3.27,3.27,0,0,0-.71,2.16v.37h3.21v2.93h-3.13v12.48h-3.61V277.36h-2.26v-2.93h2.26a7,7,0,0,1,1.68-4.56,5.18,5.18,0,0,1,4-1.74,11.21,11.21,0,0,1,3.12.56Z"/><path class="cls-1" d="M285.14,288.31a3.52,3.52,0,0,1-1.7,1.31,6.64,6.64,0,0,1-2.53.5,5.71,5.71,0,0,1-3.9-1.24,4.44,4.44,0,0,1-1.42-3.53,4.94,4.94,0,0,1,2-4.18,9.25,9.25,0,0,1,5.68-1.51,6.89,6.89,0,0,1,1.48.2q0-2.7-3.42-2.7a7.52,7.52,0,0,0-3.37.68l-.78-2.78a10,10,0,0,1,4.42-.91c2.35,0,4.07.54,5.16,1.6s1.64,3.09,1.64,6.07v3.29c0,2.05.41,3.34,1.24,3.86a1.92,1.92,0,0,1-1,1,4,4,0,0,1-1.25.18,2,2,0,0,1-1.4-.57A2.8,2.8,0,0,1,285.14,288.31Zm-.36-5.72a7.29,7.29,0,0,0-1.37-.2c-2.81,0-4.22.94-4.22,2.8,0,1.39.8,2.08,2.39,2.08q3.19,0,3.2-3.24Z"/><path class="cls-1" d="M303.59,275.66l-1.54,2.69a4.79,4.79,0,0,0-3.4-1.19,4.09,4.09,0,0,0-3.23,1.36,5.51,5.51,0,0,0-1.19,3.75q0,4.85,4.62,4.84a5.22,5.22,0,0,0,3.53-1.31l1.33,2.82a9.2,9.2,0,0,1-2.74,1.24,13.17,13.17,0,0,1-2.77.26,7.56,7.56,0,0,1-5.63-2.08,7.83,7.83,0,0,1-2.06-5.77,8,8,0,0,1,2.25-5.88,8.38,8.38,0,0,1,6.16-2.24A7.49,7.49,0,0,1,303.59,275.66Z"/><path class="cls-1" d="M319.13,283.23h-11a3.85,3.85,0,0,0,1.26,2.86,4.56,4.56,0,0,0,3.12,1,5.09,5.09,0,0,0,3.74-1.27l1.39,2.74a8.79,8.79,0,0,1-5.65,1.54,7.47,7.47,0,0,1-5.55-2.06,7.84,7.84,0,0,1-2-5.76,8,8,0,0,1,2.25-5.89,7.85,7.85,0,0,1,10.75-.26,6.86,6.86,0,0,1,2,5.08A10.11,10.11,0,0,1,319.13,283.23Zm-10.84-2.7h7.53a3.37,3.37,0,0,0-3.72-3.37C310.06,277.16,308.79,278.29,308.29,280.53Z"/><path class="cls-1" d="M324.34,289l-.81,1.13h-2V268.71l3.61-.86V275a6,6,0,0,1,3.15-.88,7.28,7.28,0,0,1,5.47,2.14,7.54,7.54,0,0,1,2.08,5.47,8.64,8.64,0,0,1-2.09,6.11,7.39,7.39,0,0,1-5.68,2.25A6.1,6.1,0,0,1,324.34,289Zm.76-10.88v8a2.69,2.69,0,0,0,2.16.93,4.78,4.78,0,0,0,3.72-1.23,5.88,5.88,0,0,0,1.09-3.95c0-3.12-1.51-4.69-4.52-4.69A3.2,3.2,0,0,0,325.1,278.11Z"/><path class="cls-1" d="M337.31,282.1a8.14,8.14,0,0,1,2-5.73,7.8,7.8,0,0,1,10.81-.09,9.69,9.69,0,0,1,0,11.67,7.85,7.85,0,0,1-10.86,0A8.44,8.44,0,0,1,337.31,282.1Zm3.72,0q0,5.08,3.68,5.09a3.16,3.16,0,0,0,2.67-1.32,6.22,6.22,0,0,0,1-3.77c0-3.34-1.22-5-3.66-5a3.18,3.18,0,0,0-2.68,1.33A6,6,0,0,0,341,282.1Z"/><path class="cls-1" d="M353.49,282.1a8.14,8.14,0,0,1,2-5.73,7.8,7.8,0,0,1,10.81-.09,8.29,8.29,0,0,1,1.94,5.82,8.4,8.4,0,0,1-2,5.85,7.85,7.85,0,0,1-10.86,0A8.44,8.44,0,0,1,353.49,282.1Zm3.73,0q0,5.08,3.67,5.09a3.16,3.16,0,0,0,2.67-1.32,6.22,6.22,0,0,0,1-3.77c0-3.34-1.22-5-3.66-5a3.19,3.19,0,0,0-2.68,1.33A6,6,0,0,0,357.22,282.1Z"/><path class="cls-1" d="M380.4,289.84l-4.53-7-1.73,1.83v5.15h-3.6V268.71l3.6-.86v12.48l5.15-5.9h4.32l-5.21,5.84,6.28,9.57Z"/><path class="cls-1" d="M386.37,288a2.6,2.6,0,0,1,5.19,0,2.56,2.56,0,0,1-.76,1.85,2.61,2.61,0,0,1-3.68,0A2.55,2.55,0,0,1,386.37,288Z"/><path class="cls-1" d="M406.88,275.66l-1.54,2.69a4.77,4.77,0,0,0-3.39-1.19,4.11,4.11,0,0,0-3.24,1.36,5.51,5.51,0,0,0-1.18,3.75q0,4.85,4.62,4.84a5.2,5.2,0,0,0,3.52-1.31l1.33,2.82a9.2,9.2,0,0,1-2.74,1.24,13.11,13.11,0,0,1-2.77.26,7.58,7.58,0,0,1-5.63-2.08,7.83,7.83,0,0,1-2.06-5.77,7.92,7.92,0,0,1,2.26-5.88,8.34,8.34,0,0,1,6.15-2.24A7.47,7.47,0,0,1,406.88,275.66Z"/><path class="cls-1" d="M407.7,282.1a8.1,8.1,0,0,1,2-5.73,7.79,7.79,0,0,1,10.8-.09,9.69,9.69,0,0,1,0,11.67,7.85,7.85,0,0,1-10.86,0A8.44,8.44,0,0,1,407.7,282.1Zm3.73,0q0,5.08,3.67,5.09a3.14,3.14,0,0,0,2.67-1.32,6.22,6.22,0,0,0,1-3.77c0-3.34-1.22-5-3.66-5a3.19,3.19,0,0,0-2.68,1.33A6,6,0,0,0,411.43,282.1Z"/><path class="cls-1" d="M442.58,289.84V280.2c0-2-.9-3-2.71-3a2.82,2.82,0,0,0-1.55.48,2.78,2.78,0,0,0-1.05,1.09v11.11h-3.61v-10.2a2.38,2.38,0,0,0-.7-1.81,2.79,2.79,0,0,0-2-.67,2.84,2.84,0,0,0-1.47.5,3.41,3.41,0,0,0-1.16,1.09v11.09h-3.6V274.43h2.47l.74,1.35a5,5,0,0,1,3.87-1.63,6,6,0,0,1,4.61,1.67,4.76,4.76,0,0,1,1.89-1.22,6.86,6.86,0,0,1,2.42-.45,5.29,5.29,0,0,1,4,1.48,5.53,5.53,0,0,1,1.43,4.05v10.16Z"/><path class="cls-1" d="M451.93,289.84h-2.31l7.65-21.16h2.31Z"/><path class="cls-1" d="M462.52,277.32h-1.78v-2.89h1.78v-3.12l3.6-1.32v4.44h4.25v2.89h-4.25v6.74a4,4,0,0,0,.52,2.33,2.18,2.18,0,0,0,1.82.68,4.49,4.49,0,0,0,2.42-.71v3.33a11.45,11.45,0,0,1-3.57.43,4.67,4.67,0,0,1-3.55-1.3,5.14,5.14,0,0,1-1.24-3.7Z"/><path class="cls-1" d="M481.78,277.8a3.76,3.76,0,0,0-2.1-.64,2.86,2.86,0,0,0-2.22,1.14,4.11,4.11,0,0,0-1,2.77v8.77h-3.6V274.43h3.6v1.43a5.09,5.09,0,0,1,4-1.71,5.77,5.77,0,0,1,2.81.56Z"/><path class="cls-1" d="M484.29,289.84v-1.22l8.4-11.06h-8.25v-3.13h13.48v1.27l-8.09,11H498v3.13Z"/><path class="cls-1" d="M513.72,283.23h-11a3.93,3.93,0,0,0,1.26,2.86,4.57,4.57,0,0,0,3.13,1,5.06,5.06,0,0,0,3.73-1.27l1.39,2.74a8.76,8.76,0,0,1-5.64,1.54,7.5,7.5,0,0,1-5.56-2.06,7.84,7.84,0,0,1-2-5.76,8,8,0,0,1,2.25-5.89,7.85,7.85,0,0,1,10.75-.26,6.82,6.82,0,0,1,2,5.08A10.11,10.11,0,0,1,513.72,283.23Zm-10.83-2.7h7.53a3.37,3.37,0,0,0-3.73-3.37C504.65,277.16,503.38,278.29,502.89,280.53Z"/><path class="cls-1" d="M518.93,289l-.81,1.13h-2V268.71l3.61-.86V275a6,6,0,0,1,3.15-.88,7.26,7.26,0,0,1,5.47,2.14,7.5,7.5,0,0,1,2.08,5.47,8.64,8.64,0,0,1-2.09,6.11,7.39,7.39,0,0,1-5.68,2.25A6.1,6.1,0,0,1,518.93,289Zm.76-10.88v8a2.69,2.69,0,0,0,2.16.93,4.78,4.78,0,0,0,3.72-1.23,5.88,5.88,0,0,0,1.1-3.95c0-3.12-1.51-4.69-4.53-4.69A3.2,3.2,0,0,0,519.69,278.11Z"/><path class="cls-1" d="M542.68,289.84V281a4.43,4.43,0,0,0-.76-2.88,3,3,0,0,0-2.46-.91,3.78,3.78,0,0,0-1.68.45,3.88,3.88,0,0,0-1.4,1.11v11.12h-3.61V274.43h2.59l.66,1.44a5.38,5.38,0,0,1,4.33-1.72,5.73,5.73,0,0,1,4.34,1.65,6.34,6.34,0,0,1,1.59,4.59v9.45Z"/><path class="cls-1" d="M549.91,289.84V277.36h-2v-2.93h5.63v15.41Zm1.88-21.35a2.08,2.08,0,0,1,2.08,2.07,2.08,2.08,0,0,1-2.08,2.09,2.08,2.08,0,0,1-2.08-2.09,2.08,2.08,0,0,1,2.08-2.07Z"/><path class="cls-1" d="M569,275.66l-1.54,2.69a4.77,4.77,0,0,0-3.39-1.19,4.11,4.11,0,0,0-3.24,1.36,5.51,5.51,0,0,0-1.18,3.75c0,3.23,1.53,4.84,4.62,4.84a5.2,5.2,0,0,0,3.52-1.31l1.33,2.82a9.2,9.2,0,0,1-2.74,1.24,13.11,13.11,0,0,1-2.77.26A7.56,7.56,0,0,1,558,288a7.83,7.83,0,0,1-2.06-5.77,7.92,7.92,0,0,1,2.26-5.88,8.34,8.34,0,0,1,6.15-2.24A7.47,7.47,0,0,1,569,275.66Z"/><path class="cls-1" d="M579.73,288.31a3.47,3.47,0,0,1-1.7,1.31,6.64,6.64,0,0,1-2.53.5,5.69,5.69,0,0,1-3.9-1.24,4.44,4.44,0,0,1-1.42-3.53,4.94,4.94,0,0,1,2-4.18,9.22,9.22,0,0,1,5.67-1.51,6.89,6.89,0,0,1,1.49.2q0-2.7-3.42-2.7a7.52,7.52,0,0,0-3.37.68l-.78-2.78a10,10,0,0,1,4.42-.91c2.35,0,4.07.54,5.16,1.6s1.64,3.09,1.64,6.07v3.29c0,2.05.41,3.34,1.24,3.86a1.92,1.92,0,0,1-1,1,4,4,0,0,1-1.25.18,2.05,2.05,0,0,1-1.41-.57A2.86,2.86,0,0,1,579.73,288.31Zm-.36-5.72a7.29,7.29,0,0,0-1.37-.2c-2.81,0-4.22.94-4.22,2.8,0,1.39.8,2.08,2.38,2.08q3.21,0,3.21-3.24Z"/></svg>