<?xml version="1.0" encoding="utf-8"?>
<!-- Generator: Adobe Illustrator 25.2.0, SVG Export Plug-In . SVG Version: 6.00 Build 0)  -->
<svg version="1.1" id="Capa_1" xmlns="http://www.w3.org/2000/svg" xmlns:xlink="http://www.w3.org/1999/xlink" x="0px" y="0px"
	 viewBox="0 0 512 512" style="enable-background:new 0 0 512 512;" xml:space="preserve">
<style type="text/css">
	.st0{fill:#0072BA;}
</style>
<g>
	<g>
		<path class="st0" d="M373.2,118.1c-31.5-5.1-62.9,1.6-89.6,19c7.9-17.5,20.4-33.2,37.2-47.2c20-16.6,39-24.1,39.2-24.2
			c7.9-3,11.8-11.9,8.7-19.7c-3-7.9-11.9-11.8-19.7-8.7c-2.4,0.9-40.2,16-70.1,51.1c-1.1-5.5-2.7-11.1-4.8-16.6
			c-17.8-46.3-66.6-69.4-68.7-70.3c-3.7-1.7-8-1.9-11.9-0.4c-3.9,1.5-6.9,4.5-8.6,8.3c-0.9,2.1-21.8,51.9-4,98.2
			c1.6,4.2,3.5,8.2,5.5,11.9c-15.4-3.4-31.5-3.9-47.6-1.3c-70.6,11.4-119.1,79.6-108.1,152c7.9,51.5,19.4,95.8,34.2,131.6
			c16.8,40.6,38,70.4,63.1,88.6C147.9,504.7,170,512,194,512c6.6,0,13.4-0.6,20.3-1.7c16-2.6,29.9-8.4,41.7-17.4
			c11.8,9,25.8,14.9,41.7,17.4c31.9,5.1,60.9-1.6,86.2-20.1c25.1-18.3,46.3-48.1,63.1-88.6c14.8-35.8,26.3-80,34.2-131.6
			C492.3,197.7,443.8,129.5,373.2,118.1z M207.8,38.2c12.6,8.7,29.8,23.7,37.7,44.5c7.9,20.6,5.2,43.3,1.6,58.3
			c-12.6-8.7-29.8-23.7-37.7-44.5C201.5,75.9,204.3,53.2,207.8,38.2z M451,265.5c-15.5,101.7-44.9,170.9-85.1,200.1
			c-18.8,13.7-39.5,18.4-63.4,14.6c-14.6-2.4-26.2-8.3-35.4-18.2c-2.9-3.1-7-4.9-11.2-4.9s-8.3,1.8-11.2,4.9
			c-9.2,9.9-20.7,15.9-35.4,18.2c-23.9,3.9-44.6-0.9-63.4-14.6c-40.1-29.2-69.5-98.4-85.1-200.1c-8.5-55.9,28.6-108.5,82.7-117.2
			c5.2-0.8,10.4-1.3,15.6-1.3c21.1,0,41.5,6.9,58.8,20.1c22.3,17.1,53.5,17.1,75.9,0c21.5-16.4,47.9-23.1,74.4-18.9h0
			C422.5,157,459.6,209.6,451,265.5z"/>
	</g>
</g>
</svg>
