<?xml version="1.0" encoding="utf-8"?>
<!-- Generator: Adobe Illustrator 25.2.1, SVG Export Plug-In . SVG Version: 6.00 Build 0)  -->
<svg version="1.1" id="Layer_1" xmlns="http://www.w3.org/2000/svg" xmlns:xlink="http://www.w3.org/1999/xlink" x="0px" y="0px"
	 viewBox="0 0 512 512" style="enable-background:new 0 0 512 512;" xml:space="preserve">
<style type="text/css">
	.st0{fill:#0072BA;}
</style>
<g>
	<g>
		<path class="st0" d="M256.5,418.9c-13.8,0-31.4-7.5-39.5-12.9c-9.5-6.2-57.4-42.2-97.3-75.6c-6.4-5.4-15.7-15-24.6-24.3l-1.6-1.7
			c-1.6-1.6-3.1-3.2-4.6-4.7c-5.1-5.3-9.5-9.9-12-12c-2.8-2.4-4.5-5.6-4.8-9.3c-0.3-3.6,0.8-7.2,3.2-10c2.5-3.1,6.3-4.9,10.4-4.9
			c3.2,0,6.4,1.2,8.9,3.2c3.2,2.8,8.9,8.5,18.6,18.7c7.3,7.6,18.2,19.1,24.1,24c41.2,34.4,87.6,69,94.7,73.7
			c5.8,3.8,18,8.4,24.5,8.4c5.5,0,8.2-0.8,8.5-1.6c1.5-4.2,5.1-7.4,9.6-8.6c1.1-0.3,2.2-0.4,3.2-0.4c3.5,0,6.8,1.3,9.3,3.6
			c1.5,1.4,3.2,2.1,5.1,2.1c1.2,0,2.5-0.3,4-0.8c5.6-2.2,10.1-7.9,10.6-13.7c0.5-5.3,3.9-9.8,8.8-11.6c1.5-0.6,3.2-0.9,4.8-0.9
			c3.5,0,6.8,1.3,9.4,3.7c0.7,0.6,2.4,1.2,4.8,1.2c2.7,0,5.7-0.8,8.4-2.1c1.7-0.8,7.1-3.9,6.6-9c-0.6-5.3,1.9-10.5,6.6-13.2
			c2.1-1.2,4.5-1.9,6.9-1.9c2.8,0,5.5,0.8,7.8,2.4c0.5,0.4,1.3,0.6,2.2,0.6c2.3,0,5.1-1.1,7.2-3c2.8-2.3,5.4-6.3,2.4-12.4
			c-7.7-16.1-42.9-44.5-73.9-69.6l-1.7-1.4c-16.1-13.1-31.4-25.4-43.2-36.3c-2.2,0.9-4.1,1.7-5.6,2.4c-5.4,2.5-9.2,4.1-15.6,5.1
			c-12.6,16.2-28.6,24.8-46.1,24.8c-6.2,0-12.7-1.1-19.2-3.2c-10.6-3.5-17.8-11.1-20.3-21.4c-5.8-24.7,17.2-55.7,30.1-68.6
			c25.9-26,47.5-42.1,75.1-42.1c12.7,0,26.5,3.4,42.4,10.5c41.3,18.5,82.4,32.9,84.1,33.5l0.2,0.1c7.2,2.6,10.9,10.2,8.4,17.4
			c-2,5.5-7.2,9.2-12.9,9.2c-1.5,0-3-0.2-4.5-0.7l0,0c-3.7-1.2-45.8-16.2-86.5-34.4c-12.3-5.5-22.2-8.1-30.9-8.1
			c-18.5,0-34,11.9-56,34c-14.8,14.7-24.5,35.5-22.8,42.9c0.1,0.6,0.2,1.1,2.2,1.7c4,1.3,7.4,2,10.8,2c10,0,18.8-5.9,26.9-17.9
			c2.3-3.4,5.9-5.6,10-6c6.7-0.7,8.3-1.3,13.3-3.6c3.3-1.5,7.9-3.6,15.3-6.3c1.5-0.5,3-0.8,4.6-0.8c3.6,0,7.2,1.5,9.7,4
			c11.4,11.4,29.6,26.1,48.8,41.7l0.7,0.6c34.8,28.2,70.8,57.4,81.1,78.8c7.6,15.9,4.2,33.5-8.7,44.8c-7.2,6.1-15.9,9.5-24.5,9.6
			c-3.7,7.8-10,14-18.4,18.3c-6.5,3.3-13.7,5-20.6,5c-2,0-4-0.1-5.9-0.4c-5,9-13.2,16.2-22.7,19.9c-4.6,1.8-9.2,2.6-13.8,2.6
			c-3.8,0-7.5-0.6-11-1.8C275.2,416.6,266.9,418.9,256.5,418.9z"/>
		<path class="st0" d="M404.3,315.4c-10-20.9-46-50-80.7-78.1c-19.4-15.7-37.7-30.5-49.3-42.1c-2.9-2.9-7.3-3.9-11.2-2.5
			c-7.2,2.6-11.6,4.6-15.1,6.2c-5.3,2.4-7.1,3.2-14.3,3.9c-3.2,0.3-6,2-7.8,4.7c-15.1,22.5-30.7,20.6-41.1,17.1
			c-3.3-1.1-3.9-2.5-4.2-3.9c-2.2-9.4,9-31.2,23.6-45.7c34.7-34.7,52.5-43.4,90.3-26.5c42.8,19.2,85.8,34.2,86.2,34.3
			c5.6,1.9,11.6-1,13.6-6.6c1.9-5.6-1-11.6-6.6-13.6c-0.4-0.1-42.5-14.8-84.5-33.6c-48.9-21.9-75.8-7.5-114.1,30.9
			c-14.6,14.6-34.4,44.1-29.3,65.8c2.2,9.2,8.7,16,18.3,19.2c24.2,8,46.2,0.3,62.7-21.5c6.8-1,10.5-2.6,16-5.1
			c2-0.9,4.4-1.9,7.5-3.2c12.2,11.5,28.7,24.8,46,38.8c31.4,25.4,66.9,54.1,74.9,70.8c3.9,8.2-0.3,13.6-3.2,16
			c-4.2,3.6-10,4.8-13.1,2.6c-3.5-2.4-8-2.5-11.5-0.4c-3.6,2.1-5.6,6.2-5.1,10.3c0.7,6.8-5.5,10.7-8.2,12c-6.8,3.5-14,2.9-16.6,0.4
			c-3-2.8-7.3-3.6-11.1-2.2c-3.8,1.4-6.4,4.9-6.8,9c-0.6,7-5.8,13.7-12.6,16.3c-3.3,1.2-8,2-12.2-1.9c-2.6-2.4-6.3-3.3-9.7-2.5
			c-3.5,0.9-6.3,3.4-7.5,6.7c-0.4,1.1-1.3,3.6-11.3,3.6c-7.1,0-19.9-4.8-26.1-8.9c-7.5-4.9-54.4-40-95-73.9
			c-5.7-4.8-15.6-15.1-24.3-24.2c-7.7-8.1-14.8-15.4-18.4-18.5c-4.5-3.8-11.3-3.3-15,1.3c-3.8,4.5-3.2,11.2,1.3,15
			c3.3,2.8,9.7,9.6,16.8,16.9c9.5,9.9,19.3,20.2,26,25.8c39.7,33.3,87.5,69.2,97,75.4c7.9,5.2,24.8,12.4,37.9,12.4
			c10.5,0,18.6-2.4,24.2-7.1c7.5,2.9,16,2.9,24.3-0.3c9.7-3.8,17.7-11.3,22.2-20.5c8.4,1.8,18,0.5,26.8-3.9
			c8.6-4.3,14.7-10.9,17.8-18.6c8.5,0.4,17.2-2.6,24.5-8.8C408,346.4,411.3,330.1,404.3,315.4z"/>
	</g>
</g>
<g>
	<g>
		<path class="st0" d="M117.3,163.1c-7.6,0-13.7-6.1-13.7-13.7s6.1-13.7,13.7-13.7h96c7.6,0,13.7,6.1,13.7,13.7s-6.1,13.7-13.7,13.7
			H117.3z"/>
		<path class="st0" d="M213.3,138.7h-96c-5.9,0-10.7,4.8-10.7,10.7s4.8,10.7,10.7,10.7h96c5.9,0,10.7-4.8,10.7-10.7
			S219.2,138.7,213.3,138.7z"/>
	</g>
</g>
<g>
	<g>
		<path class="st0" d="M395.5,333.2c-4.6,0-8.8-2.2-11.4-6c-4.2-6.3-2.5-14.8,3.7-19l31.2-20.9c2.3-1.5,4.9-2.3,7.6-2.3
			c4.6,0,8.8,2.3,11.3,6c4.2,6.2,2.5,14.8-3.7,19l-31.2,20.9C400.8,332.4,398.1,333.2,395.5,333.2z"/>
		<path class="st0" d="M435.5,292.7c-3.3-4.9-9.9-6.2-14.8-2.9l-31.2,20.9c-4.9,3.3-6.2,9.9-2.9,14.8c2.1,3.1,5.4,4.7,8.9,4.7
			c2,0,4.1-0.6,5.9-1.8l31.2-20.9C437.5,304.2,438.8,297.6,435.5,292.7z"/>
	</g>
</g>
<g>
	<g>
		<path class="st0" d="M362.7,365.7c-3,0-6.1-1-8.5-2.9c-7-5.5-29-27.5-63.7-63.5l-1.7-1.8c-5.2-5.5-5.1-14.2,0.4-19.4
			c2.6-2.5,6-3.8,9.5-3.8c3.7,0,7.2,1.5,9.8,4.2c21.1,22,55.2,56.9,62.6,62.7c5.9,4.7,6.9,13.3,2.3,19.2
			C370.9,363.7,366.9,365.7,362.7,365.7z"/>
		<path class="st0" d="M369.3,343.6c-7.6-6-41.8-41-62.9-63c-4.1-4.3-10.8-4.4-15.1-0.3c-4.3,4.1-4.4,10.8-0.3,15.1
			c5.5,5.7,53.8,56.1,65.1,65c1.9,1.5,4.3,2.3,6.6,2.3c3.1,0,6.3-1.4,8.4-4.1C374.7,354,373.9,347.3,369.3,343.6z"/>
	</g>
</g>
<g>
	<g>
		<path class="st0" d="M320.1,387c-3.2,0-6.2-1-8.6-3c-13.3-10.6-42.3-41.3-54.1-53.9c-0.4-0.4-0.6-0.7-0.7-0.7
			c-2.5-2.7-3.8-6.2-3.7-9.9c0.1-3.7,1.7-7,4.4-9.5c2.6-2.4,5.9-3.7,9.4-3.7c3.8,0,7.4,1.6,10,4.4c7.8,8.6,39.3,42,51.8,51.9
			c5.8,4.7,6.8,13.3,2.2,19.2C328.1,385.1,324.2,387,320.1,387z"/>
		<path class="st0" d="M326.7,365c-12.8-10.2-44.9-44.3-52.1-52.2c-4-4.4-10.7-4.6-15.1-0.6c-4.3,4-4.6,10.8-0.6,15.1
			c0.4,0.4,38.7,41.8,54.5,54.4c2,1.6,4.3,2.3,6.7,2.3c3.1,0,6.2-1.4,8.3-4C332,375.4,331.3,368.7,326.7,365z"/>
	</g>
</g>
<g>
	<g>
		<path class="st0" d="M277.4,408.3c-3.3,0-6.4-1.1-8.8-3.2c-15.5-13-44.6-43.7-54.6-54.4c-2.5-2.7-3.8-6.1-3.7-9.8
			c0.1-3.7,1.7-7.1,4.3-9.5c2.5-2.4,5.9-3.7,9.4-3.7c3.8,0,7.4,1.6,10,4.3l0.3,0.3c23.9,25.4,42.3,43.9,51.8,51.9
			c5.7,4.8,6.5,13.4,1.8,19.2C285.3,406.5,281.4,408.3,277.4,408.3z"/>
		<path class="st0" d="M284.2,386.5c-15.2-12.8-46.3-46-52.4-52.5c-4-4.3-10.8-4.5-15.1-0.5s-4.5,10.8-0.5,15.1
			c8.7,9.4,38.5,40.9,54.3,54.2c2,1.7,4.4,2.5,6.9,2.5c3,0,6.1-1.3,8.2-3.8C289.3,397,288.7,390.3,284.2,386.5z"/>
	</g>
</g>
<g>
	<g>
		<path class="st0" d="M10.6,312.4c-7.6,0-13.7-6.1-13.7-13.7v-192c0-3.7,1.6-7.4,4.3-10c2.7-2.5,6-3.7,9.7-3.7c0.2,0,0.3,0,0.5,0
			c28.6,1.7,96.8,7.5,115.4,25.1c3,2.8,4.5,7,4.1,11.1c-5,56.9-43,172.6-43.3,173.8c-1.8,5.6-7,9.5-12.9,9.5H10.6z M64.7,285
			c8.3-26.4,32.1-104.6,38-150c-13-5.3-44.2-10.8-78.4-13.7V285H64.7z"/>
		<path class="st0" d="M124.7,120.3c-18.3-17.4-91.4-23-113.4-24.3c-3-0.1-5.8,0.9-8,2.9c-2.1,2-3.4,4.8-3.4,7.8v192
			c0,5.9,4.8,10.7,10.7,10.7h64c4.6,0,8.7-3,10.1-7.4c1.6-4.8,38.3-117.6,43.2-173.1C128.2,125.7,127,122.5,124.7,120.3z M66.9,288
			H21.3V118.1c34.3,2.7,71.3,8.6,84.7,15.1C100.4,179.9,74.8,263,66.9,288z"/>
	</g>
</g>
<g>
	<g>
		<path class="st0" d="M437.3,333.6c-6.1,0-11.5-4.1-13.2-10c-7.6-27.8-49.2-146.4-62.1-167.1c-2.1-3.4-2.7-7.5-1.5-11.2
			c1.2-3.8,3.8-6.8,7.3-8.4l0.1,0c5.1-2.3,52.2-22.5,133.4-22.5c7.6,0,13.7,6.1,13.7,13.7v191.9c0,7.6-6.1,13.7-13.7,13.7H437.3z
			 M487.7,306.3V141.9c-45.5,1.4-77.9,9.5-94.9,14.9c16.4,36.1,44.2,115.8,54.7,149.5H487.7z"/>
		<path class="st0" d="M501.3,117.3c-83.8,0-130.2,21.4-132.2,22.3c-2.8,1.3-4.8,3.7-5.7,6.6s-0.4,6.1,1.2,8.7
			c13.2,21.2,54.5,139.1,62.4,167.9c1.3,4.6,5.5,7.8,10.3,7.8h64c5.9,0,10.7-4.8,10.7-10.7V128C512,122.1,507.2,117.3,501.3,117.3z
			 M490.7,309.3h-45.4c-10.1-32.9-40-118.8-56.6-154.3c16.3-5.5,51.2-15,102-16.2V309.3z"/>
	</g>
</g>
</svg>
