<?xml version="1.0" encoding="utf-8"?>
<!-- Generator: Adobe Illustrator 25.2.1, SVG Export Plug-In . SVG Version: 6.00 Build 0)  -->
<svg version="1.1" id="Capa_1" xmlns="http://www.w3.org/2000/svg" xmlns:xlink="http://www.w3.org/1999/xlink" x="0px" y="0px"
	 viewBox="0 0 420.8 420.8" style="enable-background:new 0 0 420.8 420.8;" xml:space="preserve">
<style type="text/css">
	.st0{fill:#0072BA;}
</style>
<g>
	<g>
		<path class="st0" d="M208.8,368.4v-1.6c-23-9.6-107.4-71.7-147.6-129.7c-2.4-3-4.5-6.1-6.3-9.2H6.4C0.6,228-4,223.4-4,217.6
			c0-5.8,4.6-10.4,10.4-10.4h36.8c-13.3-29-16.2-57-8.7-83.5c10.1-34.4,43.7-71.3,93.8-71.3c13.1,0,26.6,2.5,40.2,7.4
			C190,67.6,204.3,76,212,81.1c6.8-4.5,21.3-13.1,43.4-21.3c13.8-5,26.9-7.4,40.2-7.4c50.1,0,83.8,36.9,93.8,71.3
			c5,16.4,7.9,42.7-5.4,76.3h29.6c6.2,0,11.2,4.5,11.2,10c0,5.8-4.6,10.4-10.4,10.4h-39.6c-3.3,6-6.7,11.4-10.3,16.3
			c-43,62.6-123.8,117.6-145.7,129.3v2h-4.1c-0.8,0.3-1.5,0.4-1.9,0.4H208.8z M80,228c40.2,56.2,108.8,102.7,132.4,117.7
			c60.6-39.2,106.9-80.8,133.9-120.3c1.1-1.6,2.2-3.2,3.3-4.9h-28.8c-3.8,0-7.1-1.9-9-5.1l-10-17L289.6,216l-0.1,0.1
			c-2.2,2.8-5.4,4.4-8.6,4.4c-0.5,0-1.1,0-1.6-0.1c-3.9-0.6-7.1-3.4-8.3-7.1l-15.7-50.9l-33.1,113.2c-1.3,4.6-5.3,7.7-9.8,7.7H212
			c-4.3,0-8.4-2.8-9.8-6.6l-38.7-99.2l-22.8,44.8c-1.8,3.6-5.5,5.8-9.6,5.8H80z M211,240L245,122.9c1.3-4.4,5.6-7.7,10.2-7.7h0.3
			l0.3,0c4.8,0.7,8.5,3.6,9.7,7.7l19.5,63.6l8.9-13c1.8-3,5-4.6,9-4.6c3.8,0,7.1,1.9,9,5.1l15.3,26.1h34.4
			c11.7-25.6,14.5-49.3,8.3-70.5c-8-26.9-34.4-55.9-73.8-55.9c-11.1,0-22.2,2.1-33,6.1c-28.6,10.4-44,22.5-44.1,22.6
			c-1.8,1.5-4.1,2.4-6.5,2.4c-2.3,0-4.4-0.8-6.3-2.2c-0.3-0.2-0.7-0.5-1.1-0.8c-12.4-8.6-26.9-16-43.2-22c-11.8-4.1-22.9-6.2-33-6.2
			c-39.3,0-65.8,29-73.8,55.9c-6.8,23.8-2.8,49.7,11.8,77.3h58.8L156,147c1.9-3.7,5.3-5.8,9.6-5.8c4.2,0,8,2.7,9.4,6.6L211,240z"/>
		<path class="st0" d="M413.6,204H378c14.8-33.6,13.2-60.8,7.6-79.2c-9.6-32.8-42-68.4-90-68.4c-12.8,0-25.6,2.4-38.8,7.2
			C234,72,218.8,81.2,212,86c-6.8-4.8-21.6-14-44.8-22.4c-13.2-4.8-26.4-7.2-38.8-7.2c-48,0-80.4,35.6-90,68.4
			c-5.6,19.6-7.6,49.2,11.2,86.4H6.4c-3.6,0-6.4,2.8-6.4,6.4c0,3.6,2.8,6.4,6.4,6.4h50.8c2,3.6,4.4,7.2,7.2,10.8
			c41.6,60,132,125.2,148.4,129.2v0.4c0,0,0.4,0,0.8-0.4c0.4,0,0.8,0,1.2,0v-0.4c14-6.8,100.8-62.8,146.4-129.2c4.4-6,8-12,11.2-18
			h42c3.6,0,6.4-2.8,6.4-6.4C420.8,206.4,417.2,204,413.6,204z M349.6,227.6c-42.4,62-120.4,112-137.2,122.8
			c-17.2-10.8-94.8-61.2-137.6-122.8c-0.8-1.2-1.6-2.4-2.4-3.6h58.8c2.4,0,4.8-1.2,6-3.6l26.8-52.8l42,107.6c0.8,2.4,3.6,4,6,4
			c0,0,0,0,0.4,0c2.8,0,5.2-2,6-4.8l36.8-126l19.6,63.6c0.8,2.4,2.8,4,5.2,4.4c2.4,0.4,4.8-0.8,6.4-2.8l15.6-22.8l13.2,22.4
			c1.2,2,3.2,3.2,5.6,3.2h36C354.4,220.4,352,224,349.6,227.6z M364,204h-39.2l-16.4-28c-1.2-2-3.2-3.2-5.6-3.2s-4.4,0.8-5.6,2.8
			l-13.6,20l-22-71.6c-0.8-2.8-3.6-4.4-6.4-4.8c-2.8,0-5.6,2-6.4,4.8l-37.2,128.4l-40.4-103.2c-0.8-2.4-3.2-4-5.6-4
			c-2.8,0-4.8,1.2-6,3.6l-31.6,62H64.4c-16-29.2-20.4-57.2-13.2-82.4c8.4-28.4,36-58.8,77.6-58.8c11.2,0,22.8,2.4,34.4,6.4
			c29.2,10.8,44.8,23.2,45.2,23.2c2.4,2,5.6,2,8,0c0,0,15.6-12.4,45.2-23.2c11.6-4.4,23.2-6.4,34.4-6.4c41.2,0,69.2,30.4,77.6,58.8
			C380.4,151.6,376.8,177.2,364,204z"/>
	</g>
</g>
</svg>
