<?xml version="1.0" encoding="utf-8"?>
<!-- Generator: Adobe Illustrator 25.2.1, SVG Export Plug-In . SVG Version: 6.00 Build 0)  -->
<svg version="1.1" id="Warstwa_1" xmlns="http://www.w3.org/2000/svg" xmlns:xlink="http://www.w3.org/1999/xlink" x="0px" y="0px"
	 viewBox="0 0 2392.8 1184.5" style="enable-background:new 0 0 2392.8 1184.5;" xml:space="preserve">
<style type="text/css">
	.st0{enable-background:new    ;}
	.st1{fill:#FFFFFF;}
</style>
<g>
	<g class="st0">
		<path class="st1" d="M565.2,241.8h139.7v45.9H493.8v-33.5L630.9,56.7H494V10.5h207.9v32.7L565.2,241.8z"/>
		<path class="st1" d="M856.7,287.7c-2.5-5-4.4-11.1-5.5-18.5c-13.3,14.8-30.7,22.3-52,22.3c-20.2,0-36.9-5.8-50.2-17.5
			s-19.9-26.4-19.9-44.2c0-21.8,8.1-38.6,24.3-50.3c16.2-11.7,39.6-17.6,70.2-17.7h25.3V150c0-9.5-2.4-17.1-7.3-22.8
			c-4.9-5.7-12.6-8.6-23.1-8.6c-9.3,0-16.5,2.2-21.8,6.7c-5.3,4.4-7.9,10.5-7.9,18.3h-55c0-11.9,3.7-23,11-33.1
			c7.4-10.2,17.8-18.1,31.2-23.9c13.5-5.8,28.6-8.7,45.3-8.7c25.4,0,45.5,6.4,60.4,19.1c14.9,12.8,22.4,30.7,22.4,53.8v89.3
			c0.1,19.5,2.9,34.3,8.2,44.4v3.2H856.7z M811.2,249.4c8.1,0,15.6-1.8,22.5-5.4c6.9-3.6,11.9-8.5,15.2-14.6V194h-20.6
			c-27.5,0-42.2,9.5-44,28.6l-0.2,3.2c0,6.9,2.4,12.5,7.2,16.9C796.2,247.2,802.8,249.4,811.2,249.4z"/>
		<path class="st1" d="M946,28.4c0-8.2,2.8-15,8.3-20.4c5.5-5.3,13-8,22.6-8c9.4,0,16.9,2.7,22.5,8s8.4,12.1,8.4,20.4
			c0,8.4-2.8,15.2-8.5,20.6c-5.6,5.3-13.1,8-22.4,8c-9.3,0-16.7-2.7-22.4-8C948.8,43.6,946,36.7,946,28.4z M1004.4,287.7h-55.2v-206
			h55.2V287.7z"/>
		<path class="st1" d="M1100.4,81.7l1.7,23.8c14.7-18.4,34.5-27.6,59.2-27.6c21.8,0,38.1,6.4,48.7,19.2c10.7,12.8,16.1,32,16.4,57.5
			v133.1h-55v-132c0-11.7-2.5-20.2-7.6-25.5s-13.5-7.9-25.3-7.9c-15.5,0-27.1,6.6-34.8,19.8v145.6h-55v-206L1100.4,81.7L1100.4,81.7
			z"/>
		<path class="st1" d="M1447.2,212.8l27-131.2h53.1l-52.5,206h-46.1l-39-129.7l-39,129.7h-45.9l-52.5-206h53.1l26.8,131l37.7-131
			h39.8L1447.2,212.8z"/>
		<path class="st1" d="M1649.4,291.5c-30.2,0-54.8-9.3-73.8-27.8s-28.5-43.2-28.5-74.1v-5.3c0-20.7,4-39.2,12-55.5
			s19.3-28.9,34-37.7s31.4-13.2,50.2-13.2c28.2,0,50.4,8.9,66.5,26.7c16.2,17.8,24.3,43,24.3,75.6v22.5H1603
			c1.8,13.5,7.1,24.2,16.1,32.4c8.9,8.1,20.3,12.2,34,12.2c21.2,0,37.8-7.7,49.7-23l27,30.3c-8.3,11.7-19.4,20.8-33.5,27.3
			S1666.6,291.5,1649.4,291.5z M1643.1,122.2c-10.9,0-19.8,3.7-26.6,11.1c-6.8,7.4-11.1,18-13,31.7h76.5v-4.4
			c-0.3-12.2-3.6-21.7-9.9-28.4C1663.8,125.6,1654.8,122.2,1643.1,122.2z"/>
		<path class="st1" d="M1876.9,230.7c0-6.7-3.3-12-10-15.9s-17.4-7.3-32.1-10.4c-49-10.3-73.5-31.1-73.5-62.4
			c0-18.3,7.6-33.5,22.8-45.8c15.2-12.2,35-18.4,59.5-18.4c26.1,0,47.1,6.2,62.7,18.5c15.7,12.3,23.5,28.3,23.5,48h-55
			c0-7.9-2.5-14.4-7.6-19.5c-5.1-5.1-13-7.7-23.8-7.7c-9.3,0-16.4,2.1-21.5,6.3c-5.1,4.2-7.6,9.5-7.6,16c0,6.1,2.9,11,8.7,14.8
			c5.8,3.7,15.5,7,29.2,9.7s25.3,5.8,34.6,9.2c29.1,10.7,43.6,29.1,43.6,55.4c0,18.8-8.1,34-24.2,45.6s-36.9,17.4-62.4,17.4
			c-17.3,0-32.6-3.1-46-9.2c-13.4-6.2-23.9-14.6-31.5-25.3c-7.6-10.7-11.4-22.3-11.4-34.7h52.2c0.5,9.8,4.1,17.3,10.9,22.5
			c6.7,5.2,15.7,7.8,27,7.8c10.5,0,18.5-2,23.9-6C1874.2,242.5,1876.9,237.2,1876.9,230.7z"/>
		<path class="st1" d="M2031.7,31v50.6h35.2V122h-35.2v102.8c0,7.6,1.5,13.1,4.4,16.4c2.9,3.3,8.5,4.9,16.8,4.9
			c6.1,0,11.5-0.4,16.2-1.3v41.7c-10.8,3.3-21.9,5-33.3,5c-38.6,0-58.3-19.5-59-58.4V122h-30.1V81.7h30.1V31H2031.7z"/>
		<path class="st1" d="M2220.9,266.7c-13.6,16.5-32.4,24.8-56.4,24.8c-22.1,0-38.9-6.3-50.5-19s-17.5-31.3-17.8-55.8v-135h55v133.2
			c0,21.5,9.8,32.2,29.3,32.2c18.7,0,31.5-6.5,38.5-19.4v-146h55.2v206h-51.8L2220.9,266.7z"/>
		<path class="st1" d="M2374,81.7v217.2c0,22.7-6,40.4-18.1,53s-29.4,18.9-52.2,18.9c-9.5,0-18.6-1.1-27.2-3.2V324
			c6.6,1.1,12.4,1.7,17.3,1.7c16.6,0,24.9-8.8,24.9-26.5V81.7H2374z M2314.4,28.4c0-8.2,2.8-15,8.3-20.4c5.5-5.3,13-8,22.6-8
			c9.5,0,17,2.7,22.6,8c5.5,5.3,8.3,12.1,8.3,20.4c0,8.4-2.8,15.2-8.5,20.6c-5.6,5.3-13.1,8-22.4,8c-9.3,0-16.7-2.7-22.4-8
			C2317.3,43.6,2314.4,36.7,2314.4,28.4z"/>
	</g>
	<g class="st0">
		<path class="st1" d="M495.1,639.4l27-131.2h53.1l-52.5,206h-46.1l-39-129.7l-39,129.7h-45.9l-52.5-206h53.1l26.8,131l37.7-131
			h39.8L495.1,639.4z"/>
	</g>
	<g class="st0">
		<path class="st1" d="M897,483.3h-84.9v230.9H755V483.3h-83.8V437H897V483.3z"/>
	</g>
	<g class="st0">
		<path class="st1" d="M1033.9,559.8c-7.5-1-14.1-1.5-19.8-1.5c-20.8,0-34.5,7-40.9,21.1v134.8h-55v-206h52l1.5,24.6
			c11-18.9,26.3-28.4,45.9-28.4c6.1,0,11.8,0.8,17.1,2.5L1033.9,559.8z"/>
	</g>
	<g class="st0">
		<path class="st1" d="M1129.1,669.9h100.7v44.4h-171v-33.5l96.9-128.1h-94v-44.4h165.1v32.4L1129.1,669.9z"/>
	</g>
	<g class="st0">
		<path class="st1" d="M1358.3,718c-30.2,0-54.8-9.3-73.8-27.8S1256,647,1256,616.1v-5.3c0-20.7,4-39.2,12-55.5s19.3-28.9,34-37.7
			s31.4-13.2,50.2-13.2c28.2,0,50.4,8.9,66.5,26.7c16.2,17.8,24.3,43,24.3,75.6v22.5h-131.2c1.8,13.5,7.1,24.2,16.1,32.4
			c8.9,8.1,20.3,12.2,34,12.2c21.2,0,37.8-7.7,49.7-23l27,30.3c-8.3,11.7-19.4,20.8-33.5,27.3S1375.4,718,1358.3,718z M1352,548.8
			c-10.9,0-19.8,3.7-26.6,11.1c-6.8,7.4-11.1,18-13,31.7h76.5v-4.4c-0.3-12.2-3.6-21.7-9.9-28.4
			C1372.7,552.1,1363.7,548.8,1352,548.8z"/>
		<path class="st1" d="M1659.9,613.1c0,33-7,58.7-21.1,77.2s-33.8,27.7-59,27.7c-22.3,0-40.2-8.6-53.5-25.7l-2.5,21.9h-49.5V421.8
			h55v104.9c12.7-14.8,29.4-22.3,50.1-22.3c25.1,0,44.8,9.2,59.1,27.7c14.3,18.5,21.4,44.5,21.4,78V613.1z M1604.8,608.9
			c0-20.9-3.3-36.1-9.9-45.7c-6.6-9.6-16.4-14.4-29.5-14.4c-17.5,0-29.6,7.2-36.2,21.6v81.5c6.7,14.5,18.9,21.8,36.6,21.8
			c17.8,0,29.4-8.8,35-26.4C1603.5,638.9,1604.8,626.1,1604.8,608.9z"/>
		<path class="st1" d="M1744.4,508.2l1.7,23.8c14.7-18.4,34.5-27.6,59.2-27.6c21.8,0,38.1,6.4,48.7,19.2
			c10.7,12.8,16.1,32,16.4,57.5v133.1h-55v-132c0-11.7-2.5-20.2-7.6-25.5s-13.5-7.9-25.3-7.9c-15.5,0-27.1,6.6-34.8,19.8v145.6h-55
			v-206L1744.4,508.2L1744.4,508.2z"/>
		<path class="st1" d="M1911.7,454.9c0-8.2,2.8-15,8.3-20.4c5.5-5.3,13-8,22.6-8c9.4,0,16.9,2.7,22.5,8s8.4,12.1,8.4,20.4
			c0,8.4-2.8,15.2-8.5,20.6c-5.6,5.3-13.1,8-22.4,8s-16.7-2.7-22.4-8C1914.6,470.2,1911.7,463.3,1911.7,454.9z M1970.2,714.2H1915
			v-206h55.2V714.2z"/>
		<path class="st1" d="M2101.2,673.7c10.2,0,18.4-2.8,24.8-8.4c6.3-5.6,9.6-13,9.9-22.3h51.6c-0.1,14-3.9,26.7-11.4,38.4
			c-7.5,11.6-17.7,20.6-30.7,27s-27.4,9.6-43.1,9.6c-29.4,0-52.7-9.4-69.7-28.1c-17-18.7-25.5-44.6-25.5-77.6v-3.6
			c0-31.7,8.4-57.1,25.3-76c16.9-18.9,40-28.4,69.5-28.4c25.8,0,46.4,7.3,62,22c15.5,14.7,23.4,34.2,23.7,58.5H2136
			c-0.3-10.7-3.6-19.4-9.9-26.1c-6.3-6.7-14.7-10-25.1-10c-12.8,0-22.5,4.7-29,14s-9.8,24.5-9.8,45.5v5.7c0,21.2,3.2,36.5,9.7,45.8
			C2078.1,669,2088,673.7,2101.2,673.7z"/>
		<path class="st1" d="M2295.7,636.4l38.1-128.1h59l-82.8,238l-4.6,10.9c-12.3,26.9-32.6,40.4-60.9,40.4c-8,0-16.1-1.2-24.4-3.6
			v-41.7l8.4,0.2c10.4,0,18.2-1.6,23.3-4.8s9.2-8.4,12.1-15.8l6.5-16.9l-72.2-206.6h59.2L2295.7,636.4z"/>
	</g>
	<g class="st0">
		<path class="st1" d="M16,1001l-3.5-5.5l-1.1-7.6l1.6-7.3l6.4,0.9l14.4-0.9l8.5-1.5l7.3-0.5l12.7-5.1l6.5-2.5l7.6-2.2l13.1-6.4
			l6.9-3.8l7.8-3.1l6-4.9l5.5-3.6l5.5-4.4l4.7-5.1l7.6-6.2l4.9-4.2l4.4-4.5l4.9-5.5l5.8-9.6l0.5-6.2l0.9-6.7l-3.6-6.2L138,875.9
			l-6.4-4.4l-13.5-5.3l-5.8-4.4l-7.5-2.2l-6.2-1.6l-5.8-2.9l-6.5-2.7l-13.5-4.7l-8.7,3.5l-3.3,7.1l-3.3,10.2l0.2,6.9l-3.8,11.5
			l-1.6,6.4l-1.6,7.5l-2.4,8l-0.5,8.9l-1.5,9.5l-1.1,6.5l-1.6,9.1l-1.8,10.5l0.4,6.5l-0.9,9.6l-4.5,5.5l-9.3-0.9l-0.9-9.5l-0.2-7.8
			l3.3-12l0.2-7.5l1.8-13.1l1.8-9.5l2.4-10.5l2.4-8.5l3.8-10.4l0.7-10.2l2-8.2l3.5-11.6l4.4-9.1l-9.3-2.7l-6.2-1.5h-4.7l-10.9,2.4
			l-7.6,3.8l-10.5-2.5L0,840.3l1.8-10l11.6-2.9l6.4,1.3l8,0.5h3.6l11.1,1.6l9.6,1.1l4.2-5.3l3.3-6.9l9.6-0.2l1.8,7.1l2.4,8.4
			l9.1,2.5l14.5,6.7l10.4,2.2l10.9,5.5l9.6,2.9l4.9,1.1l5.3,4.5l4.7,1.6l4.5,3.3l3.8,2.2l8.2,3.6l3.8,4.5l1.6,4.2l3.8,6.9l3.3,9.5
			l-3.6,6.4l-0.5,7.5l-8.7,10.7l-4.4,6l-4.6,5.7l-6.2,6.2l-5.6,4.7l-5.1,5.1l-4.4,4.5l-5.5,4.5l-7.5,3.5l-5.1,3.5l-7.1,5.1l-5.3,2.7
			l-7.6,2.7l-7.5,3.3l-4.7,4l-8.9,2.4l-5.1,2l-8.2,1.1l-7.6,2.5l-5.5,1.5l-9.5,3.5l-4.4,7.6L16,1001z"/>
		<path class="st1" d="M129.2,980.5c-2.2-3.5-3.3-7.2-3.3-11.1c0-5.8,2.5-12.5,7.5-20.2c2.2-0.2,3.5-0.4,4-0.4
			c1.1,0,2.2,0.2,3.4,0.7s2.7,1.3,4.6,2.5c0.2,1,0.2,2.1-0.2,3.4c-0.4,1.3-0.8,2.6-1.5,3.9c-0.6,1.3-1.2,2.7-1.6,4.2
			c-0.5,1.5-0.7,2.9-0.7,4.2c0,2.2,0.6,4.3,1.8,6.4c2.9,2.7,6.3,4.8,10.1,6.4c3.8,1.6,7.5,2.4,11,2.4c5.7,0,10-2.1,12.9-6.2
			c7-1.6,13.3-5.4,18.8-11.5s9.1-13,10.6-20.7c-1.5-1.8-4.2-3.5-8.3-5.1s-8-2.4-11.9-2.4c-2.8,0-5.2,0.5-7.3,1.6l-8.7,11.5l-4.9,3.6
			l-0.7,2.2h-3.5l-1.5,3.6c-0.8,0-1.8-0.5-2.8-1.4s-1.6-1.4-1.7-1.5c-0.5-0.4-1-0.8-1.6-1.3s-1.1-0.8-1.5-1.1
			c1.6-7.6,4-13.7,7.3-18.3c3.3-4.5,8.2-8,14.6-10.3c6.5-2.3,15.2-3.5,26.3-3.5h1.3c13.8,5.9,20.7,13.4,20.7,22.4
			c0,3.5-1.2,7.4-3.6,11.6c-4.1,16.1-15.5,27.8-34,35.1c-6.2,3.9-13.2,5.8-20.9,5.8c-7.9,0-16.1-1.9-24.7-5.8
			C134.7,987.7,131.4,984,129.2,980.5z"/>
	</g>
	<g class="st0">
		<path class="st1" d="M242.2,996.3l-5.8-2.9l-6.9-5.6l-4.2-8l-2.9-7.5l0.4-8.5l-0.5-5.1l1.8-6.2l-0.4-9.5l1.1-8.2l2.7-10.2l2.7-5.6
			l0.4-9.3l4.2-10.9l4-6.4l1.1-6.7l2.9-5.1l1.3-6.7l2.9-2.2h7.8v8.9l-2.2,12.4l-3.3,6.5v7.6l-4.2,6.7v6.2l-2.5,6l-0.9,7.8l-2.5,6.2
			l-2,8.2l-1.8,5.8l0.9,8.9l-0.4,2.9l-1.1,2.5l2.5,4.9l0.2,5.3l3.1,3.5l7.6,2.5l14.2-1.5l5.5-3.1l8.7-8.7l6.9-4.9l4.5-7.3l3.3-6.2
			l0.9-7.1l2-8l1.5-6.7l-4.4-10l-4.9-1.8l-7.6,1.3l-7.6,3.5l-5.5,3.6l-5.6,7.3l-4.2,5.1l-1.8,8.9l-3.1,7.6l0.4,11.3l-1.3,6.4
			l-9.1,3.3l-1.5-4L238,972l1.1-3.5l-2.4-10.4l4-13.1l2.9-6.4l1.3-6.4l6.5-5.8l4-6.2l3.5-4l5.5-3.5l5.6-4.2l14.7-2.5l6.4,0.2
			l5.8,2.5l12.4,5.3l0.9,6l0.5,7.5l-2.2,8.2l-2,6.5l-0.7,6.2l-3.3,8l-3.1,6l-4.4,5.5l-3,6.6l-6.2,5.8l-4.2,5.3l-6.2,3.8l-6.5,3.5
			l-5.5,3.6l-15.3,2L242.2,996.3z"/>
	</g>
	<g class="st0">
		<path class="st1" d="M300,990.7c-0.1-0.2-0.2-0.7-0.2-1.5c0-1.3,0.3-3.4,0.9-6.2c0.7-4.7,1.2-7.3,1.3-7.8l0.9-6.5l1.6-2.7
			l-0.7-2.9c1.5-4.2,2.5-8.7,3.1-13.3l2-4.7l0.7-3.6c0.8-2.1,1.3-4,1.3-5.8c0-0.8-0.1-1.5-0.2-1.8c3.5-2.1,5.3-4.7,5.3-8
			c0-1-0.1-1.7-0.2-2.2c1.2-1.3,3.8-3,7.6-5.1c5.6,0.6,9.6,2.9,12,6.9c-0.5,0.7-1.5,1.9-2.9,3.6c-2.4,3-4.3,5.6-5.7,7.8
			c-1.4,2.2-2.2,4.3-2.3,6.4l-2,5.3l-2.4,13.5l15.1-20.2l16.4-14l2.2-2c3.6-1.7,6.8-3,9.6-3.9c2.8-0.9,5.5-1.4,8.2-1.4
			c4.5,0,9,1.5,13.6,4.4l0.4,7.1c-1.7,1-3.6,1.5-5.8,1.5c-1.6,0-3.1-0.2-4.5-0.7c-3,0.5-7.2,2.4-12.5,5.6
			c-5.3,3.3-10.9,7.5-16.8,12.7s-11.3,10.9-16.2,17.1c-2.9,3.5-5.8,8.1-8.7,13.8c-1.2,2.3-2.6,4.8-4.2,7.5l-0.4,4.9
			c-1.7,0.2-3.5,0.7-5.3,1.5c-1.9,0.8-3.6,1.3-5.1,1.3C303.9,995.5,301.9,993.3,300,990.7z"/>
	</g>
	<g class="st0">
		<path class="st1" d="M371.9,994.3l-3.8-2.2c-6.4-7.9-9.6-15.8-9.6-23.8c0-17.8,16.1-36,48.4-54.6c0.5,0.1,1.2,0.2,2.2,0.2
			c2.4,0,5.2-1.1,8.2-3.3l2.2,1.3l4.4-1.1c2.9,1.8,7,3.2,12.4,4.2l4.2,3.1c0.2,2.7,0.4,4.8,0.4,6.5c0,2.2-0.1,3.9-0.2,5.1
			c-8.9,9.8-18.6,18-29.3,24.5c-10.7,6.5-23.2,11.9-37.5,16.1c0.2,2.3,0.7,4.4,1.5,6.2c0.7,1.8,2,3.5,3.8,5.1
			c3.6,2.3,7.1,3.5,10.4,3.5c1.3,0,2.8-0.2,4.4-0.5l3.3-0.9l13.8-4.5l2.7-1.3l5.1-1.3l2.5-1.5l3.6-1.8c0.8-0.4,2.5-1,4.9-1.9
			s4.9-2,7.5-3.4c2.4-1.6,4.7-2.4,6.9-2.4c1.6,0,2.8,0.3,3.7,1c0.9,0.7,1.4,1.7,1.4,3c0,1.2-0.3,2.4-0.9,3.6l-6.5,4.2
			c-7.4,4.8-12.8,7.6-16.2,8.2l-5.6,2.7c-0.4,0.5-1.5,0.8-3.3,1.1c-3.3,1.3-5.3,2.4-6,3.1c-3.4-0.2-7.5,1-12.2,3.6
			c-1.7-0.2-3-0.4-4-0.4c-2.4,0-5.2,0.4-8.4,1.1L371.9,994.3z M399.7,946.5c10.1-4.1,17.8-10.6,23.1-19.5l-3.8-2.2
			c-17.1,2.3-31.2,12.6-42.4,30.9C385.7,954.9,393.4,951.8,399.7,946.5z"/>
	</g>
	<g class="st0">
		<path class="st1" d="M627,1000.3c-7.2,0-12.9-2.3-17.1-7c-4.2-4.7-6.4-11-6.4-19c0-5.3,1-11.1,2.9-17.3l-1.6-1.8
			c-5,8.7-10.5,15.1-16.5,19.1s-12,6-18.1,6c-4.9,0-9.4-1.2-13.5-3.5c-4.2-2.3-7.5-5.3-10.1-8.9c-9.9,8.7-18.8,15.4-26.5,20
			s-13.9,6.9-18.5,6.9c-6.2,0-9.3-4-9.3-12c0-3.6,0.5-7.4,1.5-11.3c3-5.8,5.3-13.8,6.7-24c0-0.8,0.7-1.8,2.2-2.9l-1.1-2.5
			c1.8-3.5,3.6-8.8,5.5-16l-1.1-4.2l10.4-5.3c4,2.7,7.6,6.2,10.9,10.7c-0.2,1.6-0.8,3.1-1.5,4.5c-0.8,1.5-1.7,2.9-2.6,4.3
			c-1,1.4-1.7,2.5-2.2,3.2c-0.4,2.1-1.1,4.2-2.3,6.5c-1.2,2.2-2.8,4.9-4.8,8.1l-2.5,6l-2.4,11.5l1.1,6.4c6.9-3.2,14.1-8.5,21.6-16.1
			s13.2-15.4,16.9-23.5l5.1-10.9l10.5-2c1.3,2.5,2,5.5,2,8.9c0,6.7-2.9,14.7-8.5,24.2l6.7,6.5c1.2,0.7,2.5,1.1,3.8,1.1
			c1.9,0,3.8-0.6,5.5-1.8c1.8-1.2,3.5-2.6,5.3-4.2c1.8-1.6,2.9-2.7,3.5-3.3h3.6l16.2-18.5c-0.6-0.6-0.7-1.4-0.3-2.3
			c0.4-0.9,1.2-2.1,2.3-3.5c1.5-1.8,2.5-3.5,3.1-4.9c2.9-2.8,6.2-4.2,9.8-4.2c3.3,2.1,5.6,5.2,7.1,9.5l0.2,9.5
			c-2.4,6.3-4.1,11.1-5.1,14.5c-1,3.3-1.5,6.9-1.5,10.8c0,4.4,0.8,9,2.5,14l1.6,4.2c1.7,0.6,3.5,0.9,5.5,0.9c1.7,0,4.5-0.3,8.5-0.9
			l3.8-3.3c3-2.5,5.6-4.7,7.8-6.4s4.3-2.8,6.4-3.5c2.8-0.8,4.8-1.3,6-1.3c3.4,0,5.1,1.7,5.1,5.1c0,1.7-0.5,4-1.5,6.9l-5.8,5.3
			l-4.7,2.9C643.8,997.3,635,1000.3,627,1000.3z"/>
	</g>
	<g class="st0">
		<path class="st1" d="M661,992.5c-6.9,0-10.6-5.2-11.1-15.5c3-5.5,5.3-12.5,6.7-21.3l2.4-2.2l-1.3-5.6c2.3-3.8,5.3-7.5,9.1-11.3
			h2.2c1.2,0.2,2,0.6,2.5,1.1c0.4,0.5,0.9,1.4,1.4,2.6c0.5,1.3,1,2.3,1.5,3c-0.7,8.1-3.3,17.1-7.8,26.9c-0.1,0.6-0.2,1.4-0.2,2.4
			c0,1.6,0.3,2.8,0.9,3.5c0.6,0.8,1.6,1.6,2.9,2.5c1.6,1.1,2.8,2.3,3.5,3.5c0.8,1.3,1.1,3.3,1,6.1
			C669.1,991.1,664.5,992.5,661,992.5z M691.4,878.8l-3.1-0.9c-4.7-6.4-7.1-11.2-7.1-14.4c0-1.9,0.7-3.5,2.2-4.8s3.8-2.6,6.9-4.1
			c5.1,0.6,9.3,3.9,12.7,9.8c0,4.5-2.2,9.3-6.7,14.5L691.4,878.8z"/>
	</g>
	<g class="st0">
		<path class="st1" d="M692.3,994.3l-3.8-2.2c-6.4-7.9-9.6-15.8-9.6-23.8c0-17.8,16.1-36,48.4-54.6c0.5,0.1,1.2,0.2,2.2,0.2
			c2.4,0,5.2-1.1,8.2-3.3l2.2,1.3l4.4-1.1c2.9,1.8,7,3.2,12.4,4.2l4.2,3.1c0.2,2.7,0.4,4.8,0.4,6.5c0,2.2-0.1,3.9-0.2,5.1
			c-8.9,9.8-18.6,18-29.3,24.5s-23.2,11.9-37.5,16.1c0.2,2.3,0.7,4.4,1.5,6.2c0.7,1.8,2,3.5,3.8,5.1c3.6,2.3,7.1,3.5,10.4,3.5
			c1.3,0,2.8-0.2,4.4-0.5l3.3-0.9l13.8-4.5l2.7-1.3l5.1-1.3l2.5-1.5l3.6-1.8c0.8-0.4,2.5-1,4.9-1.9s4.9-2,7.5-3.4
			c2.4-1.6,4.7-2.4,6.9-2.4c1.6,0,2.8,0.3,3.7,1s1.4,1.7,1.4,3c0,1.2-0.3,2.4-0.9,3.6l-6.5,4.2c-7.4,4.8-12.8,7.6-16.2,8.2l-5.6,2.7
			c-0.4,0.5-1.5,0.8-3.3,1.1c-3.3,1.3-5.3,2.4-6,3.1c-3.4-0.2-7.5,1-12.2,3.6c-1.7-0.2-3-0.4-4-0.4c-2.4,0-5.2,0.4-8.4,1.1
			L692.3,994.3z M720.1,946.5c10.1-4.1,17.8-10.6,23.1-19.5l-3.8-2.2c-17.1,2.3-31.2,12.6-42.4,30.9
			C706.1,954.9,713.8,951.8,720.1,946.5z"/>
	</g>
	<g class="st0">
		<path class="st1" d="M737,1079.6l1.5-1.6c0.6-6.1,2.2-12.9,4.7-20.4l0.9-4.7v-3.3l1.6-2.4l0.7-3.1l1.6-12.7c1-3.6,1.5-7,1.5-10.2
			l0.9-4.7l1.1-5.5l0.7-3.6c0.7-4,1.2-6.2,1.3-6.7c0.5-2.1,0.7-5.8,0.7-11.1c1.1-3.2,1.6-5.5,1.6-7.1l1.6-5.5v-4.7l4.9-18.9
			c0.8-3.3,2.1-6.4,3.8-9.5l2.4-13.5l2.4-3.8v-4.7l4.7-3.3h12l2.4,4.7c-1.1,5.5-4,11-8.7,16.5c-1.6,3.3-2.9,8.1-4,14.4l-0.7,1.5
			l-2.4,2.4c0,0.8-0.5,3.4-1.4,7.6c-0.9,4.2-1.8,8-2.8,11.3l-0.7,4.7l-0.9,5.5l-2.4,13.5v3.1l-0.7,4l-1.6,11.1l-0.7,4l-0.7,4.7
			l-2.4,10.9c-1,2.3-1.8,6.8-2.4,13.5l-3.3,11.8l-0.7,5.6l-0.7,6.2c-1.1,2.2-1.6,4.6-1.6,7.3l-1.6,3.1v3.1l-1.5,2.4
			c-0.6,4.2-2.2,8.2-4.9,11.8l-1.5,6.4c-4,5.2-8.3,9.2-13,11.9c-4.7,2.7-9.2,4.1-13.5,4.1c-6.4,0-11.7-2.8-15.8-8.5
			c-4.1-5.6-6.2-13.7-6.2-24.1c0-5.3,0.5-10.6,1.5-15.8c2.1-6.1,3.6-12.4,4.5-19.1c1.3-2.2,2.7-4.9,4-8.2c1.3-3.3,2.1-5.3,2.4-6
			l3.1-3.6l6.2-11.5l4.5-4l7.8-8.4l8.7,0.7c-1,5-3.1,9.9-6.4,14.9l-0.4,2.4l-7.6,9.6l-2,2c-0.6,3.5-1.9,6.8-4,9.8l-1.6,5.3l-1.3,2.2
			c-0.4,2.3-1.3,5.1-2.7,8.4c-2.2,8.7-3.3,15.9-3.3,21.6s0.9,10,2.7,13s4.3,4.5,7.5,4.5c1.2,0,2.9-0.4,5.1-1.3
			C729,1101.9,734,1091.9,737,1079.6z M789.8,873.8c-1.2-1.4-1.8-3.2-1.8-5.5l0.2-2c-1.3-0.8-2.2-2-2.6-3.4c-0.4-1.4-0.8-3.7-1.2-7
			c0.5-4,2.8-7.4,7.1-10.2c0.8-0.1,2.1-0.2,3.6-0.2c4,0,7,0.7,9.1,2s3.1,3.6,3.1,6.7c0,2.1-0.5,4.7-1.6,8c-0.4,1.1-1.1,2.7-2.2,4.7
			c-0.8,1.2-1.7,2.9-2.5,4.9l-1.3,2.7l-3.8,0.9C793,875.8,791,875.2,789.8,873.8z"/>
		<path class="st1" d="M821.2,999.2l-5.3-0.2l-5.1,0.4l-6-1.6l-4.4-2.4l-5.3-3.3l-5.6-7.3l-4.2-3.8l-1.1-2.2l3.5-4.9l9.3,2l4,2.5
			l4.4,4.4l4,1.1l5.6,1.1h6.2l5.3,0.5l2.9-4.5l-6.9-6.2l-4.2-4l-2-4.4l-4.5-4l-2.4-4.7l-2-3.1l-3.8-6.2l-2.9-2.5l-2-4.5v-10l0.5-4.5
			l3.8-3.5l3.5-4l2.7-4l5.1-3.3l3.5-1.6l5.8-2.2l5.5-0.5l9.8,1.3l5.8,0.9l2.9,4l4,2.5l3.1,4.7l0.4,5.5l-0.5,4.4l-1.3,5.1l-4.2,5.6
			l-2.4,4.2c-0.2,0.5-0.8,1.3-1.5,2.4c-0.8,1.1-1.5,1.9-2.1,2.5c-0.6,0.5-1.2,0.8-1.8,0.8c-1,0-1.9-0.5-2.9-1.5
			c-1.6-1.2-2.4-3-2.4-5.5c0-1.5,0.3-2.9,0.9-4.4l2-4.2l0.7-6.7l-0.5-4.7l-4.5-4.5l-4.5,0.7l-4.7,2l-5.3,2l-7.5,4.7l1.3,7.8l2.7,5.5
			l2.5,5.3l2.9,4.4l4,4.2l3.5,5.1l4.4,4.7l2.9,2.7l8.4,8.7l1.3,4.9l1.8,7.6l-5.8,4.7l-5.3,2.2l-5.5-0.2l-4.7,2.5L821.2,999.2z"/>
	</g>
	<g class="st0">
		<path class="st1" d="M865.7,996.7c-0.8-0.2-1.5-0.5-2.3-0.7c-2.9-0.7-5.3-1.5-7.2-2.5c-1.9-0.9-3.5-2.4-4.8-4.5l-4.5-7.1
			c0-36.6,21.4-59.6,64.2-68.9c11.8,3.3,17.6,8.1,17.6,14.5c0,7.4-7.6,16.9-22.9,28.4l-8.7,0.4c0.6-3.3,2.3-7.1,5.1-11.5
			s5.9-8.4,9.3-12l-3.1-3.6c-6.9,0.2-13.5,1.8-19.8,4.8s-11.8,7.2-16.5,12.8c-7,11.8-10.5,20.6-10.5,26.5s3.9,8.9,11.8,8.9
			c6.1,0,14.6-1.7,25.7-5.2s24.9-8.6,41.6-15.5c1.9-0.1,3.4,0.2,4.5,0.8c1,0.7,1.5,1.6,1.5,2.8c0,1.6-0.8,3.3-2.4,5.3
			c-9.5,6.7-17.5,11.8-24.2,15.3s-14,6.2-21.9,8s-17.9,3-29.9,3.6C867.3,997.2,866.5,996.9,865.7,996.7z"/>
	</g>
	<g class="st0">
		<path class="st1" d="M939.6,994.3l-3.8-2.2c-6.4-7.9-9.6-15.8-9.6-23.8c0-17.8,16.1-36,48.4-54.6c0.5,0.1,1.2,0.2,2.2,0.2
			c2.4,0,5.2-1.1,8.2-3.3l2.2,1.3l4.4-1.1c2.9,1.8,7,3.2,12.4,4.2l4.2,3.1c0.2,2.7,0.4,4.8,0.4,6.5c0,2.2-0.1,3.9-0.2,5.1
			c-8.9,9.8-18.6,18-29.3,24.5s-23.2,11.9-37.5,16.1c0.2,2.3,0.7,4.4,1.5,6.2c0.7,1.8,2,3.5,3.8,5.1c3.6,2.3,7.1,3.5,10.4,3.5
			c1.3,0,2.8-0.2,4.4-0.5l3.3-0.9l13.8-4.5l2.7-1.3l5.1-1.3l2.5-1.5l3.6-1.8c0.8-0.4,2.5-1,4.9-1.9s4.9-2,7.5-3.4
			c2.4-1.6,4.7-2.4,6.9-2.4c1.6,0,2.8,0.3,3.7,1s1.4,1.7,1.4,3c0,1.2-0.3,2.4-0.9,3.6l-6.5,4.2c-7.4,4.8-12.8,7.6-16.2,8.2l-5.6,2.7
			c-0.4,0.5-1.5,0.8-3.3,1.1c-3.3,1.3-5.3,2.4-6,3.1c-3.4-0.2-7.5,1-12.2,3.6c-1.7-0.2-3-0.4-4-0.4c-2.4,0-5.2,0.4-8.4,1.1
			L939.6,994.3z M967.4,946.5c10.1-4.1,17.8-10.6,23.1-19.5l-3.8-2.2c-17.1,2.3-31.2,12.6-42.4,30.9
			C953.4,954.9,961.1,951.8,967.4,946.5z"/>
	</g>
	<g class="st0">
		<path class="st1" d="M1073.8,995.8c-1.2-1-2.4-1.8-3.6-2.5c-1.7-1-3-1.9-3.9-2.7s-1.5-2-1.9-3.5c-0.6-0.6-1.1-1.5-1.4-2.7
			s-0.5-2.2-0.7-3s-0.3-1.4-0.3-1.7c-0.2-2.3-0.5-3.9-0.9-4.9l-0.2-1.8l0.9-2.7c-0.1-0.8-0.2-2.1-0.2-3.6c0-1.9,0.2-3.9,0.5-5.8
			l8.2-12l5.1-6c2.5-2.2,4.3-4.5,5.3-7.1l4.4-2.7c3.2-4.1,7.3-8.4,12.4-12.7l4.9-4.7c3.8-1.9,7.2-4,10.4-6.2
			c3.6,0.1,7.3-0.7,11.1-2.5l2.9-0.5c2.5,1.5,6.1,2.7,10.7,3.6c4.4-8.1,6.8-17.3,7.3-27.6l8.9-19.5l2.4-2.5c0.5-0.6,0.9-2.1,1.3-4.5
			l10.5-6.7c7.9,0.2,12.6,4.8,14.2,13.8c-0.6,3.3-2.3,6.2-5.1,8.9c-0.4,8.1-3,16.6-8,25.5l-0.5,2.5c-0.7,4.8-2.9,10.1-6.5,15.8
			c-1.5,5.9-5,12.8-10.5,20.5c-1.2,4.2-1.8,8.5-1.6,12.7l-1.5,1.6l1.8,4.9c0.1,1.6,0.2,3.8,0.2,6.5l-0.2,9.3c0,4,0.7,8.1,2.2,12.2
			c3.2,0.5,5.6,0.7,7.5,0.7c1,0,2.8-0.1,5.5-0.4c1.1-0.7,2.2-1.3,3.4-1.6c1.2-0.4,2.5-0.7,4-1s2.7-0.5,3.5-0.6c1.7,0,3,0.3,4,0.8
			s1.5,1.4,1.5,2.5c0,2.5-2.9,5.9-8.5,10l-1.5,2.4l-6.5,1.1c-6.7,0-12.2-0.5-16.5-1.6c-4.4-1.1-7.9-3.2-10.5-6.5
			c-2.6-3.2-3.9-8-3.9-14.3c0-2.8,0.1-5,0.4-6.5c-6.8,7.5-14.2,13.7-22.3,18.6c-8.1,4.9-17.4,8.8-28.1,11.7L1073.8,995.8z
			 M1105.5,973.1c7.6-5.3,14.6-11.3,20.9-18.1c6.5-7.2,9.8-13.2,9.8-18.2c0-3.5-1.6-6.4-4.7-8.5c-3.2-2.2-7.8-3.6-14-4.2
			c-9,5.3-16.9,11.2-23.6,17.5c-6.8,6.4-12.8,14.2-18,23.4c1.1,5.7,2.1,9.8,2.9,12.2s2.5,4.7,4.9,6.9
			C1090.6,982.1,1097.8,978.4,1105.5,973.1z M1163.5,879.9c1.6-4.1,2.4-6.4,2.4-6.7c0-0.6-1.3,1.5-4,6.4c-4.6,8-8.2,19.2-10.7,33.6
			C1153.7,905.5,1157.8,894.4,1163.5,879.9z"/>
	</g>
	<g class="st0">
		<path class="st1" d="M1163.3,980.5c-2.2-3.5-3.3-7.2-3.3-11.1c0-5.8,2.5-12.5,7.5-20.2c2.2-0.2,3.5-0.4,4-0.4
			c1.1,0,2.2,0.2,3.4,0.7c1.2,0.5,2.7,1.3,4.6,2.5c0.2,1,0.2,2.1-0.2,3.4c-0.4,1.3-0.8,2.6-1.5,3.9c-0.6,1.3-1.2,2.7-1.6,4.2
			c-0.5,1.5-0.7,2.9-0.7,4.2c0,2.2,0.6,4.3,1.8,6.4c2.9,2.7,6.3,4.8,10.1,6.4c3.8,1.6,7.5,2.4,11,2.4c5.7,0,10-2.1,12.9-6.2
			c7-1.6,13.3-5.4,18.8-11.5s9.1-13,10.6-20.7c-1.5-1.8-4.2-3.5-8.3-5.1c-4.1-1.6-8-2.4-11.9-2.4c-2.8,0-5.2,0.5-7.3,1.6l-8.7,11.5
			l-4.9,3.6l-0.7,2.2h-3.5l-1.5,3.6c-0.8,0-1.8-0.5-2.8-1.4s-1.6-1.4-1.7-1.5c-0.5-0.4-1-0.8-1.6-1.3s-1.1-0.8-1.5-1.1
			c1.6-7.6,4-13.7,7.3-18.3c3.3-4.5,8.2-8,14.6-10.3c6.5-2.3,15.2-3.5,26.3-3.5h1.3c13.8,5.9,20.7,13.4,20.7,22.4
			c0,3.5-1.2,7.4-3.6,11.6c-4.1,16.1-15.5,27.8-34,35.1c-6.2,3.9-13.2,5.8-20.9,5.8c-7.9,0-16.1-1.9-24.7-5.8
			C1168.8,987.7,1165.5,984,1163.3,980.5z"/>
		<path class="st1" d="M1322.6,992.5c-6.9,0-10.6-5.2-11.1-15.5c3-5.5,5.3-12.5,6.7-21.3l2.4-2.2l-1.3-5.6c2.3-3.8,5.3-7.5,9.1-11.3
			h2.2c1.2,0.2,2,0.6,2.5,1.1c0.4,0.5,0.9,1.4,1.4,2.6c0.5,1.3,1,2.3,1.5,3c-0.7,8.1-3.3,17.1-7.8,26.9c-0.1,0.6-0.2,1.4-0.2,2.4
			c0,1.6,0.3,2.8,0.9,3.5c0.6,0.8,1.6,1.6,2.9,2.5c1.6,1.1,2.8,2.3,3.5,3.5c0.8,1.3,1.1,3.3,1,6.1
			C1330.6,991.1,1326.1,992.5,1322.6,992.5z M1353,878.8l-3.1-0.9c-4.7-6.4-7.1-11.2-7.1-14.4c0-1.9,0.7-3.5,2.2-4.8
			s3.8-2.6,6.9-4.1c5.1,0.6,9.3,3.9,12.7,9.8c0,4.5-2.2,9.3-6.7,14.5L1353,878.8z"/>
		<path class="st1" d="M1349.1,995.2l-3.3-3.8l-4.7-10.2l-1.1-4l1.1-5.1l0.2-5.1v-6.2l-0.2-6.2l2-3.8l0.5-6l3.1-4.7l1.5-4l2.9-4.7
			l1.6-4.9l4.2-4.4l2.5-4.4l6.5-3.6l2.7,8.4l-2.5,5.6l-4.4,9.8l-2,4.7l-1.6,4l-2.7,11.1l0.4,10.5l-0.2,5.8l3.5,4.2l5.6-1.1l5.5-1.6
			l3.6-4l4.2-4.9l4.2-4.2l2-4.5l3.5-4.5l4.2-3.6l2.9-5.5l5.3-8.2l3.3-9.5l7.5-8l12,3.6l-2,10l-2.9,4.7l-1.6,5.1l-2.9,6.2l-5.1,9.3
			l-0.2,4.7l-1.3,5.1l-1.5,6.4l2.9,5.5l5.1,2l8.5-3.1l5.5-2.5l4.9-0.9l8.5-5.3l8-4.4l6.7-0.9l2.5,4.5l-6.9,8.5l-3.3,3.1l-9.1,6.2
			l-4.4,1.3l-5.5,4l-5.1,1.8l-6.5,1.3l-5.1,0.9l-5.1-0.9l-5.1-2.2l-3.5-3.6l-2.7-4.9l0.4-5.1l-0.2-6.2l-1.1-5.6l-4,3.3l-3.5,5.6
			l-4.5,2.7l-4,4.7l-3.5,3.8l-5.5,2l-4.5,4.7l-4,2.2l-6.7,0.4L1349.1,995.2z"/>
	</g>
	<g class="st0">
		<path class="st1" d="M1520.2,996c-4.4,0-8.7-1.6-12.9-4.9c-0.1-5.9-1.5-13.3-4-22.2l-0.5-4.9l-0.9-2c-1.6,2.5-3.6,3.7-6,3.5
			c-1.6,5-5,9.2-10.4,12.5c-6.2,10.7-15.5,16-27.8,16c-2.4,0-5-0.2-7.8-0.5c-0.7-2.8-1.8-5.5-3.3-8c0-6.4,1.8-13,5.3-19.6l-0.4-6.7
			c1.5-2.9,2.5-5.2,3.1-6.9c0.7-2.3,1.6-4.9,2.7-7.8l3.8-10.2c1.7-0.5,4.3-1.6,7.8-3.3c5.6,2.9,8.4,7.9,8.4,15.1
			c-7.6,8-11.6,18.5-11.8,31.5c7.4-4.6,14.6-11.7,21.6-21.3c1.5-1.9,3.5-3.7,6-5.3l1.1-2.7l5.1-4.4l3.8-10.4c0-1.8,0.8-4.3,2.5-7.5
			l0.9-1.8c2.2-1.7,4.1-2.5,5.8-2.5c3,0,4.6,3,4.7,8.9l-0.7,24.2l5.3-13.8c0.4-5.6,0.8-9.6,1.2-12.1c0.4-2.5,1.3-5.1,2.6-7.8
			c1.3-2.7,3.6-6.1,6.9-10.1c5.1-2.3,13-4.8,23.6-7.6c4.2,0.2,8.4-0.4,12.5-2l1.8,1.1l12.5-2c4.1,0.2,7.1,0.6,9,1.1s2.8,1.1,2.8,1.8
			c0,1.6-3.8,4.1-11.5,7.6c-1.5-0.1-3.5-0.2-6.2-0.2c-4.2,0-7.9,0.4-11.1,1.3c-3.2,0.8-6.2,2-9.2,3.5s-7.7,4.2-14.1,7.9
			c-2.8,5.1-4.2,10.7-4.2,16.9l-3.3,6.4c0.6,1.2,0.9,2.5,0.9,3.8c0,1.2-0.2,2.5-0.7,3.8l-3.8,6.2c-1.8,3.8-2.7,7.5-2.7,11.1
			c0,2.9,0.6,7.1,1.8,12.5l-1.5,7.6l-1.5,2.7C1525.2,995.5,1522.7,996,1520.2,996z"/>
		<path class="st1" d="M1550,994.3l-3.8-2.2c-6.4-7.9-9.6-15.8-9.6-23.8c0-17.8,16.1-36,48.4-54.6c0.5,0.1,1.2,0.2,2.2,0.2
			c2.4,0,5.2-1.1,8.2-3.3l2.2,1.3l4.4-1.1c2.9,1.8,7,3.2,12.4,4.2l4.2,3.1c0.2,2.7,0.4,4.8,0.4,6.5c0,2.2-0.1,3.9-0.2,5.1
			c-8.9,9.8-18.6,18-29.3,24.5c-10.7,6.5-23.2,11.9-37.5,16.1c0.2,2.3,0.7,4.4,1.5,6.2c0.7,1.8,2,3.5,3.8,5.1
			c3.6,2.3,7.1,3.5,10.4,3.5c1.3,0,2.8-0.2,4.4-0.5l3.3-0.9l13.8-4.5l2.7-1.3l5.1-1.3l2.5-1.5l3.6-1.8c0.8-0.4,2.5-1,4.9-1.9
			s4.9-2,7.5-3.4c2.4-1.6,4.7-2.4,6.9-2.4c1.6,0,2.8,0.3,3.7,1c0.9,0.7,1.4,1.7,1.4,3c0,1.2-0.3,2.4-0.9,3.6l-6.5,4.2
			c-7.4,4.8-12.8,7.6-16.2,8.2l-5.6,2.7c-0.4,0.5-1.5,0.8-3.3,1.1c-3.3,1.3-5.3,2.4-6,3.1c-3.4-0.2-7.5,1-12.2,3.6
			c-1.7-0.2-3-0.4-4-0.4c-2.4,0-5.2,0.4-8.4,1.1L1550,994.3z M1577.8,946.5c10.1-4.1,17.8-10.6,23.1-19.5l-3.8-2.2
			c-17.1,2.3-31.2,12.6-42.4,30.9C1563.8,954.9,1571.5,951.8,1577.8,946.5z"/>
	</g>
	<g class="st0">
		<path class="st1" d="M1654.6,999.2l-5.3-0.2l-5.1,0.4l-6-1.6l-4.4-2.4l-5.3-3.3l-5.6-7.3l-4.2-3.8l-1.1-2.2l3.5-4.9l9.3,2l4,2.5
			l4.4,4.4l4,1.1l5.6,1.1h6.2l5.3,0.5l2.9-4.5l-6.9-6.2l-4.2-4l-2-4.4l-4.5-4l-2.4-4.7l-2-3.1l-3.8-6.2l-2.9-2.5l-2-4.5v-10l0.5-4.5
			l3.8-3.5l3.5-4l2.7-4l5.1-3.3l3.5-1.6l5.8-2.2l5.5-0.5l9.8,1.3l5.8,0.9l2.9,4l4,2.5l3.1,4.7l0.4,5.5l-0.5,4.4l-1.3,5.1l-4.2,5.6
			l-2.4,4.2c-0.2,0.5-0.8,1.3-1.5,2.4c-0.8,1.1-1.5,1.9-2.1,2.5c-0.6,0.5-1.2,0.8-1.8,0.8c-1,0-1.9-0.5-2.9-1.5
			c-1.6-1.2-2.4-3-2.4-5.5c0-1.5,0.3-2.9,0.9-4.4l2-4.2l0.7-6.7l-0.5-4.7l-4.5-4.5l-4.5,0.7l-4.7,2l-5.3,2l-7.5,4.7l1.3,7.8l2.7,5.5
			l2.5,5.3l2.9,4.4l4,4.2l3.5,5.1l4.4,4.7l2.9,2.7l8.4,8.7l1.3,4.9l1.8,7.6l-5.8,4.7l-5.3,2.2l-5.5-0.2l-4.7,2.5L1654.6,999.2z"/>
	</g>
	<g class="st0">
		<path class="st1" d="M1761.6,898.8c0,1.2-1.2,2.8-3.6,4.7l-4.7,2.9l-8.9-1.1l-6.2,0.2l-6.4,0.5c-2.9,0-5.2-0.1-6.7-0.2l-6.5,1.6
			l-5.8,24.9l0.5,1.8l-1.1,3.3l-0.4,6l-6,13.8c-0.1,2.1-0.6,4.7-1.5,8c-0.1,0.8-0.4,2-0.9,3.4s-0.7,3.2-0.7,5.4
			c0,1.3,0.1,2.4,0.2,3.3c0,1.8,0.6,3.2,1.8,4c1.2,0.8,2.5,1.5,3.9,1.9s2.1,0.7,2.1,0.8c1.5,1.6,2.2,3.2,2.2,4.7
			c0,2.1-1.4,3.7-4.1,4.9s-6.6,1.9-11.5,2l-8.5-4.4c-1.2-2.1-1.8-4.9-1.8-8.5c0-2.8,0.6-8.1,1.8-15.8c0.8-2.1,1.7-4.6,2.5-7.6
			s1.5-5.2,1.8-6.4c0.8-3.5,2.1-7.7,3.6-12.5c0.8-2.3,1.5-4.7,2-7.1c0.5-2.4,0.8-4,0.9-4.7l3.6-17.6l1.1-4.2
			c-6.2,1.2-11.2,1.8-14.9,1.8c-1.8,0-3.2-0.2-4.2-0.5c-2.1-1-3.6-4.2-4.7-9.6c2.1-0.4,3.9-1.9,5.6-4.5c6.1-0.2,10.1,0.3,12,1.6
			l4.4-0.2l2.5,0.2l1.8-2.5l0.7-4.9l3.5-15.5l0.7-1.8v-3.5c0.6-0.6,0.9-1.8,0.9-3.5c0.1-0.1,0.3-0.9,0.5-2.3c0.2-1.4,0.8-3,1.8-4.8
			l0.7-3.3l0.9-3.6v-0.7l0.2-1.8c0-1-0.4-1.8-1.1-2.5c-0.5-0.5-0.7-1.2-0.7-2c0-1.8,1.1-3.7,3.2-5.5c2.1-1.9,4.5-2.8,7-2.8h3.5
			c1.7,0.6,2.9,1.3,3.7,2.2c0.8,0.8,1.1,2.1,1,3.8c-1.9,4.7-3.5,9.3-4.7,13.8c-0.6,0.7-1,1.7-1.3,3c-0.2,1.3-0.4,2-0.4,2.3
			c-0.5,2.9-1.2,5.3-2,7.1l-0.7,6l-1.8,5.8l0.2,6.4l-1.3,5.1l-1.1,4.2l7.6,0.5c-0.1,0.2,1,0.2,3.3,0s3.5-0.4,3.6-0.4
			c0.8,0.4,1.6,0.5,2.2,0.5c0.2,0,0.7,0,1.3-0.1c0.6-0.1,1.6-0.1,2.9-0.1h7.8c0.5,0,1.5,0,2.9,0.1c1.5,0.1,3,0.3,4.7,0.8
			C1759.9,896.1,1761.6,897.2,1761.6,898.8z"/>
	</g>
	<g class="st0">
		<path class="st1" d="M1759.7,1184.5c-0.6,0-1.2-0.2-1.6-0.6c-0.5-0.4-0.7-1-0.7-1.7l-5.6-12l1.3-17.6l0.2-10.5l2.9-22.5l0.5-16.2
			l2.5-16.4l1.6-8.4l4.4-15.5l2.2-15.5l5.5-17.8l2.2-8.4l6.9-14.9l3.8-10.9l1.6-6.2l4.7-10.7l4.4-9.8l1.3-5.6l3.6-5.5l1.5-4.9
			l-8.9,2.7l-7.8,6.5l-8.9,6.2l-7.5,6.2l-8.2,6.5l-5.8,8.5l-8,4.2l-8.4,4.5l-9.6,1.3l-7.6-3.1l-4.5-8.5l-2.7-8.5l1.6-14.4l11.3-29.5
			l8-10l7.1,1.5l-0.2,15.5l-11.1,27.3c0,0.7-0.2,1.9-0.7,3.6c-0.4,2.5-0.5,3.9-0.5,4c0,0.8,0.2,1.8,0.5,2.7c1,1.8,2.7,2.7,5.1,2.7
			c1.1,0,1.9-0.1,2.5-0.4c1.9-0.6,3.6-1.5,5-2.5c1.4-1.1,2.9-2.5,4.6-4.4l3.8-3.5l15.6-12.4l14.4-11.8l6.7-6l10.9-6.9l8-8.9l4.7-2.7
			l4.7-1.8l3.8,0.7l6.9,8.7l-2.7,13.6l-5.5,10.9l-3.6,8l-5.5,13.8l-7.5,15.6l-8.4,15.3l-2.5,7.3l-6,15.3l-1.1,8.9l-2.2,10.2
			l-5.5,19.1l-1.1,10l-4,19.6l-1.6,8.9l-2,10.2l-1.6,19.5l-1.6,10.7l0.2,9.3l-0.7,16.9l-2.4,9.5
			C1761.6,1184.2,1760.7,1184.5,1759.7,1184.5z"/>
	</g>
	<g class="st0">
		<path class="st1" d="M1832.8,996.7c-0.8-0.2-1.5-0.5-2.3-0.7c-2.9-0.7-5.3-1.5-7.2-2.5c-1.9-0.9-3.5-2.4-4.8-4.5l-4.5-7.1
			c0-36.6,21.4-59.6,64.2-68.9c11.8,3.3,17.6,8.1,17.6,14.5c0,7.4-7.6,16.9-22.9,28.4l-8.7,0.4c0.6-3.3,2.3-7.1,5.1-11.5
			c2.8-4.4,5.9-8.4,9.3-12l-3.1-3.6c-6.9,0.2-13.5,1.8-19.8,4.8s-11.8,7.2-16.5,12.8c-7,11.8-10.5,20.6-10.5,26.5s3.9,8.9,11.8,8.9
			c6.1,0,14.6-1.7,25.7-5.2s24.9-8.6,41.6-15.5c1.9-0.1,3.4,0.2,4.5,0.8c1,0.7,1.5,1.6,1.5,2.8c0,1.6-0.8,3.3-2.4,5.3
			c-9.5,6.7-17.5,11.8-24.2,15.3s-14,6.2-21.9,8s-17.9,3-29.9,3.6C1834.4,997.2,1833.5,996.9,1832.8,996.7z"/>
	</g>
	<g class="st0">
		<path class="st1" d="M1880.5,1079.6l1.5-1.6c0.6-6.1,2.2-12.9,4.7-20.4l0.9-4.7v-3.3l1.6-2.4l0.7-3.1l1.6-12.7
			c1-3.6,1.5-7,1.5-10.2l0.9-4.7l1.1-5.5l0.7-3.6c0.7-4,1.2-6.2,1.3-6.7c0.5-2.1,0.7-5.8,0.7-11.1c1.1-3.2,1.6-5.5,1.6-7.1l1.6-5.5
			v-4.7l4.9-18.9c0.8-3.3,2.1-6.4,3.8-9.5l2.4-13.5l2.4-3.8v-4.7l4.7-3.3h12l2.4,4.7c-1.1,5.5-4,11-8.7,16.5
			c-1.6,3.3-2.9,8.1-4,14.4l-0.7,1.5l-2.4,2.4c0,0.8-0.5,3.4-1.4,7.6c-0.9,4.2-1.8,8-2.8,11.3l-0.7,4.7l-0.9,5.5l-2.4,13.5v3.1
			l-0.7,4l-1.6,11.1l-0.7,4l-0.7,4.7l-2.4,10.9c-1,2.3-1.8,6.8-2.4,13.5l-3.3,11.8l-0.7,5.6l-0.7,6.2c-1.1,2.2-1.6,4.6-1.6,7.3
			l-1.6,3.1v3.1l-1.5,2.4c-0.6,4.2-2.2,8.2-4.9,11.8l-1.5,6.4c-4,5.2-8.3,9.2-13,11.9c-4.7,2.7-9.2,4.1-13.5,4.1
			c-6.4,0-11.7-2.8-15.8-8.5c-4.1-5.6-6.2-13.7-6.2-24.1c0-5.3,0.5-10.6,1.5-15.8c2.1-6.1,3.6-12.4,4.5-19.1c1.3-2.2,2.7-4.9,4-8.2
			c1.3-3.3,2.1-5.3,2.4-6l3.1-3.6l6.2-11.5l4.5-4l7.8-8.4l8.7,0.7c-1,5-3.1,9.9-6.4,14.9l-0.4,2.4l-7.6,9.6l-2,2
			c-0.6,3.5-1.9,6.8-4,9.8l-1.6,5.3l-1.3,2.2c-0.4,2.3-1.3,5.1-2.7,8.4c-2.2,8.7-3.3,15.9-3.3,21.6s0.9,10,2.7,13
			c1.8,3,4.3,4.5,7.5,4.5c1.2,0,2.9-0.4,5.1-1.3C1872.4,1101.9,1877.5,1091.9,1880.5,1079.6z M1933.2,873.8
			c-1.2-1.4-1.8-3.2-1.8-5.5l0.2-2c-1.3-0.8-2.2-2-2.6-3.4s-0.8-3.7-1.2-7c0.5-4,2.8-7.4,7.1-10.2c0.8-0.1,2.1-0.2,3.6-0.2
			c4,0,7,0.7,9.1,2s3.1,3.6,3.1,6.7c0,2.1-0.5,4.7-1.6,8c-0.4,1.1-1.1,2.7-2.2,4.7c-0.8,1.2-1.7,2.9-2.5,4.9l-1.3,2.7l-3.8,0.9
			C1936.5,875.8,1934.5,875.2,1933.2,873.8z"/>
	</g>
	<g class="st0">
		<path class="st1" d="M1935.4,992.5c-6.9,0-10.6-5.2-11.1-15.5c3-5.5,5.3-12.5,6.7-21.3l2.4-2.2l-1.3-5.6c2.3-3.8,5.3-7.5,9.1-11.3
			h2.2c1.2,0.2,2,0.6,2.5,1.1c0.4,0.5,0.9,1.4,1.4,2.6c0.5,1.3,1,2.3,1.5,3c-0.7,8.1-3.3,17.1-7.8,26.9c-0.1,0.6-0.2,1.4-0.2,2.4
			c0,1.6,0.3,2.8,0.9,3.5c0.6,0.8,1.6,1.6,2.9,2.5c1.6,1.1,2.8,2.3,3.5,3.5c0.8,1.3,1.1,3.3,1,6.1
			C1943.5,991.1,1938.9,992.5,1935.4,992.5z M1965.8,878.8l-3.1-0.9c-4.7-6.4-7.1-11.2-7.1-14.4c0-1.9,0.7-3.5,2.2-4.8
			s3.8-2.6,6.9-4.1c5.1,0.6,9.3,3.9,12.7,9.8c0,4.5-2.2,9.3-6.7,14.5L1965.8,878.8z"/>
		<path class="st1" d="M1974.7,985.2c2.5-4.1,6.5-7,12-8.7c5,1.1,7.5,3.9,7.5,8.4c0,1.6-0.4,3.6-1.1,6c0.4,4.5-1.5,6.7-5.5,6.7
			c-2.3,0-5.3-0.7-8.9-2.2C1976.9,991.8,1975.6,988.4,1974.7,985.2z M1982.7,936.7c0.8-1.9,2.2-4.1,4-6.5l1.1-7.1l1.3-4.7l1.8-3.3
			l-0.5-3.8l0.9-4l0.4-1.8c0.8-4.4,1.3-7.5,1.5-9.3l0.2-3.8c0.4-0.2,0.5-0.7,0.5-1.3l-0.4-1.5c2.1-5.2,3.3-10.2,3.6-15.1
			c0.8-2.7,1.3-5.3,1.3-7.8c0-1.6-0.2-3.1-0.5-4.5c1.8-2.1,3.2-4.9,4.2-8.5c-0.4-3.3,0.5-7.2,2.7-11.8l-1.1-1.3
			c2.1-3.6,3.1-8.1,3.1-13.3c0-1.9-0.1-3.4-0.2-4.4l2.2-4.5c-0.5-1.1-0.7-2.6-0.7-4.5s0.4-3.9,1.1-5.8l4.9-5.3c2.8,0,7,0.7,12.5,2
			c0.1,1.9-0.1,4.1-0.7,6.5s-1.6,5.5-2.9,9.1l-1.5,3.3c0.1,0.4,0.2,0.9,0.2,1.6c0,1.6-0.7,3-2,4.4l0.4,3.3c-1.3,2.3-2,4.6-2,6.9
			l1.8,2l-2.9,2c-1.1,2.2-1.6,3.9-1.6,5.3c0,0.4,0.1,1,0.4,2l-1.3,3.8c-1.2,2.7-2.2,6.9-3.1,12.5l-1.6,3.3l-2.9,20.9
			c-1.1,3.8-1.9,9.2-2.5,16.4l-1.3,2.5l0.9,2c-0.1,0.8-0.5,2.8-1.1,5.7c-0.6,3-1.3,5.4-2.2,7.4c0.6,1.8,1.3,4.9,2.2,9.1
			c1.1,1.9,1.5,3.5,1.3,4.7c-2.5,3.6-7.2,6-14,7.1C1986,944.1,1983.6,940.8,1982.7,936.7z"/>
	</g>
</g>
</svg>
