<?xml version="1.0" encoding="utf-8"?>
<!-- Generator: Adobe Illustrator 25.2.1, SVG Export Plug-In . SVG Version: 6.00 Build 0)  -->
<svg version="1.1" id="Capa_1" xmlns="http://www.w3.org/2000/svg" xmlns:xlink="http://www.w3.org/1999/xlink" x="0px" y="0px"
	 viewBox="0 0 524 513.8" style="enable-background:new 0 0 524 513.8;" xml:space="preserve">
<style type="text/css">
	.st0{fill:#0072BA;}
</style>
<g>
	<g>
		<g>
			<path class="st0" d="M411.4,309.5c-16.8,0-30.4-13.6-30.4-30.4c0-7.6,5.9-13.5,13.5-13.5c7.4,0,13.5,6.1,13.5,13.5
				c0,1.9,1.6,3.5,3.5,3.5s3.5-1.6,3.5-3.5c0-7.4,6.1-13.5,13.5-13.5c3.7,0,7.2,1.5,9.7,4.1c2.4,2.6,3.7,5.9,3.6,9.5
				C441.7,295.9,428.1,309.5,411.4,309.5z"/>
			<path class="st0" d="M411.4,306.5c-15.1,0-27.4-12.3-27.4-27.4c0-5.9,4.6-10.5,10.5-10.5c5.8,0,10.5,4.7,10.5,10.5
				c0,3.6,2.9,6.5,6.5,6.5s6.5-2.9,6.5-6.5c0-5.8,4.7-10.5,10.5-10.5c2.8,0,5.6,1.2,7.5,3.2c1.9,2,2.9,4.6,2.8,7.4
				C438.8,294.2,426.5,306.5,411.4,306.5z"/>
			<path class="st0" d="M411.4,306.5c-15.1,0-27.4-12.3-27.4-27.4c0-5.9,4.6-10.5,10.5-10.5c5.8,0,10.5,4.7,10.5,10.5
				c0,3.6,2.9,6.5,6.5,6.5s6.5-2.9,6.5-6.5c0-5.8,4.7-10.5,10.5-10.5c2.8,0,5.6,1.2,7.5,3.2c1.9,2,2.9,4.6,2.8,7.4
				C438.8,294.2,426.5,306.5,411.4,306.5z"/>
			<path class="st0" d="M428.5,271.6c-4.1,0-7.5,3.3-7.5,7.5c0,5.2-4.2,9.5-9.5,9.5c-5.2,0-9.5-4.2-9.5-9.5c0-4.1-3.3-7.5-7.5-7.5
				s-7.5,3.3-7.5,7.5c0,13.4,10.9,24.4,24.4,24.4s24.4-10.9,24.4-24.4C436,274.9,432.6,271.6,428.5,271.6z"/>
		</g>
	</g>
	<g>
		<g>
			<path class="st0" d="M329.8,513.8c-11.7,0-21.7-8.3-23.8-19.8l-4.3-23.1c-13.6,1.7-27.3,2.5-40.9,2.5c-9.3,0-18.7-0.4-28.1-1.2
				l-4.1,21.8c-2.1,11.5-12.1,19.8-23.8,19.8h-35.2c-11.7,0-21.7-8.3-23.8-19.8l-9.6-49.8c-24.3-13.6-43.5-31.7-57-53.5
				c-14.9-24-22.6-52.1-22.9-83.6c-14.9,17.7-30.5,21.4-41.1,21.4l-2,0C5.8,328.1,0,322.1,0,314.7c0-7.6,5.9-13.6,13.5-13.8
				c4.9-0.2,11.8-1.7,18.4-7.4c-12.2-3.9-20-9.6-23.8-17.3c-2.9-6.2-4.6-15.9,4.3-27.7c5.4-7.1,13.3-11.2,21.5-11.2
				c1.1,0,2.3,0.1,3.5,0.2c10.1,1.4,19.6,8.7,25.2,19c10.8-38,35-68.8,70.5-89.2c2.1-1.2,4.4-1.8,6.8-1.8c2.7,0,5.2,0.8,7.3,2.2
				c-11.8-17.6-18.2-38.3-18.2-59.9c0-28.8,11.2-55.8,31.6-76.1C181,11.2,208,0,236.7,0c28.8,0,55.8,11.2,76.1,31.6
				c8.1,8,14.8,17.3,20.1,27.7c1.6,3.2,1.9,6.9,0.8,10.3c-1.1,3.4-3.6,6.2-6.8,7.8c-1.8,0.9-3.9,1.4-6,1.4c-5,0-9.6-2.8-12-7.4
				c-4-7.7-9-14.7-15.1-20.8C278.6,35.4,258.3,27,236.7,27c-21.6,0-42,8.5-57.2,23.8c-15.3,15.3-23.7,35.6-23.7,57.2
				s8.4,41.9,23.6,57.2c8,8,17.4,14.2,27.8,18.2c9.7-1.3,19.5-1.9,29.3-1.9c9.8,0,19.6,0.7,29.3,1.9c10.4-4,19.8-10.1,27.8-18.2
				c14.3-14.3,22.6-33.4,23.5-53.5c0.4-7.2,6.3-12.8,13.4-12.8c0.2,0,0.4,0,0.7,0c3.6,0.2,6.9,1.7,9.3,4.4c2.4,2.7,3.7,6.1,3.5,9.7
				c-0.5,11.4-2.8,22.5-6.8,33c2,0.5,4.1,1,6,1.5c1-0.6,2.1-1.2,3.1-1.6c35.4-16.2,61-24.4,75.8-24.4c7,0,10.5,1.8,12.2,2.7
				c9.6,5,14.5,17.8,14.8,39.2c0.2,12.5-1.3,27.2-4.1,40.5c4.1,4.4,8,9.1,11.5,13.9c9.2,12.7,16.2,26.5,20.7,40.9
				c0.3,0.8,1,1.5,1.9,1.8l20.9,6.7c14.2,4.6,23.8,17.6,23.8,32.4v34.8c0,15-9.6,28-23.8,32.5l-33.8,10.8c-0.4,0.1-0.9,0.5-1.1,0.9
				C450.6,404,428.2,425,398.8,441l-10,53c-2.1,11.5-12.1,19.8-23.8,19.8H329.8z M202.6,487.1l5.3-27.9c1.5-8.4,8.9-14.5,17.5-14.5
				c0.7,0,1.3,0,2,0.1c10.4,1.2,21.7,1.9,33.4,1.9c15.1,0,30.5-1.2,45.5-3.4c0.9-0.1,1.8-0.2,2.8-0.2c8.4,0,15.7,6.1,17.3,14.4
				L332,487h30.8l10.4-55.1c0.9-5.2,4.3-9.8,9.2-12.4c26.8-13.9,46.9-32.1,59.6-54.1c3.6-6.3,9.4-11,16.3-13.2l33.8-10.8
				c3-1,5-3.8,5-6.9v-34.8c0-3.1-2-5.9-5.1-6.9l-21-6.7c-9.1-3-16.3-10.3-19.2-19.4c-3.7-11.7-9.2-22.7-16.5-32.8
				c-4.4,8.7-9.8,14.9-16,18.5c-7.2,4.1-16.7,6.3-26.8,6.3c-14.7,0-29-4.5-40.2-12.8c-10.4-7.6-17.8-18-22-30.8
				c-4-12.6-4.6-27.2-1.8-43.7c-0.8-0.2-1.6-0.4-2.3-0.5c-0.7-0.2-1.4-0.3-2.1-0.5c-3.6,5-7.4,9.5-11.4,13.5
				c-2.7,2.7-5.6,5.3-8.6,7.8c0.7,0.2,1.4,0.5,2.2,0.7c3.4,1.1,6.2,3.5,7.8,6.7c1.6,3.2,1.9,6.8,0.7,10.3c-2,5.5-7.1,9.2-12.8,9.2
				c-1.6,0-3-0.2-4.4-0.8c-19.5-6.5-40-9.8-61-9.8c-21,0-41.5,3.3-61.1,9.9c-1.4,0.5-2.8,0.7-4.3,0.7c-5.8,0-10.9-3.7-12.7-9.2
				c-1.1-3.4-0.9-7,0.7-10.3c1.6-3.2,4.4-5.6,7.8-6.7c0.8-0.2,1.5-0.5,2.2-0.7c-3-2.4-5.9-5-8.6-7.8c-2.8-2.8-5.3-5.6-7.8-8.6
				c0.7,2.3,0.7,4.8,0.1,7.2c-0.9,3.5-3.1,6.4-6.3,8.2c-20,11.7-35.6,26.9-46.2,45.1C89,255.6,83.2,279,83.2,305.6
				c0,52.4,24,93,69.5,117.3c4.7,2.4,8,6.9,9.1,12.2l10,52H202.6z M33.5,265.2c0.8,0.5,2.1,1.1,3.9,1.8c-1.3-1.5-2.6-2.3-3.3-2.6
				c-0.1,0.1-0.2,0.2-0.3,0.4C33.8,264.9,33.7,265,33.5,265.2z M420.7,148.2c-7.2,0.6-27.2,5.7-63.1,22.1c-0.9,0.4-1.6,1.2-1.7,2
				c-5.1,24.2-0.8,42.2,12.4,51.9c9,6.6,19.1,7.6,24.3,7.6c5.3,0,10.5-1.1,13.5-2.8c4.5-2.6,12.3-19.7,15.3-45.4
				C423.6,164.1,421.9,152.5,420.7,148.2z"/>
			<path class="st0" d="M329.8,510.8c-10.2,0-19-7.3-20.8-17.4l-4.9-25.9c-14.4,1.9-28.9,2.8-43.3,2.8c-10.1,0-20.4-0.5-30.6-1.4
				l-4.6,24.5c-1.8,10-10.6,17.3-20.8,17.3h-35.2c-10.2,0-19-7.3-20.8-17.4l-9.8-51.2c-24.5-13.5-43.7-31.4-57.2-53.2
				c-14.9-24-22.4-52.2-22.4-83.8c0-2.8,0-5.4,0.1-7.8c-1.1,1.9-2.4,3.8-3.9,5.7c-14.6,18.4-30,22.2-40.4,22.2l-1.8,0
				c-5.8-0.3-10.4-5-10.4-10.8c0-5.9,4.6-10.7,10.5-10.8c6.5-0.3,15.9-2.6,24.1-11.9c-14.2-3.7-22.9-9.3-26.8-17.1
				c-2.6-5.4-4-14,4-24.5c4.9-6.3,11.8-10,19.1-10c1,0,2,0.1,3.1,0.2c10.5,1.4,20.3,9.9,25,21.7c0.5,1.3,1,2.6,1.3,4
				c9.2-41.4,33.7-74.5,71.3-96.2c1.6-0.9,3.4-1.4,5.3-1.4c3.7,0,7.1,2,9,5.2c1.4,2.4,1.8,5.3,1.1,7.9c-0.7,2.7-2.4,4.9-4.9,6.4
				c-20.5,12-36.4,27.5-47.3,46.2c-11.7,20.2-17.6,44.2-17.6,71.3c0,53.6,24.6,95.1,71.1,120c3.9,2,6.6,5.7,7.5,10.2l10.4,54.1
				c0,0.2,0.2,0.3,0.4,0.3h35.2c0.1,0,0.3-0.1,0.4-0.3l5.7-30.1c1.3-7,7.4-12,14.5-12c0.6,0,1.1,0,1.7,0.1
				c10.6,1.2,21.9,1.9,33.8,1.9c15.3,0,30.8-1.2,46-3.5c0.7-0.1,1.5-0.2,2.3-0.2c7,0,13,5,14.4,12l6,31.7c0,0.2,0.2,0.3,0.4,0.3H365
				c0.1,0,0.3-0.1,0.4-0.3l10.8-57.3c0.7-4.3,3.6-8.1,7.6-10.3c27.3-14.2,47.8-32.8,60.8-55.3c3.2-5.7,8.4-9.9,14.6-11.9l33.8-10.8
				c4.2-1.4,7.1-5.3,7.1-9.7v-34.8c0-4.4-2.9-8.4-7.1-9.7l-21-6.7c-8.2-2.7-14.7-9.2-17.2-17.5c-3.8-12.2-9.6-23.6-17.2-34
				c-0.8-1.1-1.8-2.3-2.8-3.6c-4.5,10.6-10.2,17.8-16.9,21.7c-6.7,3.8-15.7,5.9-25.3,5.9c-14,0-27.7-4.3-38.5-12.2
				c-9.9-7.2-17-17.1-20.9-29.3c-4.1-12.8-4.5-27.9-1.2-45c-1.9-0.4-3.6-0.8-5.1-1.2c-1.4-0.3-2.7-0.6-4.1-0.9
				c-3.8,5.5-8,10.4-12.2,14.7c-4.1,4.1-8.4,7.7-12.9,11c2.4,0.7,5,1.5,7.7,2.4c2.6,0.9,4.8,2.7,6,5.2s1.4,5.3,0.6,8
				c-1.5,4.3-5.5,7.2-9.9,7.2c-1.2,0-2.4-0.2-3.4-0.6c-19.9-6.7-40.7-10-62-10c-21.3,0-42.1,3.4-62,10c-1.1,0.4-2.2,0.5-3.3,0.5
				c-4.5,0-8.5-2.9-9.9-7.1c-0.9-2.6-0.7-5.5,0.6-8s3.4-4.3,6-5.2c2.7-0.9,5.3-1.7,7.7-2.4c-4.7-3.4-9-7.1-13-11
				c-19.8-19.8-30.7-46.1-30.7-74s10.9-54.2,30.7-74C182.5,13.9,208.8,3,236.7,3c28,0,54.2,10.9,74,30.7c7.8,7.7,14.4,16.8,19.6,27
				c1.3,2.5,1.5,5.4,0.6,8c-0.9,2.7-2.8,4.8-5.3,6c-1.4,0.7-3,1.1-4.7,1.1c-3.9,0-7.5-2.2-9.3-5.8c-4.1-8-9.4-15.3-15.7-21.5
				C280.2,32.7,259.1,24,236.7,24c-22.4,0-43.5,8.8-59.4,24.7c-15.8,15.8-24.5,36.9-24.5,59.3c0,22.4,8.7,43.5,24.5,59.3
				c8.5,8.5,18.5,15,29.6,19.1c9.8-1.3,19.8-2,29.7-2s19.9,0.7,29.7,2c11.1-4.2,21.1-10.6,29.6-19.1c14.8-14.9,23.5-34.6,24.4-55.5
				c0.3-5.6,4.9-10,10.4-10c0.2,0,0.3,0,0.5,0c2.8,0.1,5.4,1.3,7.2,3.4c1.9,2.1,2.9,4.7,2.7,7.5c-0.6,12.2-3.2,24.1-7.9,35.3
				c3.6,0.8,7.2,1.7,10.6,2.6c1.1-0.7,2.3-1.5,3.8-2.1c35.1-16,60.2-24.2,74.6-24.2c6.3,0,9.2,1.5,10.8,2.4
				c8.6,4.5,12.9,16.4,13.2,36.6c0.2,12.9-1.4,27.8-4.3,41.3c4.4,4.6,8.6,9.6,12.3,14.8c9,12.4,15.8,25.9,20.2,40.1
				c0.6,1.8,2,3.1,3.8,3.7l21,6.7c13,4.2,21.7,16.1,21.7,29.6v34.8c0,13.6-8.7,25.6-21.7,29.7l-33.8,10.8c-1.1,0.4-2.2,1.2-2.8,2.3
				c-14.6,25.3-37,46.2-66.6,62l-10.2,54.4c-1.8,10-10.6,17.3-20.8,17.3H329.8z M29.7,265.9c1,1.3,4.7,3.8,13.7,6
				c-0.2-0.8-0.5-1.4-0.7-2c-2.2-5.4-6.3-8.3-8.5-8.6l-0.3,0l-0.1,0h0c-0.3,0-1.1,0-2.4,1.7C30.4,264.2,29.9,265.4,29.7,265.9z
				 M421.9,145.1c-7.7,0-29.4,5.9-65.6,22.4c-1.7,0.8-3,2.3-3.4,4.1c-5.3,25.5-0.6,44.5,13.6,54.9c9.7,7.1,20.5,8.2,26.1,8.2
				c5.9,0,11.5-1.2,15-3.2c5.9-3.4,13.8-22.1,16.8-47.6c2.7-22.7,0-35.7-1.6-38.8C422.6,145.1,422.3,145.1,421.9,145.1z"/>
			<path class="st0" d="M329.8,510.8c-10.2,0-19-7.3-20.8-17.4l-4.9-25.9c-14.4,1.9-28.9,2.8-43.3,2.8c-10.1,0-20.4-0.5-30.6-1.4
				l-4.6,24.5c-1.8,10-10.6,17.3-20.8,17.3h-35.2c-10.2,0-19-7.3-20.8-17.4l-9.8-51.2c-24.5-13.5-43.7-31.4-57.2-53.2
				c-14.9-24-22.4-52.2-22.4-83.8c0-2.8,0-5.4,0.1-7.8c-1.1,1.9-2.4,3.8-3.9,5.7c-14.6,18.4-30,22.2-40.4,22.2l-1.8,0
				c-5.8-0.3-10.4-5-10.4-10.8c0-5.9,4.6-10.7,10.5-10.8c6.5-0.3,15.9-2.6,24.1-11.9c-14.2-3.7-22.9-9.3-26.8-17.1
				c-2.6-5.4-4-14,4-24.5c4.9-6.3,11.8-10,19.1-10c1,0,2,0.1,3.1,0.2c10.5,1.4,20.3,9.9,25,21.7c0.5,1.3,1,2.6,1.3,4
				c9.2-41.4,33.7-74.5,71.3-96.2c1.6-0.9,3.4-1.4,5.3-1.4c3.7,0,7.1,2,9,5.2c1.4,2.4,1.8,5.3,1.1,7.9c-0.7,2.7-2.4,4.9-4.9,6.4
				c-20.5,12-36.4,27.5-47.3,46.2c-11.7,20.2-17.6,44.2-17.6,71.3c0,53.6,24.6,95.1,71.1,120c3.9,2,6.6,5.7,7.5,10.2l10.4,54.1
				c0,0.2,0.2,0.3,0.4,0.3h35.2c0.1,0,0.3-0.1,0.4-0.3l5.7-30.1c1.3-7,7.4-12,14.5-12c0.6,0,1.1,0,1.7,0.1
				c10.6,1.2,21.9,1.9,33.8,1.9c15.3,0,30.8-1.2,46-3.5c0.7-0.1,1.5-0.2,2.3-0.2c7,0,13,5,14.4,12l6,31.7c0,0.2,0.2,0.3,0.4,0.3H365
				c0.1,0,0.3-0.1,0.4-0.3l10.8-57.3c0.7-4.3,3.6-8.1,7.6-10.3c27.3-14.2,47.8-32.8,60.8-55.3c3.2-5.7,8.4-9.9,14.6-11.9l33.8-10.8
				c4.2-1.4,7.1-5.3,7.1-9.7v-34.8c0-4.4-2.9-8.4-7.1-9.7l-21-6.7c-8.2-2.7-14.7-9.2-17.2-17.5c-3.8-12.2-9.6-23.6-17.2-34
				c-0.8-1.1-1.7-2.3-2.8-3.6c-4.5,10.6-10.2,17.8-16.9,21.7c-6.7,3.8-15.7,5.9-25.3,5.9c-14,0-27.7-4.3-38.5-12.2
				c-9.9-7.2-16.9-17.1-20.9-29.3c-4.1-12.8-4.5-27.9-1.2-45c-1.9-0.4-3.6-0.8-5.1-1.2c-1.4-0.3-2.7-0.6-4.1-0.9
				c-3.8,5.5-8,10.4-12.2,14.7c-4.1,4.1-8.4,7.7-12.9,11c2.4,0.7,5,1.5,7.7,2.4c2.6,0.9,4.8,2.7,6,5.2s1.4,5.3,0.6,8
				c-1.5,4.3-5.5,7.2-9.9,7.2c-1.2,0-2.4-0.2-3.4-0.6c-19.9-6.7-40.7-10-62-10c-21.3,0-42.1,3.4-62,10c-1.1,0.4-2.2,0.5-3.3,0.5
				c-4.5,0-8.5-2.9-9.9-7.1c-0.9-2.6-0.7-5.5,0.6-8s3.4-4.3,6-5.2c2.7-0.9,5.3-1.7,7.7-2.4c-4.7-3.4-9-7.1-13-11
				c-19.8-19.8-30.7-46.1-30.7-74s10.9-54.2,30.7-74C182.5,13.9,208.8,3,236.7,3c28,0,54.2,10.9,74,30.7c7.8,7.7,14.4,16.8,19.6,27
				c1.3,2.5,1.5,5.4,0.6,8c-0.9,2.7-2.8,4.8-5.3,6c-1.4,0.7-3,1.1-4.7,1.1c-3.9,0-7.5-2.2-9.3-5.8c-4.1-8-9.4-15.3-15.7-21.5
				C280.2,32.7,259.1,24,236.7,24c-22.4,0-43.5,8.8-59.4,24.7c-15.8,15.8-24.5,36.9-24.5,59.3s8.7,43.5,24.5,59.3
				c8.5,8.5,18.5,15,29.6,19.1c9.8-1.3,19.8-2,29.7-2s19.9,0.7,29.7,2c11.1-4.2,21.1-10.6,29.6-19.1c14.8-14.9,23.5-34.6,24.4-55.5
				c0.3-5.6,4.9-10,10.4-10c0.2,0,0.3,0,0.5,0c2.8,0.1,5.4,1.3,7.2,3.4c1.9,2.1,2.9,4.7,2.7,7.5c-0.6,12.2-3.2,24.1-7.9,35.3
				c3.6,0.8,7.2,1.7,10.6,2.6c1.1-0.7,2.3-1.5,3.8-2.1c35.1-16,60.2-24.2,74.6-24.2c6.3,0,9.2,1.5,10.8,2.4
				c8.6,4.5,12.9,16.4,13.2,36.6c0.2,12.9-1.4,27.8-4.3,41.3c4.4,4.6,8.6,9.6,12.3,14.8c9,12.4,15.8,25.9,20.2,40.1
				c0.6,1.8,2,3.1,3.8,3.7l21,6.7c13,4.2,21.7,16.1,21.7,29.6v34.8c0,13.6-8.7,25.6-21.7,29.7l-33.8,10.8c-1.1,0.4-2.2,1.2-2.8,2.3
				c-14.6,25.3-37,46.2-66.6,62l-10.2,54.4c-1.8,10-10.6,17.3-20.8,17.3H329.8z M29.7,265.9c1,1.3,4.7,3.8,13.7,6
				c-0.2-0.8-0.5-1.4-0.7-2c-2.2-5.4-6.3-8.3-8.5-8.6l-0.3,0l-0.1,0c-0.3,0-1.1,0-2.4,1.7C30.4,264.2,29.9,265.4,29.7,265.9z
				 M421.9,145.1c-7.7,0-29.4,5.9-65.5,22.4c-1.7,0.8-3,2.3-3.4,4.1c-5.3,25.5-0.6,44.5,13.6,54.9c9.7,7.1,20.5,8.2,26.1,8.2
				c5.9,0,11.5-1.2,15-3.2c5.9-3.4,13.8-22.1,16.8-47.6c2.7-22.7,0-35.7-1.6-38.8C422.6,145.1,422.3,145.1,421.9,145.1z"/>
			<path class="st0" d="M498.4,272.8l-21-6.7c-2.7-0.9-4.8-3-5.7-5.7c-4.4-14.1-11.1-27.2-19.8-39.2c-4-5.5-8.4-10.7-13.2-15.6
				c3.1-13.6,4.8-28.9,4.6-42.2c-0.3-19-4.1-30.1-11.6-34c-4-2.1-16.3-8.5-82.8,21.9c-1.6,0.7-3,1.6-4.4,2.6
				c-4.5-1.2-9.1-2.3-13.7-3.3c-0.6-0.1-1.1-0.2-1.7-0.3c5.4-11.8,8.5-24.5,9.1-37.7c0.2-4.1-3-7.6-7.1-7.8c-4.1-0.2-7.6,3-7.8,7.1
				c-1,21.7-10,42.1-25.3,57.5c-9.2,9.2-19.9,15.9-31.4,20.1c-19.9-2.8-40.1-2.8-60,0c-11.5-4.2-22.2-10.9-31.4-20.1
				c-16.4-16.4-25.4-38.2-25.4-61.4s9-45,25.4-61.4C191.7,30,213.5,21,236.7,21s45,9,61.4,25.4c6.6,6.6,12,14.1,16.2,22.3
				c1.9,3.7,6.3,5.2,10,3.3c3.7-1.8,5.2-6.3,3.3-10c-4.9-9.7-11.2-18.5-19-26.2C289.4,16.6,263.9,6,236.7,6S184,16.7,164.8,35.9
				S135,80.7,135,107.8s10.6,52.7,29.8,71.9c5.5,5.5,11.6,10.3,17.9,14.3l0,0c-4.6,1.2-9.2,2.6-13.8,4.1c-3.9,1.3-6,5.5-4.7,9.4
				s5.5,6,9.4,4.7c40.6-13.6,85.4-13.6,126,0c0.8,0.3,1.6,0.4,2.4,0.4c3.1,0,6-2,7.1-5.1c1.3-3.9-0.8-8.1-4.7-9.4
				c-4.5-1.5-9.1-2.9-13.8-4.1l0,0c6.4-4,12.4-8.8,17.9-14.3c4.9-4.9,9.2-10.3,13-15.9c2.1,0.4,4.1,0.8,6.1,1.3
				c2.7,0.6,5.3,1.2,8,1.9c-0.1,0.3-0.2,0.6-0.2,1c-3.6,17.2-3.4,32.5,0.7,45.3c3.7,11.5,10.3,20.9,19.8,27.8
				c11.1,8.1,24.5,11.6,36.7,11.6c9.1,0,17.6-2,23.8-5.5c7-4,12.9-12.3,17.5-24.9c2.1,2.5,4.2,5.1,6.1,7.7
				c7.8,10.7,13.7,22.4,17.6,34.9c2.3,7.3,8,13.1,15.3,15.5l21,6.7c5.5,1.8,9.2,6.8,9.2,12.6v34.8c0,5.8-3.7,10.8-9.2,12.6
				l-33.8,10.8c-5.4,1.7-10,5.4-12.9,10.5c-13.3,22.9-34.1,41.9-62,56.4c-3.2,1.7-5.5,4.7-6.1,8.2l-10.8,57.3
				c-0.3,1.6-1.7,2.7-3.3,2.7h-35.2c-1.6,0-3-1.1-3.3-2.7l-6-31.7c-1.2-6.2-7-10.4-13.3-9.4c-15.2,2.3-30.8,3.5-46.4,3.5
				c-11.6,0-23.1-0.6-34.1-1.9c-6.1-0.7-11.8,3.5-12.9,9.5l-5.7,30.1c-0.3,1.6-1.7,2.7-3.3,2.7h-35.2c-1.6,0-3-1.1-3.3-2.7
				l-10.4-54.1c-0.7-3.5-2.9-6.5-6-8.1c-47.5-25.4-72.7-67.8-72.7-122.6c0-27.7,6.1-52.2,18-72.8c11.2-19.2,27.5-35.1,48.4-47.3
				c3.6-2.1,4.8-6.6,2.7-10.2c-2.1-3.6-6.6-4.8-10.2-2.7c-40.7,23.5-65.2,59.8-72,105.9l0,0c-0.7-0.1-1.4-0.1-2.2-0.2
				c0.1-5-0.8-10-2.7-14.9c-4.3-10.7-13.2-18.5-22.6-19.8c-7.4-1-14.5,2.2-19.4,8.6c-7.1,9.4-5.9,16.8-3.7,21.4
				c3.8,7.7,13.4,13.2,29.4,16.6c-0.4,0.7-0.9,1.3-1.5,2C32,304,20.9,306.6,13.6,306.9C9.4,307,6,310.4,6,314.7l0,0
				c0,4.2,3.3,7.6,7.5,7.8c0.5,0,1.1,0,1.7,0c9.2,0,23.9-3.4,38-21.1c2.2-2.8,4-5.7,5.4-8.8c1.4,0.2,2.8,0.3,4.1,0.4l0,0
				c-0.3,4-0.4,8.1-0.4,12.3c0,31,7.4,58.7,22,82.2c13.4,21.7,32.7,39.5,57.3,52.8l10.1,52.6c1.6,8.6,9.2,14.9,17.9,14.9h35.2
				c8.8,0,16.3-6.2,17.9-14.9l5.1-27.2c10.7,1.1,21.8,1.7,33,1.7c15.4,0,30.7-1.1,45.7-3.2l5.4,28.7c1.6,8.6,9.2,14.9,17.9,14.9H365
				c8.8,0,16.3-6.2,17.9-14.9l10.5-55.8c29.8-15.7,52.2-36.4,66.7-61.5c1-1.8,2.7-3.1,4.5-3.7l33.8-10.8
				c11.7-3.7,19.6-14.5,19.6-26.8v-34.8C518,287.3,510.1,276.6,498.4,272.8z M427.3,184.3c-2.9,24.5-10.6,45.5-18.3,49.9
				c-8.8,5-29.1,5.9-44.3-5.2c-15.2-11.2-20.3-31.2-14.7-58l0,0c0.6-2.7,2.5-5,5.1-6.2c37.3-17.1,58.8-22.7,66.8-22.7
				c1.2,0,2.1,0.1,2.7,0.4C427,145,430.2,159.5,427.3,184.3z M26.9,267c-0.8-1.6,1-4.4,2.2-5.9c1.8-2.4,3.5-2.9,4.8-2.9
				c0.3,0,0.5,0,0.8,0.1c3.4,0.5,8.2,4.2,10.8,10.5c0.6,1.5,1.4,4,1.6,7C36.7,273.7,28.7,270.6,26.9,267z"/>
		</g>
	</g>
</g>
</svg>
