<?xml version="1.0" encoding="utf-8"?>
<!-- Generator: Adobe Illustrator 25.2.1, SVG Export Plug-In . SVG Version: 6.00 Build 0)  -->
<svg version="1.1" id="Capa_1" xmlns="http://www.w3.org/2000/svg" xmlns:xlink="http://www.w3.org/1999/xlink" x="0px" y="0px"
	 viewBox="0 0 512 512" style="enable-background:new 0 0 512 512;" xml:space="preserve">
<style type="text/css">
	.st0{fill:#0072BA;}
</style>
<g>
	<g>
		<circle class="st0" cx="356" cy="439" r="13"/>
		<path class="st0" d="M356,429c-5.5,0-10,4.5-10,10s4.5,10,10,10s10-4.5,10-10S361.5,429,356,429z"/>
	</g>
</g>
<g>
	<g>
		<circle class="st0" cx="156" cy="439" r="13"/>
		<path class="st0" d="M156,429c-5.5,0-10,4.5-10,10s4.5,10,10,10s10-4.5,10-10S161.5,429,156,429z"/>
	</g>
</g>
<g>
	<g>
		<path class="st0" d="M56,515c-7.2,0-13-5.8-13-13v-63c0-22.3,6.5-44.3,18.9-63.4c11.4-17.7,27.2-31.9,45.6-41.1
			c1.9-1.6,4.2-2.7,6.6-3c13.3-5.6,27.4-8.5,41.9-8.5h27v-22.1c-2.8-2.5-5.1-4.7-7.1-6.8c-13-13.5-22.7-30.1-28.1-48.2H146
			c-23.7,0-43-19.3-43-43c0-9.9,3.4-19.3,9.5-26.9c-6-6.1-9.4-14.4-9.4-23.1c0-8.8,3.4-17.1,9.7-23.3c3.2-3.1,6.9-5.5,10.9-7.2
			c4.3-45.9,36.3-84.9,80.5-97.9C207.5,10.9,219.5-3,236.1-3h40c16.7,0,28.6,13.9,32,27.6c44.2,13,76.2,52,80.5,97.8
			c12.3,5,20.5,17.1,20.5,30.5c0,8.7-3.4,16.9-9.5,23.1c6.1,7.6,9.5,17,9.5,26.9c0,23.7-19.3,43-43,43h-1.8
			c-6.4,21.4-18.5,40.3-35.2,55v22h27c14.5,0,28.6,2.8,41.9,8.5c2.4,0.3,4.7,1.4,6.6,3c18.3,9.1,34.1,23.3,45.6,41.1
			c12.4,19,18.9,40.9,18.9,63.4v63c0,7.2-5.8,13-13,13H56z M443,489v-50c0-27-12.9-53.6-34-70.8V489H443z M383,489V353.6
			c-4.5-1.6-9.2-2.8-14-3.5v59c0,7.2-5.8,13-13,13s-13-5.8-13-13v-60h-21.4L269,404.2V489h74v-20c0-7.2,5.8-13,13-13s13,5.8,13,13
			v20H383z M243,489v-84.8L190.4,349H169v60c0,7.2-5.8,13-13,13s-13-5.8-13-13v-59c-4.6,0.8-9.3,1.9-14,3.6V489h14v-20
			c0-7.2,5.8-13,13-13s13,5.8,13,13v20H243z M103,489V368.2C81.9,385.4,69,412,69,439v50H103z M256,380.2l47-49.4v-12.5
			c-14.7,7.1-30.5,10.7-47,10.7c-16.5,0-32.3-3.6-47-10.7v12.5L256,380.2z M170.8,230.8c3.5,17,11.8,32.7,23.9,45.4
			c2.8,3,6,5.9,9.8,8.8c15.1,11.8,33,18,51.6,18c18.6,0,36.4-6.2,51.5-18c17.4-13.4,29.3-32.7,33.7-54.4l0.2-0.9l0,0
			c1.1-5.5,1.6-11.1,1.6-16.7v-27H169v27c0,5.5,0.5,11.2,1.6,16.9C170.7,230.2,170.7,230.5,170.8,230.8z M369,213
			c0,2.1-0.1,4.4-0.2,6.8c8.1-1.3,14.2-8.3,14.2-16.8c0-8.4-6.1-15.3-14-16.7V213z M143,186.3c-7.9,1.4-14,8.4-14,16.7
			c0,8.4,6.2,15.5,14.2,16.8c-0.2-2.4-0.2-4.6-0.2-6.8V186.3z M136,146c-1.9,0-3.7,0.7-5,2c-1.3,1.3-2,3-2,5c0,3.9,3.1,7,7,7h240
			c1.9,0,3.7-0.7,5-2c1.3-1.3,2-3,2-5c0-3.9-3.1-7-7-7H136z M362,120c-4.5-30.1-24.9-56-53-67.5V93c0,7.2-5.8,13-13,13
			s-13-5.8-13-13V33c0-4.8-4.1-10-7-10h-40c-2.9,0-7,5.2-7,10v60c0,7.2-5.8,13-13,13s-13-5.8-13-13V52.5
			C174.9,64.1,154.6,90,150,120H362z"/>
		<path class="st0" d="M447.6,377.2c-11.3-17.4-26.7-31.3-44.8-40.2c-1.5-1.4-3.5-2.4-5.7-2.6c-13.1-5.6-26.9-8.4-41.1-8.4h-30
			v-26.4c17.4-14.9,29.8-34.6,35.9-56.6h4.1c22.1,0,40-17.9,40-40c0-10.5-4-20-10.6-27.1c0.6-0.5,1.2-1.1,1.8-1.7
			c5.7-5.7,8.8-13.2,8.8-21.2c0-13.2-8.5-24.4-20.3-28.4c-3.5-46-35.8-85.3-80.2-97.6c-2.6-13.8-14-27-29.4-27h-40
			c-15.4,0-26.8,13.3-29.4,27c-44.4,12.3-76.7,51.6-80.2,97.6c-4.3,1.5-8.2,3.9-11.6,7.2c-5.7,5.7-8.8,13.2-8.8,21.2
			c0,9.2,4.1,17.4,10.6,22.9C110,183,106,192.5,106,203c0,22.1,17.9,40,40,40h4.1c5.1,18.4,14.6,35.2,28,49.1
			c2.5,2.6,5.2,5.1,7.9,7.5V326h-30c-14.2,0-28,2.8-41.1,8.4c-2.2,0.2-4.2,1.2-5.7,2.6c-18.1,8.9-33.6,22.8-44.8,40.2
			c-12,18.6-18.4,40-18.4,61.8v63c0,5.5,4.5,10,10,10h400c5.5,0,10-4.5,10-10v-63C466,417.2,459.7,395.8,447.6,377.2z M106,492H66
			v-53c0-30.4,15.6-59.6,40-76.9V492z M366,223h-0.5c0.3-3.3,0.5-6.7,0.5-10v-30c11,0,20,9,20,20S377,223,366,223z M206,48.1V93
			c0,5.5,4.5,10,10,10s10-4.5,10-10V35.1V35v-2c0-6.2,5.2-13,10-13h40c4.8,0,10,6.8,10,13v2v0.1V93c0,5.5,4.5,10,10,10s10-4.5,10-10
			V48.1c32.3,11.4,55.6,40.6,59.4,74.9H146.6C150.4,88.8,173.7,59.6,206,48.1z M146,223c-11,0-20-9-20-20s9-20,20-20v30
			c0,3.3,0.2,6.7,0.5,10H146z M146,163h-10c-5.5,0-10-4.5-10-10c0-2.7,1-5.2,2.9-7.1c1.9-1.9,4.4-2.9,7.1-2.9h240
			c5.5,0,10,4.5,10,10c0,2.7-1,5.2-2.9,7.1c-1.9,1.9-4.4,2.9-7.1,2.9h-10h-10H156H146z M167.8,231.2c0-0.1,0-0.2-0.1-0.3
			C166.6,225,166,219,166,213v-30h180v30c0,6-0.6,12-1.8,17.9c0,0.1,0,0.2-0.1,0.3c-4.5,22.3-16.8,42.3-34.8,56.2
			C293.7,299.6,275.2,306,256,306s-37.7-6.4-53.4-18.6c-3.6-2.8-7-5.8-10.1-9.1C179.9,265.1,171.4,248.9,167.8,231.2z M246,492h-80
			v-23c0-5.5-4.5-10-10-10s-10,4.5-10,10v23h-20V351.5c6.5-2.4,13.2-4.1,20-4.9V409c0,5.5,4.5,10,10,10s10-4.5,10-10v-63h25.7
			l54.3,57V492z M206,332v-18.6c15.4,8.3,32.4,12.6,50,12.6s34.6-4.3,50-12.6V332l-50,52.5L206,332z M386,492h-20v-23
			c0-5.5-4.5-10-10-10s-10,4.5-10,10v23h-80v-89l54.3-57H346v63c0,5.5,4.5,10,10,10s10-4.5,10-10v-62.4c6.8,0.8,13.5,2.4,20,4.9V492
			z M446,492h-40V362.1c24.4,17.3,40,46.5,40,76.9V492z"/>
	</g>
</g>
</svg>
